# Blender v2.80 (sub 75) OBJ File: 'Visualizacion - copia.blend'
# www.blender.org
mtllib Cuchillo_Fruta.mtl
o Cuchillo_Fruta_Cube.014
v -0.279041 0.492647 -0.114406
v -0.226649 0.637848 -0.114406
v -0.279041 0.492647 -0.045777
v -0.226649 0.637848 -0.045777
v -0.818744 0.492647 -0.114406
v -0.867134 0.611194 -0.114406
v -0.818744 0.492647 -0.045777
v -0.867134 0.611194 -0.045777
v -0.761616 0.527113 -0.045777
v -0.761616 0.632397 -0.045777
v -0.761616 0.527113 -0.114406
v -0.761616 0.632397 -0.114406
v -0.345263 0.540355 -0.045777
v -0.344354 0.614298 -0.114406
v -0.344354 0.614298 -0.045777
v -0.345263 0.540355 -0.114406
v -0.248550 0.559428 -0.114406
v -0.248550 0.559428 -0.045777
v -0.843526 0.559428 -0.045777
v -0.843526 0.559428 -0.114406
v -0.761616 0.559428 -0.114406
v -0.761616 0.559428 -0.045777
v -0.344354 0.559428 -0.045777
v -0.344354 0.559428 -0.114406
v -0.332528 0.492647 -0.045777
v -0.332528 0.620632 -0.114406
v -0.332528 0.620632 -0.045777
v -0.332528 0.492647 -0.114406
v -0.332528 0.559428 -0.045777
v -0.332528 0.559428 -0.114406
v -0.552985 0.631568 -0.045777
v -0.552985 0.492647 -0.114406
v -0.552985 0.492647 -0.045777
v -0.552985 0.631568 -0.114406
v -0.552985 0.559428 -0.114406
v -0.552985 0.559428 -0.045777
v -0.771137 0.631860 -0.045777
v -0.771137 0.492647 -0.114406
v -0.771137 0.492647 -0.045777
v -0.771137 0.631860 -0.114406
v -0.771137 0.559428 -0.114406
v -0.771137 0.559428 -0.045777
v -0.290659 0.492647 -0.045777
v -0.238266 0.635642 -0.114406
v -0.266035 0.559428 -0.114406
v -0.238266 0.635642 -0.045777
v -0.290659 0.492647 -0.114406
v -0.266035 0.559428 -0.045777
v 0.407630 0.521763 -0.081680
v 0.503897 0.618611 -0.081680
v 0.407630 0.521763 -0.078504
v 0.503897 0.618611 -0.078504
v -0.285448 0.508482 -0.081680
v -0.285448 0.618611 -0.087458
v -0.285448 0.508482 -0.078503
v -0.285448 0.618611 -0.072725
v 0.462970 0.549340 -0.081680
v 0.490436 0.583975 -0.081680
v 0.490436 0.583975 -0.078504
v 0.462970 0.549340 -0.078504
v -0.285448 0.583975 -0.072725
v -0.285448 0.549340 -0.072725
v -0.285448 0.583975 -0.087458
v -0.285448 0.549340 -0.087458
v 0.059434 0.511526 -0.078503
v 0.078456 0.618611 -0.072725
v 0.059434 0.511526 -0.081680
v 0.078456 0.618611 -0.087458
v 0.067572 0.549340 -0.087458
v 0.073969 0.583975 -0.087458
v 0.067572 0.549340 -0.072725
v 0.073969 0.583975 -0.072725
v 0.363859 0.514705 -0.078504
v 0.420927 0.618611 -0.087458
v 0.388274 0.549340 -0.087458
v 0.407465 0.583975 -0.087458
v 0.420927 0.618611 -0.072725
v 0.363859 0.514705 -0.081680
v 0.388274 0.549340 -0.072725
v 0.407465 0.583975 -0.072725
vt 0.116547 0.509451
vt 0.129013 0.509451
vt 0.129012 0.519958
vt 0.116547 0.519958
vt 0.163385 0.569904
vt 0.163193 0.551126
vt 0.188136 0.556230
vt 0.182152 0.569713
vt 0.236689 0.519958
vt 0.227978 0.519958
vt 0.227978 0.509451
vt 0.236689 0.509451
vt 0.032591 0.618133
vt 0.025128 0.637986
vt 0.022084 0.638532
vt 0.028020 0.618087
vt 0.019078 0.519958
vt 0.011789 0.519958
vt 0.011789 0.509451
vt 0.019078 0.509451
vt 0.130823 0.519958
vt 0.130823 0.509451
vt 0.212944 0.519958
vt 0.211484 0.519958
vt 0.211484 0.509451
vt 0.212944 0.509451
vt 0.056927 0.519958
vt 0.024553 0.519958
vt 0.024553 0.509451
vt 0.056927 0.509451
vt 0.164654 0.619479
vt 0.164461 0.638417
vt 0.161971 0.638532
vt 0.162165 0.619453
vt 0.106827 0.570480
vt 0.106636 0.551777
vt 0.160724 0.551011
vt 0.160916 0.569929
vt 0.049671 0.571063
vt 0.049509 0.555195
vt 0.052592 0.556806
vt 0.052737 0.571032
vt 0.097118 0.519958
vt 0.089558 0.519958
vt 0.089558 0.509451
vt 0.097118 0.509451
vt 0.179542 0.519958
vt 0.147491 0.519958
vt 0.147491 0.509451
vt 0.179542 0.509451
vt 0.107617 0.618898
vt 0.107425 0.637759
vt 0.052922 0.632688
vt 0.053069 0.618342
vt 0.107795 0.601437
vt 0.053357 0.613357
vt 0.049847 0.588377
vt 0.053023 0.575974
vt 0.107003 0.587794
vt 0.161002 0.578307
vt 0.164832 0.602018
vt 0.162251 0.611004
vt 0.039207 0.600738
vt 0.036170 0.600707
vt 0.247594 0.519958
vt 0.247594 0.509451
vt 0.163561 0.587218
vt 0.175904 0.587092
vt 0.105307 0.509451
vt 0.105307 0.519958
vt 0.049976 0.618310
vt 0.050154 0.600850
vt 0.038992 0.588487
vt 0.032432 0.571239
vt 0.103528 0.519958
vt 0.103528 0.509451
vt 0.025031 0.551553
vt 0.145437 0.519958
vt 0.145437 0.509451
vt 0.049813 0.634312
vt 0.177280 0.602145
vt 0.183581 0.619672
vt 0.189616 0.633269
vt 0.027899 0.571285
vt 0.022013 0.551011
vt 0.035980 0.588518
vt 0.106135 0.741035
vt 0.101549 0.741035
vt 0.101549 0.740643
vt 0.106135 0.740643
vt 0.125064 0.703336
vt 0.123839 0.693886
vt 0.223166 0.693886
vt 0.223166 0.703340
vt 0.035283 0.672669
vt 0.031595 0.682116
vt 0.008876 0.682038
vt 0.012577 0.672586
vt 0.147159 0.740485
vt 0.169622 0.740626
vt 0.169622 0.741018
vt 0.147159 0.740877
vt 0.091308 0.739929
vt 0.091308 0.741748
vt 0.047149 0.653651
vt 0.040527 0.663234
vt 0.020095 0.663138
vt 0.035205 0.655591
vt 0.129031 0.723234
vt 0.126811 0.712795
vt 0.223166 0.712793
vt 0.223166 0.724056
vt 0.119223 0.741035
vt 0.111591 0.741035
vt 0.111591 0.740643
vt 0.119223 0.740643
vt 0.039356 0.712785
vt 0.045978 0.722368
vt 0.126235 0.672682
vt 0.127982 0.663223
vt 0.224338 0.663225
vt 0.224338 0.672678
vt 0.130202 0.652784
vt 0.224338 0.651961
vt 0.049037 0.741748
vt 0.049037 0.739929
vt 0.004121 0.739929
vt 0.004121 0.741748
vt 0.124695 0.741035
vt 0.124695 0.740643
vt 0.125010 0.682132
vt 0.224338 0.682132
vt 0.030424 0.693902
vt 0.034112 0.703349
vt 0.011405 0.703432
vt 0.007704 0.693981
vt 0.034034 0.720427
vt 0.018924 0.712880
vn 0.6798 -0.2484 -0.6900
vn 0.6116 0.5619 -0.5569
vn 0.6116 0.5619 0.5569
vn 0.6798 -0.2484 0.6900
vn 0.0000 0.0000 1.0000
vn -0.0968 0.7173 0.6900
vn -0.7362 0.3697 0.5668
vn -0.6458 -0.2667 0.7154
vn -0.7362 0.3697 -0.5668
vn -0.6458 -0.2667 -0.7154
vn 0.0000 0.0000 -1.0000
vn -0.1210 0.6932 -0.7104
vn 0.4877 -0.6408 0.5929
vn -0.4575 -0.6577 0.5983
vn -0.4575 -0.6577 -0.5983
vn 0.4877 -0.6408 -0.5929
vn -0.1210 0.6932 0.7104
vn -0.0187 0.7135 0.7004
vn -0.0187 0.7135 -0.7004
vn -0.0968 0.7173 -0.6900
vn 0.0231 -0.7455 0.6660
vn 0.2436 -0.3810 0.8919
vn 0.2436 -0.3810 -0.8919
vn 0.0231 -0.7455 -0.6660
vn 0.0309 0.7150 0.6984
vn -0.2365 0.7022 0.6715
vn -0.1279 0.6167 0.7767
vn -0.4908 -0.6390 0.5923
vn -0.2245 -0.3727 0.9004
vn -0.2245 -0.3727 -0.9004
vn -0.4908 -0.6390 -0.5923
vn -0.1279 0.6167 -0.7767
vn 0.0309 0.7150 -0.6984
vn 0.0000 -0.7071 -0.7071
vn 0.4312 -0.6709 -0.6033
vn 0.4312 -0.6709 0.6033
vn 0.0000 -0.7071 0.7071
vn -0.2365 0.7022 -0.6715
vn 0.6623 -0.3755 -0.6482
vn 0.6985 0.4689 -0.5406
vn 0.6985 0.4689 0.5406
vn 0.6623 -0.3755 0.6482
vn 0.0000 0.7071 0.7071
vn 0.0374 -0.0214 -0.9991
vn 0.0309 0.6934 -0.7199
vn 0.0068 -0.7586 0.6514
vn 0.0063 -0.7583 0.6518
vn 0.0063 -0.7583 -0.6518
vn 0.0068 -0.7586 -0.6514
vn 0.0309 0.6934 0.7199
vn 0.0674 -0.7713 -0.6329
vn 0.0326 -0.0901 -0.9954
vn 0.4954 -0.5999 -0.6283
vn 0.2445 -0.7514 -0.6128
vn 0.0004 -0.0764 0.9971
vn 0.0003 -0.0729 0.9973
vn 0.4954 -0.5999 0.6283
vn 0.2445 -0.7514 0.6128
vn 0.0326 -0.0901 0.9954
vn 0.0674 -0.7713 0.6329
vn 0.0003 -0.0764 -0.9971
vn 0.0003 -0.0729 -0.9973
vn 0.0000 0.7071 -0.7071
vn 0.0374 -0.0214 0.9991
usemtl T_Props.010
s 1
f 17/1/1 2/2/2 4/3/3 18/4/4
f 42/5/5 37/6/6 8/7/7 19/8/8
f 19/9/8 8/10/7 6/11/9 20/12/10
f 45/13/11 44/14/12 2/15/2 17/16/1
f 39/17/13 7/18/14 5/19/15 38/20/16
f 46/21/17 4/3/3 2/2/2 44/22/12
f 37/23/6 10/24/18 12/25/19 40/26/20
f 33/27/21 9/28/22 11/29/23 32/30/24
f 41/31/11 40/32/20 12/33/19 21/34/11
f 36/35/5 31/36/25 10/37/18 22/38/5
f 29/39/5 27/40/26 15/41/27 23/42/5
f 25/43/28 13/44/29 16/45/30 28/46/31
f 31/47/25 15/48/27 14/49/32 34/50/33
f 35/51/11 34/52/33 14/53/32 24/54/11
f 32/55/24 35/51/11 24/54/11 16/56/30
f 25/57/28 29/39/5 23/42/5 13/58/29
f 33/59/21 36/35/5 22/38/5 9/60/22
f 38/61/16 41/31/11 21/34/11 11/62/23
f 47/63/34 45/13/11 17/16/1 1/64/35
f 7/65/14 19/9/8 20/12/10 5/66/15
f 39/67/13 42/5/5 19/8/8 7/68/14
f 1/69/35 17/1/1 18/4/4 3/70/36
f 16/56/30 24/54/11 30/71/11 28/72/31
f 43/73/37 48/74/5 29/39/5 25/57/28
f 43/75/37 25/43/28 28/46/31 47/76/34
f 48/74/5 46/77/17 27/40/26 29/39/5
f 15/48/27 27/78/26 26/79/38 14/49/32
f 24/54/11 14/53/32 26/80/38 30/71/11
f 13/58/29 23/42/5 36/35/5 33/59/21
f 11/62/23 21/34/11 35/51/11 32/55/24
f 21/34/11 12/33/19 34/52/33 35/51/11
f 10/24/18 31/47/25 34/50/33 12/25/19
f 23/42/5 15/41/27 31/36/25 36/35/5
f 13/44/29 33/27/21 32/30/24 16/45/30
f 9/60/22 22/38/5 42/5/5 39/67/13
f 5/81/15 20/82/10 41/31/11 38/61/16
f 20/82/10 6/83/9 40/32/20 41/31/11
f 8/10/7 37/23/6 40/26/20 6/11/9
f 9/28/22 39/17/13 38/20/16 11/29/23
f 22/38/5 10/37/18 37/6/6 42/5/5
f 18/84/4 4/85/3 46/77/17 48/74/5
f 3/70/36 43/75/37 47/76/34 1/69/35
f 3/86/36 18/84/4 48/74/5 43/73/37
f 28/72/31 30/71/11 45/13/11 47/63/34
f 27/78/26 46/21/17 44/22/12 26/79/38
f 30/71/11 26/80/38 44/14/12 45/13/11
f 58/87/39 50/88/40 52/89/41 59/90/42
f 72/91/5 66/92/43 56/93/43 61/94/5
f 76/95/44 74/96/45 50/97/40 58/98/39
f 65/99/46 55/100/47 53/101/48 67/102/49
f 77/103/50 52/89/41 50/88/40 74/104/45
f 78/105/51 75/106/52 57/107/53 49/108/54
f 75/106/52 76/95/44 58/98/39 57/107/53
f 65/109/46 71/110/55 62/111/56 55/112/47
f 71/110/55 72/91/5 61/94/5 62/111/56
f 49/113/54 57/114/53 60/115/57 51/116/58
f 57/114/53 58/87/39 59/90/42 60/115/57
f 79/117/59 71/110/55 65/109/46 73/118/60
f 70/119/11 76/95/44 75/106/52 69/120/61
f 64/121/62 63/122/11 70/119/11 69/120/61
f 69/120/61 75/106/52 78/105/51 67/123/49
f 53/124/48 64/121/62 69/120/61 67/123/49
f 77/103/50 74/104/45 68/125/63 66/126/43
f 56/127/43 66/126/43 68/125/63 54/128/63
f 65/99/46 67/102/49 78/129/51 73/130/60
f 68/131/63 74/96/45 76/95/44 70/119/11
f 63/122/11 54/132/63 68/131/63 70/119/11
f 77/133/50 66/92/43 72/91/5 80/134/64
f 59/135/42 52/136/41 77/133/50 80/134/64
f 51/116/58 73/130/60 78/129/51 49/113/54
f 51/137/58 60/138/57 79/117/59 73/118/60
f 60/138/57 59/135/42 80/134/64 79/117/59
f 80/134/64 72/91/5 71/110/55 79/117/59
