# Blender v2.80 (sub 75) OBJ File: 'Visualizacion - copia.blend'
# www.blender.org
mtllib Cuchillo_Carnicero.mtl
o Carnicero_Cube.008
v -0.005068 0.632625 -0.001432
v -0.005519 0.978809 -0.009812
v -0.005068 0.632625 0.001432
v -0.005403 0.978809 0.009812
v -0.733722 0.626695 -0.001432
v -0.700509 0.962989 -0.009812
v -0.733722 0.626695 0.001432
v -0.700509 0.962989 0.009812
v -0.518198 0.602299 0.001432
v -0.324765 0.601044 0.001432
v -0.131332 0.610974 0.001432
v -0.129478 0.976844 0.009812
v -0.322911 0.973301 0.009812
v -0.516344 0.976844 0.009812
v -0.131332 0.610974 -0.001432
v -0.324765 0.601044 -0.001432
v -0.518198 0.602299 -0.001432
v -0.516344 0.976844 -0.009812
v -0.322911 0.973301 -0.009812
v -0.129478 0.976844 -0.009812
v -0.010218 0.729744 -0.009812
v -0.014465 0.896537 -0.009812
v -0.013790 0.896537 0.009812
v -0.010218 0.729744 0.009812
v -0.723681 0.864124 0.009812
v -0.732337 0.726699 0.009812
v -0.723681 0.864124 -0.009812
v -0.732337 0.726699 -0.009812
v -0.516344 0.851568 -0.009812
v -0.516344 0.699713 -0.009812
v -0.322911 0.851568 -0.009812
v -0.322911 0.699713 -0.009812
v -0.129478 0.864915 -0.009812
v -0.129478 0.713060 -0.009812
v -0.129478 0.864915 0.009812
v -0.129478 0.713060 0.009812
v -0.322911 0.851568 0.009812
v -0.322911 0.699713 0.009812
v -0.516344 0.851568 0.009812
v -0.516344 0.699713 0.009812
v -0.647456 0.983552 0.009812
v -0.648053 0.612041 -0.001432
v -0.648053 0.612041 0.001432
v -0.647456 0.983552 -0.009812
v -0.656880 0.712523 -0.009812
v -0.656880 0.864379 -0.009812
v -0.656880 0.712523 0.009812
v -0.656880 0.864379 0.009812
v -0.643452 0.880372 0.009812
v -0.643452 0.880372 -0.009812
v -0.629982 0.876763 0.009812
v -0.629982 0.876763 -0.009812
v -0.603041 0.903664 0.009812
v -0.603041 0.903664 -0.009812
v -0.653313 0.917174 0.009812
v -0.653313 0.917174 -0.009812
v -0.616511 0.927035 0.009812
v -0.616511 0.927035 -0.009812
v -0.606650 0.917174 0.009812
v -0.606650 0.917174 -0.009812
v -0.643452 0.927035 0.009812
v -0.643452 0.927035 -0.009812
v -0.652653 0.917834 0.009812
v -0.652653 0.917834 -0.009812
v -0.656922 0.903704 0.009812
v -0.656922 0.903704 -0.009812
v -0.616511 0.880372 0.009812
v -0.616511 0.880372 -0.009812
v -0.629982 0.930644 0.009812
v -0.629982 0.930644 -0.009812
v -0.654489 0.894620 0.009812
v -0.653313 0.890233 0.009812
v -0.654489 0.894620 -0.009812
v -0.653313 0.890233 -0.009812
v -0.606650 0.890159 0.009812
v -0.606650 0.890159 -0.009812
v 0.568274 0.873889 -0.028295
v 0.568274 0.993290 -0.028295
v 0.568274 0.873889 0.028295
v 0.568274 0.993290 0.028295
v -0.015274 0.878497 -0.026111
v -0.015274 0.988682 -0.026111
v -0.015274 0.878497 0.026111
v -0.015274 0.988682 0.026111
v -0.008016 0.888745 0.028295
v -0.008016 0.993290 0.028295
v -0.008016 0.888745 -0.028295
v -0.008016 0.993290 -0.028295
v 0.505284 0.882896 0.028295
v 0.505284 0.993290 -0.028295
v 0.505284 0.993290 0.028295
v 0.505284 0.882896 -0.028295
v 0.543865 0.847084 0.028295
v 0.543865 0.993290 -0.028295
v 0.543865 0.993290 0.028295
v 0.543865 0.847084 -0.028295
v 0.587044 0.873889 -0.000000
v 0.587044 0.993290 -0.000000
v -0.015274 0.878497 -0.000000
v -0.015274 0.988682 -0.000000
v -0.008016 0.993290 -0.000000
v -0.008016 0.888745 -0.000000
v 0.505284 0.882896 -0.000000
v 0.505284 0.993290 -0.000000
v 0.543865 0.847084 -0.000000
v 0.543865 0.993290 -0.000000
v 0.248634 0.993290 0.038357
v 0.248634 0.866205 -0.038357
v 0.248634 0.866205 0.038357
v 0.248634 0.993290 -0.038357
v 0.248634 0.993290 -0.000000
v 0.248634 0.866205 -0.000000
vt 0.833033 0.751693
vt 0.835354 0.761643
vt 0.832994 0.761642
vt 0.862306 0.979858
vt 0.862501 0.980131
vt 0.853014 0.989222
vt 0.835338 0.902926
vt 0.832986 0.915133
vt 0.832979 0.902927
vt 0.867115 0.978383
vt 0.866985 0.978424
vt 0.867034 0.978303
vt 0.834314 0.874353
vt 0.833964 0.863905
vt 0.834308 0.863905
vt 0.835384 0.984262
vt 0.833033 0.999166
vt 0.833025 0.984263
vt 0.835357 0.937752
vt 0.832990 0.921973
vt 0.835349 0.921971
vt 0.835371 0.961007
vt 0.832999 0.937753
vt 0.833012 0.961008
vt 0.834365 0.793391
vt 0.834029 0.808793
vt 0.834021 0.793391
vt 0.834336 0.828522
vt 0.834374 0.808792
vt 0.834299 0.848251
vt 0.833992 0.828522
vt 0.867116 0.977139
vt 0.868227 0.976269
vt 0.868397 0.977317
vt 0.867180 0.978095
vt 0.867027 0.977942
vt 0.994649 0.975869
vt 0.970416 0.992590
vt 0.970482 0.969194
vt 0.929986 0.991728
vt 0.930069 0.966307
vt 0.889741 0.966262
vt 0.929782 0.913843
vt 0.889646 0.934562
vt 0.889262 0.913998
vt 0.930121 0.934568
vt 0.970234 0.916027
vt 0.970561 0.937448
vt 0.996626 0.920618
vt 0.995487 0.940999
vt 0.866765 0.977996
vt 0.866893 0.978375
vt 0.866605 0.978079
vt 0.866951 0.978300
vt 0.866566 0.977510
vt 0.866357 0.977684
vt 0.866146 0.977461
vt 0.866145 0.977250
vt 0.867150 0.978460
vt 0.867048 0.978369
vt 0.835328 0.886374
vt 0.833970 0.874353
vt 0.832969 0.886376
vt 0.860116 0.937557
vt 0.843264 0.918962
vt 0.861832 0.915958
vt 0.861049 0.969620
vt 0.844068 0.940971
vt 0.833007 0.781700
vt 0.835366 0.781698
vt 0.865981 0.977277
vt 0.865927 0.976429
vt 0.866079 0.977362
vt 0.865825 0.977872
vt 0.864931 0.978576
vt 0.864741 0.977441
vt 0.835345 0.915132
vt 0.833955 0.848251
vt 0.870592 0.974846
vt 0.868818 0.973148
vt 0.866524 0.975407
vt 0.866461 0.972480
vt 0.861559 0.977380
vt 0.864019 0.973099
vt 0.861937 0.975715
vt 0.871322 0.977214
vt 0.868209 0.978384
vt 0.870711 0.979681
vt 0.867437 0.979141
vt 0.869067 0.981531
vt 0.864216 0.981653
vt 0.866497 0.979598
vt 0.866638 0.982227
vt 0.865565 0.979396
vt 0.865441 0.975545
vt 0.862270 0.974901
vt 0.835392 0.751701
vt 0.847383 0.969965
vt 0.863174 0.993073
vt 0.866971 0.978578
vt 0.835392 0.999178
vt 0.864826 0.976620
vt 0.864727 0.976335
vt 0.866433 0.978436
vt 0.867312 0.977986
vt 0.864962 0.978693
vt 0.867524 0.975564
vt 0.996354 0.993073
vt 0.889596 0.992297
vt 0.865749 0.977105
vt 0.817560 0.981115
vt 0.816934 0.998303
vt 0.811737 0.998045
vt 0.812644 0.979772
vt 0.846522 0.829019
vt 0.846522 0.855413
vt 0.844608 0.854249
vt 0.844608 0.826432
vt 0.817515 0.873688
vt 0.817515 0.854728
vt 0.822008 0.854728
vt 0.822008 0.873688
vt 0.984596 0.898499
vt 0.984596 0.862928
vt 0.990535 0.862928
vt 0.990535 0.891977
vt 0.817515 0.875848
vt 0.822384 0.875848
vt 0.817515 0.758281
vt 0.817515 0.750851
vt 0.822384 0.754081
vt 0.822384 0.758281
vt 0.817515 0.853249
vt 0.822384 0.853249
vt 0.817515 0.920179
vt 0.824115 0.920179
vt 0.848389 0.890856
vt 0.848389 0.864049
vt 0.850233 0.862928
vt 0.850233 0.888363
vt 0.911365 0.823329
vt 0.911365 0.855413
vt 0.985947 0.818502
vt 0.985947 0.855413
vt 0.976207 0.855413
vt 0.976207 0.827543
vt 0.817521 0.973509
vt 0.817506 0.964435
vt 0.822384 0.964435
vt 0.822392 0.973525
vt 0.817515 0.809084
vt 0.817515 0.764920
vt 0.822384 0.764920
vt 0.824115 0.809084
vt 0.912722 0.893847
vt 0.912722 0.862928
vt 0.975210 0.862928
vt 0.975210 0.889786
vt 0.822370 0.979760
vt 0.992109 0.825269
vt 0.992109 0.855413
vt 0.812646 0.764920
vt 0.812646 0.758281
vt 0.812640 0.973515
vt 0.810915 0.809085
vt 0.812647 0.964431
vt 0.810915 0.920179
vt 0.812647 0.875848
vt 0.813022 0.854728
vt 0.812646 0.853249
vt 0.812646 0.754081
vt 0.813022 0.873688
vt 0.822868 0.998331
vn 0.9936 -0.1080 -0.0342
vn 0.0000 -0.0000 1.0000
vn -0.9736 0.2282 0.0000
vn -0.0000 0.0000 -1.0000
vn -0.1686 -0.9857 0.0000
vn -0.0159 0.9999 0.0000
vn 0.0511 0.9987 0.0000
vn 0.0183 0.9998 0.0000
vn -0.0183 0.9998 0.0000
vn 0.1690 -0.9856 0.0000
vn 0.0513 -0.9987 0.0000
vn -0.0065 -1.0000 0.0000
vn -0.0006 -0.0857 0.9963
vn 0.0043 -0.0847 0.9964
vn 0.0141 -0.0821 0.9965
vn 0.0043 -0.0847 -0.9964
vn -0.0006 -0.0857 -0.9963
vn -0.0064 -0.0856 -0.9963
vn 0.0141 -0.0821 -0.9965
vn -0.9999 0.0138 0.0000
vn -0.9980 0.0629 0.0000
vn -0.0144 -0.0844 0.9963
vn 0.9986 0.0529 0.0000
vn 0.9998 0.0214 -0.0000
vn -0.0064 -0.0856 0.9963
vn -0.0144 -0.0844 -0.9963
vn -0.3614 0.9324 0.0000
vn -0.0748 -0.9972 0.0000
vn -0.2588 0.9659 0.0000
vn -0.7044 0.7098 0.0000
vn 0.9659 -0.2588 0.0000
vn 0.2588 0.9659 0.0000
vn 0.9659 0.2588 0.0000
vn -0.9661 0.2582 0.0000
vn -0.9661 -0.2581 0.0000
vn -0.7071 -0.7071 0.0000
vn 0.2588 -0.9659 0.0000
vn 0.7071 -0.7071 0.0000
vn -0.2588 -0.9659 0.0000
vn 0.7071 0.7071 0.0000
vn 0.9948 -0.1014 -0.0059
vn -0.0158 0.9999 0.0001
vn 0.0000 -0.0846 0.9964
vn 0.0057 -0.0819 0.9966
vn 0.0119 -0.0853 0.9963
vn 0.0057 -0.0819 -0.9966
vn -0.0000 -0.0846 -0.9964
vn -0.0076 -0.0838 -0.9965
vn 0.0119 -0.0853 -0.9963
vn -0.0156 -0.0833 0.9964
vn 0.9991 0.0254 -0.0344
vn -0.0076 -0.0838 0.9965
vn -0.0156 -0.0833 -0.9964
vn 0.9659 0.2589 0.0000
vn 0.8333 0.0000 0.5528
vn -0.1905 0.0000 0.9817
vn -0.1385 0.0000 0.9904
vn -0.2882 0.0000 0.9576
vn -1.0000 0.0000 0.0000
vn 0.8161 -0.5779 0.0000
vn 0.0000 1.0000 0.0000
vn -0.5361 0.8442 0.0000
vn -0.0113 -0.9999 -0.0000
vn -0.0875 -0.9962 0.0000
vn -0.2882 0.0000 -0.9576
vn -0.1385 0.0000 -0.9904
vn -0.1905 0.0000 -0.9817
vn 0.0003 0.0000 1.0000
vn 0.0196 0.0000 0.9998
vn 0.0162 0.0000 0.9999
vn -0.6803 -0.7329 0.0000
vn 0.0003 0.0000 -1.0000
vn 0.0196 0.0000 -0.9998
vn 0.0162 0.0000 -0.9999
vn 0.6214 -0.7835 -0.0000
vn 0.6086 -0.7673 -0.2019
vn 0.6086 -0.7673 0.2019
vn 0.8333 0.0000 -0.5528
vn 0.0649 -0.9979 0.0000
usemtl T_Props
s off
f 2/1/1 23/2/1 22/3/1
f 55/4/2 63/5/2 8/6/2
f 25/7/3 6/8/3 27/9/3
f 20/10/4 22/11/4 33/12/4
f 7/13/5 42/14/5 43/15/5
f 12/16/6 2/17/6 20/18/6
f 14/19/7 44/20/7 41/21/7
f 13/22/8 18/23/8 14/19/8
f 12/16/9 19/24/9 13/22/9
f 3/25/10 15/26/10 1/27/10
f 10/28/11 15/26/11 11/29/11
f 9/30/12 16/31/12 10/28/12
f 29/32/4 76/33/4 54/34/4
f 29/32/4 19/35/4 31/36/4
f 19/35/4 33/12/4 31/36/4
f 23/37/2 12/38/2 35/39/2
f 35/39/2 13/40/2 37/41/2
f 13/40/2 39/42/2 37/41/2
f 10/43/13 40/44/13 9/45/13
f 37/41/2 40/44/2 38/46/2
f 11/47/14 38/46/14 10/43/14
f 36/48/2 37/41/2 38/46/2
f 3/49/15 36/48/15 11/47/15
f 24/50/2 35/39/2 36/48/2
f 32/51/16 15/52/16 16/53/16
f 31/36/4 34/54/4 32/51/4
f 30/55/17 16/53/17 17/56/17
f 29/32/4 32/51/4 30/55/4
f 42/57/18 30/55/18 17/56/18
f 45/58/4 29/32/4 30/55/4
f 34/54/19 1/59/19 15/52/19
f 33/12/4 21/60/4 34/54/4
f 26/61/20 5/62/20 7/13/20
f 25/7/21 28/63/21 26/61/21
f 47/64/22 7/65/22 43/66/22
f 48/67/2 26/68/2 47/64/2
f 21/69/23 3/25/23 1/27/23
f 21/69/24 23/2/24 24/70/24
f 39/42/2 47/64/2 40/44/2
f 40/44/25 43/66/25 9/45/25
f 28/71/4 46/72/4 45/58/4
f 5/73/26 45/58/26 42/57/26
f 6/74/4 56/75/4 66/76/4
f 41/21/27 6/8/27 8/77/27
f 43/15/28 17/78/28 9/30/28
f 39/42/2 75/79/2 67/80/2
f 67/80/29 52/81/29 51/82/29
f 76/33/30 67/80/30 75/79/30
f 66/76/31 55/4/31 65/83/31
f 52/81/32 49/84/32 51/82/32
f 66/76/33 65/83/33 71/85/33
f 54/34/34 75/79/34 53/86/34
f 60/87/35 53/86/35 59/88/35
f 58/89/36 59/88/36 57/90/36
f 61/91/37 70/92/37 69/93/37
f 62/94/38 61/91/38 63/5/38
f 70/92/39 57/90/39 69/93/39
f 50/95/40 72/96/40 49/84/40
f 2/1/41 4/97/41 23/2/41
f 25/98/2 48/67/2 71/85/2
f 25/98/2 71/85/2 65/83/2
f 41/99/2 8/6/2 63/5/2
f 8/6/2 25/98/2 65/83/2
f 55/4/2 8/6/2 65/83/2
f 25/7/3 8/77/3 6/8/3
f 20/10/4 2/100/4 22/11/4
f 7/13/5 5/62/5 42/14/5
f 12/16/42 4/101/42 2/17/42
f 14/19/7 18/23/7 44/20/7
f 13/22/8 19/24/8 18/23/8
f 12/16/9 20/18/9 19/24/9
f 3/25/10 11/29/10 15/26/10
f 10/28/11 16/31/11 15/26/11
f 9/30/12 17/78/12 16/31/12
f 46/72/4 73/102/4 74/103/4
f 46/72/4 74/103/4 50/95/4
f 44/104/4 18/105/4 58/89/4
f 18/105/4 29/32/4 54/34/4
f 60/87/4 18/105/4 54/34/4
f 62/94/4 64/106/4 44/104/4
f 70/92/4 62/94/4 44/104/4
f 46/72/4 50/95/4 52/81/4
f 46/72/4 52/81/4 29/32/4
f 52/81/4 68/107/4 29/32/4
f 58/89/4 70/92/4 44/104/4
f 60/87/4 58/89/4 18/105/4
f 29/32/4 68/107/4 76/33/4
f 29/32/4 18/105/4 19/35/4
f 19/35/4 20/10/4 33/12/4
f 23/37/2 4/108/2 12/38/2
f 35/39/2 12/38/2 13/40/2
f 13/40/2 14/109/2 39/42/2
f 10/43/43 38/46/43 40/44/43
f 37/41/2 39/42/2 40/44/2
f 11/47/44 36/48/44 38/46/44
f 36/48/2 35/39/2 37/41/2
f 3/49/45 24/50/45 36/48/45
f 24/50/2 23/37/2 35/39/2
f 32/51/46 34/54/46 15/52/46
f 31/36/4 33/12/4 34/54/4
f 30/55/47 32/51/47 16/53/47
f 29/32/4 31/36/4 32/51/4
f 42/57/48 45/58/48 30/55/48
f 45/58/4 46/72/4 29/32/4
f 34/54/49 21/60/49 1/59/49
f 33/12/4 22/11/4 21/60/4
f 26/61/20 28/63/20 5/62/20
f 25/7/21 27/9/21 28/63/21
f 47/64/50 26/68/50 7/65/50
f 48/67/2 25/98/2 26/68/2
f 21/69/23 24/70/23 3/25/23
f 21/69/51 22/3/51 23/2/51
f 39/42/2 48/67/2 47/64/2
f 40/44/52 47/64/52 43/66/52
f 28/71/4 27/110/4 46/72/4
f 5/73/53 28/71/53 45/58/53
f 46/72/4 27/110/4 73/102/4
f 27/110/4 6/74/4 66/76/4
f 73/102/4 27/110/4 66/76/4
f 6/74/4 44/104/4 64/106/4
f 6/74/4 64/106/4 56/75/4
f 41/21/27 44/20/27 6/8/27
f 43/15/28 42/14/28 17/78/28
f 39/42/2 14/109/2 53/86/2
f 14/109/2 41/99/2 57/90/2
f 59/88/2 14/109/2 57/90/2
f 41/99/2 63/5/2 61/91/2
f 41/99/2 61/91/2 69/93/2
f 72/96/2 71/85/2 48/67/2
f 49/84/2 72/96/2 48/67/2
f 41/99/2 69/93/2 57/90/2
f 51/82/2 49/84/2 48/67/2
f 67/80/2 51/82/2 39/42/2
f 51/82/2 48/67/2 39/42/2
f 14/109/2 59/88/2 53/86/2
f 39/42/2 53/86/2 75/79/2
f 67/80/29 68/107/29 52/81/29
f 76/33/30 68/107/30 67/80/30
f 66/76/31 56/75/31 55/4/31
f 52/81/32 50/95/32 49/84/32
f 71/85/54 72/96/54 74/103/54
f 74/103/33 73/102/33 71/85/33
f 73/102/33 66/76/33 71/85/33
f 54/34/34 76/33/34 75/79/34
f 60/87/35 54/34/35 53/86/35
f 58/89/36 60/87/36 59/88/36
f 61/91/37 62/94/37 70/92/37
f 63/5/38 55/4/38 64/106/38
f 55/4/38 56/75/38 64/106/38
f 64/106/38 62/94/38 63/5/38
f 70/92/39 58/89/39 57/90/39
f 50/95/40 74/103/40 72/96/40
s 1
f 97/111/55 98/112/55 80/113/55 79/114/55
f 85/115/56 86/116/57 84/117/58 83/118/58
f 99/119/59 100/120/59 82/121/59 81/122/59
f 96/123/4 94/124/4 78/125/4 77/126/4
f 102/127/60 99/119/60 81/122/60 87/128/60
f 106/129/61 98/130/61 78/131/61 94/132/61
f 100/120/62 101/133/62 88/134/62 82/121/62
f 112/135/63 102/127/64 87/128/64 108/136/63
f 81/137/65 82/138/65 88/139/66 87/140/67
f 109/141/68 107/142/2 86/116/57 85/115/56
f 93/143/2 95/144/2 91/145/69 89/146/70
f 105/147/71 103/148/71 92/149/71 96/150/71
f 111/151/61 104/152/61 90/153/61 110/154/61
f 108/155/72 110/156/4 90/157/73 92/158/74
f 97/111/75 105/147/75 96/150/76 77/159/76
f 79/160/2 80/161/2 95/144/2 93/143/2
f 104/152/61 106/129/61 94/132/61 90/153/61
f 92/158/74 90/157/73 94/124/4 96/123/4
f 91/162/61 95/163/61 106/129/61 104/152/61
f 79/114/77 93/164/77 105/147/75 97/111/75
f 107/165/61 91/162/61 104/152/61 111/151/61
f 93/164/71 89/166/71 103/148/71 105/147/71
f 109/167/63 85/168/64 102/127/64 112/135/63
f 84/169/62 86/170/62 101/133/62 100/120/62
f 95/163/61 80/171/61 98/130/61 106/129/61
f 85/168/60 83/172/60 99/119/60 102/127/60
f 83/172/59 84/169/59 100/120/59 99/119/59
f 77/159/78 78/173/78 98/112/78 97/111/78
f 89/166/79 109/167/63 112/135/63 103/148/79
f 86/170/61 107/165/61 111/151/61 101/133/61
f 87/140/67 88/139/66 110/156/4 108/155/72
f 101/133/61 111/151/61 110/154/61 88/134/61
f 89/146/70 91/145/69 107/142/2 109/141/68
f 103/148/79 112/135/63 108/136/63 92/149/79
