# Blender v2.80 (sub 75) OBJ File: 'Visualizacion - copia.blend'
# www.blender.org
mtllib Pesa.mtl
o Pesa_Cube.011
v 0.256027 0.379306 -1.803128
v 0.413702 0.379306 -1.656305
v 0.413702 0.379306 -1.179492
v 0.256027 0.379306 -1.032668
v -0.413702 0.379306 -1.656304
v -0.256027 0.379306 -1.803128
v -0.256027 0.379306 -1.032668
v -0.413702 0.379306 -1.179491
v 0.203340 0.760700 -1.524154
v 0.125840 0.760700 -1.589592
v 0.125841 0.760700 -1.246204
v 0.203340 0.760700 -1.311642
v -0.125841 0.760700 -1.589592
v -0.203340 0.760700 -1.524154
v -0.203340 0.760700 -1.311642
v -0.125840 0.760700 -1.246204
v -0.000000 0.760700 -1.417898
v 0.221967 0.337683 -1.751879
v 0.358665 0.337683 -1.624588
v 0.358665 0.337683 -1.211208
v 0.221967 0.337683 -1.083917
v -0.358665 0.337683 -1.624588
v -0.221967 0.337683 -1.751879
v -0.221967 0.337683 -1.083917
v -0.358665 0.337683 -1.211207
v 0.309898 0.760700 -1.579837
v 0.359961 0.727969 -1.607905
v 0.222758 0.728079 -1.724896
v 0.191749 0.760700 -1.679516
v 0.191749 0.760700 -1.156280
v 0.222758 0.728079 -1.110900
v 0.359961 0.727969 -1.227891
v 0.309899 0.760700 -1.255959
v -0.191749 0.760700 -1.679516
v -0.222758 0.728079 -1.724896
v -0.359961 0.727969 -1.607904
v -0.309899 0.760700 -1.579837
v -0.309898 0.760700 -1.255959
v -0.359961 0.727969 -1.227891
v -0.222758 0.728079 -1.110900
v -0.191749 0.760700 -1.156280
v 0.029108 0.735856 -1.449373
v 0.046538 0.735856 -1.433142
v 0.046538 0.895312 -1.433142
v 0.029108 0.895312 -1.449373
v 0.046538 0.735856 -1.368815
v 0.029108 0.735856 -1.352584
v 0.029108 0.895312 -1.352584
v 0.046538 0.895312 -1.368815
v -0.052947 0.735856 -1.433142
v -0.035517 0.735856 -1.449373
v -0.035517 0.895312 -1.449373
v -0.052947 0.895312 -1.433142
v -0.035517 0.735856 -1.352584
v -0.052947 0.735856 -1.368815
v -0.052947 0.895312 -1.368815
v -0.035517 0.895312 -1.352584
v 0.262893 0.895535 -1.702337
v 0.305104 0.895535 -1.686056
v 0.332770 0.895535 -1.660295
v 0.350254 0.895535 -1.620988
v 0.350254 0.937322 -1.620988
v 0.332770 0.937322 -1.660295
v 0.305104 0.937322 -1.686056
v 0.262893 0.937322 -1.702337
v 0.350254 0.895535 -1.180969
v 0.332770 0.895535 -1.141662
v 0.305105 0.895535 -1.115901
v 0.262893 0.895535 -1.099620
v 0.262893 0.937322 -1.099620
v 0.305105 0.937322 -1.115901
v 0.332770 0.937322 -1.141662
v 0.350254 0.937322 -1.180969
v -0.349065 0.895535 -1.620988
v -0.331581 0.895535 -1.660295
v -0.303915 0.895535 -1.686056
v -0.261704 0.895535 -1.702337
v -0.261704 0.937322 -1.702337
v -0.303915 0.937322 -1.686056
v -0.331581 0.937322 -1.660295
v -0.349065 0.937322 -1.620988
v -0.261703 0.895535 -1.099620
v -0.303915 0.895535 -1.115901
v -0.331580 0.895535 -1.141662
v -0.349065 0.895535 -1.180969
v -0.349065 0.937322 -1.180969
v -0.331580 0.937322 -1.141662
v -0.303915 0.937322 -1.115901
v -0.261703 0.937322 -1.099620
v 0.125002 0.895535 -1.543913
v 0.145023 0.895535 -1.536190
v 0.158145 0.895535 -1.523972
v 0.166438 0.895535 -1.505329
v 0.166438 0.895535 -1.296628
v 0.158145 0.895535 -1.277985
v 0.145023 0.895535 -1.265767
v 0.125002 0.895535 -1.258045
v -0.165249 0.895535 -1.505329
v -0.156956 0.895535 -1.523972
v -0.143834 0.895535 -1.536190
v -0.123813 0.895535 -1.543913
v -0.123813 0.895535 -1.258045
v -0.143834 0.895535 -1.265767
v -0.156956 0.895535 -1.277985
v -0.165249 0.895535 -1.296628
v 0.000595 0.895535 -1.400979
v 0.322636 0.937322 -1.603611
v 0.306533 0.937322 -1.639813
v 0.281053 0.937322 -1.663539
v 0.242175 0.937322 -1.678535
v 0.242175 0.937322 -1.123423
v 0.281053 0.937322 -1.138418
v 0.306533 0.937322 -1.162144
v 0.322637 0.937322 -1.198347
v -0.240986 0.937322 -1.678534
v -0.279864 0.937322 -1.663539
v -0.305344 0.937322 -1.639813
v -0.321447 0.937322 -1.603610
v -0.321447 0.937322 -1.198346
v -0.305344 0.937322 -1.162144
v -0.279863 0.937322 -1.138418
v -0.240986 0.937322 -1.123423
v 0.322636 0.898529 -1.603611
v 0.306533 0.898529 -1.639813
v 0.281053 0.898529 -1.663539
v 0.242175 0.898529 -1.678535
v 0.242175 0.898529 -1.123423
v 0.281053 0.898529 -1.138418
v 0.306533 0.898529 -1.162144
v 0.322637 0.898529 -1.198347
v -0.240986 0.898529 -1.678534
v -0.279864 0.898529 -1.663539
v -0.305344 0.898529 -1.639813
v -0.321447 0.898529 -1.603610
v -0.321447 0.898529 -1.198346
v -0.305344 0.898529 -1.162144
v -0.279863 0.898529 -1.138418
v -0.240986 0.898529 -1.123423
v 0.174421 0.898529 -1.510352
v 0.165728 0.898529 -1.529892
v 0.151975 0.898529 -1.542699
v 0.130991 0.898529 -1.550793
v 0.130991 0.898529 -1.251164
v 0.151975 0.898529 -1.259258
v 0.165729 0.898529 -1.272065
v 0.174421 0.898529 -1.291605
v -0.129802 0.898529 -1.550793
v -0.150786 0.898529 -1.542699
v -0.164539 0.898529 -1.529892
v -0.173232 0.898529 -1.510352
v -0.173232 0.898529 -1.291605
v -0.164539 0.898529 -1.272065
v -0.150786 0.898529 -1.259258
v -0.129801 0.898529 -1.251164
v 0.000595 0.898529 -1.400979
v 0.034281 0.720181 -1.722782
v 0.094012 0.696074 -1.728349
v 0.139728 0.651531 -1.738636
v 0.164470 0.593331 -1.752077
v 0.164470 0.530337 -1.766626
v 0.139728 0.472138 -1.780067
v 0.094012 0.427594 -1.790354
v 0.034281 0.403487 -1.795921
v -0.030371 0.403487 -1.795921
v -0.090103 0.427594 -1.790354
v -0.135819 0.472138 -1.780067
v -0.160560 0.530337 -1.766626
v -0.160560 0.593332 -1.752077
v -0.135818 0.651531 -1.738636
v -0.090102 0.696074 -1.728349
v -0.030371 0.720181 -1.722782
v 0.001955 0.566709 -1.777614
v 0.032733 0.717470 -1.742796
v 0.034281 0.722752 -1.732414
v 0.089473 0.694329 -1.748141
v 0.094012 0.698642 -1.737971
v 0.132638 0.651789 -1.757965
v 0.139728 0.654095 -1.748244
v 0.155846 0.596534 -1.770726
v 0.164470 0.595893 -1.761677
v 0.155846 0.536883 -1.784503
v 0.164470 0.532899 -1.776225
v 0.132638 0.481628 -1.797264
v 0.139728 0.474702 -1.789675
v 0.089473 0.439088 -1.807088
v 0.094012 0.430162 -1.799976
v 0.032733 0.415947 -1.812433
v 0.034281 0.406058 -1.805554
v -0.028823 0.415947 -1.812433
v -0.030371 0.406058 -1.805554
v -0.085563 0.439088 -1.807088
v -0.090103 0.430162 -1.799976
v -0.128729 0.481628 -1.797264
v -0.135819 0.474702 -1.789675
v -0.151936 0.536883 -1.784503
v -0.160560 0.532899 -1.776225
v -0.151936 0.596534 -1.770726
v -0.160560 0.595894 -1.761677
v -0.128729 0.651789 -1.757965
v -0.135818 0.654095 -1.748244
v -0.085563 0.694329 -1.748141
v -0.090102 0.698642 -1.737971
v -0.028823 0.717471 -1.742796
v -0.030371 0.722752 -1.732414
vt 0.796193 0.573651
vt 0.798763 0.570394
vt 0.801466 0.572805
vt 0.799188 0.575806
vt 0.779784 0.625804
vt 0.779981 0.622124
vt 0.783816 0.622515
vt 0.783657 0.625852
vt 0.779987 0.630164
vt 0.783828 0.629767
vt 0.780529 0.617967
vt 0.792439 0.580148
vt 0.795826 0.581697
vt 0.784278 0.618738
vt 0.792963 0.682175
vt 0.791191 0.677985
vt 0.794935 0.676660
vt 0.796617 0.680435
vt 0.794334 0.576625
vt 0.797499 0.578502
vt 0.794840 0.685533
vt 0.798316 0.683483
vt 0.797226 0.689215
vt 0.800503 0.686777
vt 0.832002 0.540431
vt 0.835218 0.538455
vt 0.837114 0.541274
vt 0.834086 0.543310
vt 0.827306 0.720610
vt 0.830005 0.717436
vt 0.831004 0.723275
vt 0.833340 0.719850
vt 0.834376 0.725120
vt 0.836378 0.721711
vt 0.842016 0.658285
vt 0.837472 0.635711
vt 0.844337 0.637460
vt 0.848170 0.654591
vt 0.838046 0.627013
vt 0.843915 0.608811
vt 0.850853 0.613114
vt 0.846312 0.629047
vt 0.825454 0.596413
vt 0.840829 0.606918
vt 0.834414 0.626465
vt 0.816258 0.624155
vt 0.860255 0.680783
vt 0.845395 0.666327
vt 0.852192 0.661901
vt 0.864804 0.672885
vt 0.849773 0.601910
vt 0.873659 0.586944
vt 0.873014 0.595774
vt 0.856077 0.606384
vt 0.825211 0.675606
vt 0.842259 0.668235
vt 0.857890 0.684471
vt 0.843045 0.700268
vt 0.853322 0.557707
vt 0.873349 0.581988
vt 0.846711 0.599562
vt 0.831659 0.586129
vt 0.834054 0.635283
vt 0.814728 0.635474
vt 0.871848 0.685026
vt 0.873659 0.675146
vt 0.870280 0.690544
vt 0.850637 0.712679
vt 0.820309 0.665061
vt 0.838862 0.659903
vt 0.950614 0.604214
vt 0.974897 0.604214
vt 0.962755 0.620779
vt 0.982374 0.610527
vt 0.950614 0.637345
vt 0.943137 0.631031
vt 0.982374 0.631031
vt 0.943137 0.610527
vt 0.974897 0.637345
vt 0.815969 0.665517
vt 0.810059 0.636414
vt 0.828362 0.582793
vt 0.847359 0.556664
vt 0.845503 0.714726
vt 0.838666 0.702627
vt 0.820545 0.678700
vt 0.811437 0.622677
vt 0.820248 0.594345
vt 0.938327 0.690890
vt 0.982081 0.690890
vt 0.982081 0.708623
vt 0.938327 0.708623
vt 0.938327 0.666704
vt 0.982081 0.666704
vt 0.982081 0.684355
vt 0.938327 0.684355
vt 0.938327 0.715159
vt 0.982081 0.715159
vt 0.982081 0.732810
vt 0.938327 0.732810
vt 0.938327 0.642435
vt 0.982081 0.642435
vt 0.982081 0.660168
vt 0.938327 0.660168
vt 0.982081 0.739346
vt 0.938327 0.739346
vt 0.790881 0.692953
vt 0.794274 0.690263
vt 0.825987 0.723752
vt 0.822957 0.727015
vt 0.791695 0.574999
vt 0.788556 0.573052
vt 0.790593 0.570160
vt 0.793455 0.572479
vt 0.776719 0.625166
vt 0.772786 0.625251
vt 0.772878 0.621502
vt 0.776715 0.621933
vt 0.773220 0.629727
vt 0.777304 0.629062
vt 0.789099 0.680292
vt 0.785093 0.681431
vt 0.829450 0.534852
vt 0.831733 0.537764
vt 0.796001 0.569737
vt 0.793333 0.567035
vt 0.786666 0.576720
vt 0.790306 0.578249
vt 0.777434 0.618276
vt 0.773541 0.617318
vt 0.832648 0.728151
vt 0.830272 0.732217
vt 0.826648 0.729955
vt 0.829218 0.726377
vt 0.790390 0.684188
vt 0.786650 0.685715
vt 0.788354 0.689200
vt 0.791883 0.687211
vt 0.832713 0.532537
vt 0.834852 0.535550
vt 0.883186 0.637297
vt 0.885029 0.635318
vt 0.894779 0.647808
vt 0.893905 0.648746
vt 0.923967 0.680857
vt 0.922124 0.682836
vt 0.912373 0.670346
vt 0.913247 0.669407
vt 0.923967 0.637296
vt 0.925131 0.640316
vt 0.913800 0.650178
vt 0.913247 0.648746
vt 0.925131 0.677838
vt 0.913800 0.667975
vt 0.919312 0.684086
vt 0.911040 0.670939
vt 0.883186 0.680857
vt 0.882021 0.677838
vt 0.893353 0.667975
vt 0.893905 0.669407
vt 0.882021 0.640316
vt 0.893353 0.650178
vt 0.919312 0.634067
vt 0.922124 0.635318
vt 0.912373 0.647808
vt 0.911040 0.647215
vt 0.887840 0.684086
vt 0.885029 0.682836
vt 0.894779 0.670346
vt 0.896113 0.670939
vt 0.887840 0.634067
vt 0.896113 0.647215
vt 0.903576 0.659077
vt 0.916367 0.730189
vt 0.887380 0.730189
vt 0.894051 0.719588
vt 0.909697 0.719588
vt 0.918957 0.729037
vt 0.911094 0.718966
vt 0.920654 0.727215
vt 0.912010 0.717982
vt 0.916367 0.684121
vt 0.918957 0.685272
vt 0.911094 0.695343
vt 0.909697 0.694722
vt 0.921726 0.689876
vt 0.921726 0.724434
vt 0.912589 0.716481
vt 0.912589 0.697828
vt 0.920654 0.687095
vt 0.912010 0.696327
vt 0.883094 0.687095
vt 0.884791 0.685272
vt 0.892653 0.695343
vt 0.891737 0.696327
vt 0.882021 0.689876
vt 0.891158 0.697828
vt 0.887380 0.684121
vt 0.894051 0.694722
vt 0.883094 0.727215
vt 0.882022 0.724434
vt 0.891158 0.716481
vt 0.891737 0.717982
vt 0.884791 0.729037
vt 0.892653 0.718966
vt 0.901874 0.707155
vt 0.766005 0.572723
vt 0.768559 0.573844
vt 0.776109 0.557972
vt 0.773728 0.556511
vt 0.809360 0.734556
vt 0.810995 0.732297
vt 0.797658 0.720671
vt 0.795741 0.722716
vt 0.760545 0.589800
vt 0.763228 0.590561
vt 0.824733 0.744706
vt 0.826267 0.742316
vt 0.757342 0.607426
vt 0.760106 0.607816
vt 0.757566 0.643204
vt 0.760333 0.642816
vt 0.759214 0.625321
vt 0.756354 0.625321
vt 0.809280 0.516187
vt 0.810930 0.518429
vt 0.826330 0.508638
vt 0.824738 0.506165
vt 0.760925 0.660803
vt 0.763613 0.660049
vt 0.766438 0.677859
vt 0.768997 0.676749
vt 0.795570 0.527957
vt 0.797497 0.530003
vt 0.774116 0.694073
vt 0.776500 0.692623
vt 0.783637 0.541488
vt 0.785807 0.543260
vt 0.783923 0.709129
vt 0.786090 0.707364
vt 0.941837 0.513928
vt 0.927875 0.519773
vt 0.949411 0.552004
vt 0.981570 0.573492
vt 0.970947 0.584236
vt 0.911541 0.559537
vt 0.911541 0.544471
vt 0.987281 0.559537
vt 0.917252 0.573492
vt 0.987281 0.544472
vt 0.927874 0.584236
vt 0.981570 0.530517
vt 0.941837 0.590080
vt 0.970947 0.519773
vt 0.956985 0.590080
vt 0.956985 0.513928
vt 0.917252 0.530516
vt 0.766823 0.659178
vt 0.763573 0.642379
vt 0.772145 0.675425
vt 0.779507 0.690845
vt 0.788851 0.705174
vt 0.800081 0.718145
vt 0.813052 0.729486
vt 0.827804 0.739068
vt 0.812980 0.521218
vt 0.827804 0.511777
vt 0.799884 0.532493
vt 0.788541 0.545442
vt 0.779134 0.559777
vt 0.771774 0.575207
vt 0.766521 0.591456
vt 0.763399 0.608254
vt 0.762405 0.625317
vn 0.3599 0.0000 -0.9330
vn 0.6815 0.0000 0.7318
vn 0.3599 0.0000 0.9330
vn 1.0000 0.0000 -0.0000
vn 0.9137 0.0000 0.4064
vn -0.3599 0.0000 0.9330
vn 0.6815 0.0000 -0.7318
vn -0.6815 0.0000 0.7318
vn -0.9137 0.0000 0.4064
vn 0.0000 0.0000 1.0000
vn -0.3599 0.0000 -0.9330
vn -1.0000 0.0000 0.0000
vn -0.9137 0.0000 -0.4064
vn -0.6815 0.0000 -0.7318
vn 0.9137 0.0000 -0.4064
vn -0.0000 0.0000 -1.0000
vn 0.0942 0.9437 -0.3172
vn -0.0942 0.9437 -0.3172
vn 0.0000 1.0000 0.0000
vn -0.2942 0.9474 -0.1259
vn -0.2942 0.9474 0.1259
vn -0.8531 -0.3411 0.3947
vn -0.7712 0.5383 0.3397
vn -0.7712 0.5383 -0.3397
vn -0.8531 -0.3411 -0.3947
vn 0.2942 0.9474 0.1259
vn 0.2942 0.9474 -0.1259
vn -0.0942 0.9437 0.3172
vn 0.0942 0.9437 0.3172
vn 0.8531 -0.3411 -0.3947
vn 0.7712 0.5383 -0.3397
vn 0.7712 0.5383 0.3397
vn 0.8531 -0.3411 0.3947
vn 0.3516 -0.3212 0.8793
vn 0.3025 0.5506 0.7780
vn -0.3025 0.5506 0.7780
vn -0.3516 -0.3212 0.8793
vn -0.3025 0.5506 -0.7780
vn -0.3516 -0.3212 -0.8793
vn 0.3516 -0.3212 -0.8793
vn 0.3025 0.5506 -0.7780
vn 0.1796 -0.8186 -0.5455
vn -0.1796 -0.8186 -0.5455
vn -0.1796 -0.8186 0.5455
vn 0.1796 -0.8186 0.5455
vn 0.5137 -0.8337 0.2026
vn 0.5137 -0.8337 -0.2026
vn -0.5137 -0.8337 -0.2026
vn -0.5137 -0.8337 0.2026
vn -0.3662 0.0000 -0.9305
vn 0.3662 0.0000 -0.9305
vn -0.9169 0.0000 0.3991
vn -0.9169 0.0000 -0.3991
vn 0.9169 0.0000 -0.3991
vn 0.9169 0.0000 0.3991
vn 0.3662 0.0000 0.9305
vn -0.3662 0.0000 0.9305
vn 0.7321 -0.6632 -0.1555
vn 0.7321 0.6632 -0.1555
vn 0.7321 0.6632 0.1555
vn 0.7321 -0.6632 0.1555
vn -0.6081 0.6648 0.4339
vn -0.6081 -0.6648 0.4339
vn -0.3952 -0.6668 0.6318
vn -0.3952 0.6668 0.6318
vn -0.3952 0.6668 -0.6318
vn -0.3952 -0.6668 -0.6318
vn -0.6081 -0.6648 -0.4339
vn -0.6081 0.6648 -0.4339
vn -0.1362 -0.6681 -0.7315
vn -0.1362 0.6681 -0.7315
vn 0.1362 0.6681 -0.7315
vn 0.1362 -0.6681 -0.7315
vn 0.1362 -0.6681 0.7315
vn 0.1362 0.6681 0.7315
vn -0.1362 0.6681 0.7315
vn -0.1362 -0.6681 0.7315
vn -0.7321 -0.6632 0.1555
vn -0.7321 0.6632 0.1555
vn -0.7321 0.6632 -0.1555
vn -0.7321 -0.6632 -0.1555
vn 0.3952 0.6668 0.6318
vn 0.3952 -0.6668 0.6318
vn 0.6081 -0.6648 0.4339
vn 0.6081 0.6648 0.4339
vn 0.3952 0.6668 -0.6318
vn 0.3952 -0.6668 -0.6318
vn 0.6081 -0.6648 -0.4339
vn 0.6081 0.6648 -0.4339
vn 0.0000 -1.0000 0.0000
vn -0.3493 0.7524 0.5585
vn -0.5338 0.7550 0.3809
vn -0.6391 0.7570 0.1357
vn -0.1209 0.7507 -0.6495
vn 0.1209 0.7507 -0.6495
vn 0.5338 0.7550 0.3809
vn 0.3493 0.7524 0.5585
vn 0.1209 0.7507 0.6495
vn -0.1209 0.7507 0.6495
vn -0.6391 0.7570 -0.1357
vn -0.5338 0.7550 -0.3809
vn 0.3493 0.7524 -0.5585
vn 0.6391 0.7570 0.1357
vn 0.6391 0.7570 -0.1357
vn -0.3493 0.7524 -0.5585
vn 0.5338 0.7550 -0.3809
vn -0.9815 0.1847 0.0493
vn -0.9161 0.2589 -0.3061
vn -0.9132 -0.0932 -0.3966
vn -0.9799 -0.1925 -0.0514
vn 0.5534 -0.8047 -0.2148
vn 0.5175 -0.6699 -0.5323
vn 0.7737 -0.4190 -0.4751
vn 0.8294 -0.5398 -0.1440
vn -0.8332 0.5342 0.1426
vn -0.7807 0.5863 -0.2163
vn 0.1942 -0.9478 -0.2529
vn 0.1819 -0.8066 -0.5624
vn -0.5573 0.8022 0.2141
vn -0.5244 0.8393 -0.1432
vn 0.1958 0.9475 0.2529
vn 0.1848 0.9774 -0.1021
vn -0.1848 0.9774 -0.1021
vn -0.1958 0.9474 0.2529
vn -0.1942 -0.9478 -0.2529
vn -0.1819 -0.8066 -0.5624
vn 0.5573 0.8022 0.2141
vn 0.5244 0.8393 -0.1432
vn 0.8332 0.5342 0.1426
vn 0.7807 0.5863 -0.2163
vn -0.5534 -0.8047 -0.2148
vn -0.5175 -0.6699 -0.5323
vn 0.9815 0.1847 0.0493
vn 0.9161 0.2589 -0.3061
vn -0.8294 -0.5398 -0.1440
vn -0.7737 -0.4190 -0.4751
vn 0.9799 -0.1925 -0.0514
vn 0.9132 -0.0932 -0.3966
vn 0.0892 0.6377 -0.7651
vn 0.2500 0.5661 -0.7855
vn 0.0000 0.2250 -0.9743
vn -0.3582 -0.0279 -0.9332
vn -0.2432 -0.1497 -0.9583
vn 0.4186 0.1241 -0.8997
vn 0.4213 0.2860 -0.8606
vn -0.4186 0.1241 -0.8997
vn 0.3582 -0.0279 -0.9332
vn -0.4213 0.2860 -0.8606
vn 0.2432 -0.1497 -0.9583
vn -0.3648 0.4405 -0.8202
vn 0.0864 -0.2186 -0.9720
vn -0.2500 0.5661 -0.7855
vn -0.0864 -0.2186 -0.9720
vn -0.0892 0.6377 -0.7651
vn 0.3648 0.4405 -0.8202
usemtl T_Props
s off
f 121/1/1 122/2/1 138/3/1 137/4/1
f 116/5/2 117/6/2 133/7/2 132/8/2
f 115/9/3 116/5/3 132/8/3 131/10/3
f 118/11/4 119/12/4 135/13/4 134/14/4
f 117/6/5 118/11/5 134/14/5 133/7/5
f 109/15/6 110/16/6 126/17/6 125/18/6
f 120/19/7 121/1/7 137/4/7 136/20/7
f 108/21/8 109/15/8 125/18/8 124/22/8
f 107/23/9 108/21/9 124/22/9 123/24/9
f 110/16/10 115/9/10 131/10/10 126/17/10
f 111/25/11 112/26/11 128/27/11 127/28/11
f 114/29/12 107/23/12 123/24/12 130/30/12
f 113/31/13 114/29/13 130/30/13 129/32/13
f 112/33/14 113/31/14 129/32/14 128/34/14
f 119/12/15 120/19/15 136/20/15 135/13/15
f 122/2/16 111/25/16 127/28/16 138/3/16
s 1
f 29/35/17 34/36/18 13/37/19 10/38/19
f 37/39/20 38/40/21 15/41/19 14/42/19
f 8/43/22 39/44/23 36/45/24 5/46/25
f 33/47/26 26/48/27 9/49/19 12/50/19
f 41/51/28 30/52/29 11/53/19 16/54/19
f 2/55/30 27/56/31 32/57/32 3/58/33
f 4/59/34 31/60/35 40/61/36 7/62/37
f 34/36/18 37/39/20 14/42/19 13/37/19
f 35/63/38 6/64/39 5/46/25 36/45/24
f 30/65/29 33/47/26 12/50/19 11/66/19
f 39/44/23 8/43/22 7/62/37 40/61/36
f 31/67/35 4/68/34 3/58/33 32/57/32
f 1/69/40 28/70/41 27/56/31 2/55/30
f 38/40/21 41/51/28 16/54/19 15/41/19
f 6/64/39 35/63/38 28/70/41 1/69/40
f 10/71/19 13/72/19 17/73/19
f 13/72/19 14/74/19 17/73/19
f 11/75/19 12/76/19 17/73/19
f 14/74/19 15/77/19 17/73/19
f 12/76/19 9/78/19 17/73/19
f 15/77/19 16/79/19 17/73/19
f 9/78/19 10/71/19 17/73/19
f 16/79/19 11/75/19 17/73/19
f 6/64/39 1/69/40 18/80/42 23/81/43
f 4/59/34 7/62/37 24/82/44 21/83/45
f 3/58/33 4/68/34 21/84/45 20/85/46
f 1/69/40 2/55/30 19/86/47 18/80/42
f 8/43/22 5/46/25 22/87/48 25/88/49
f 2/55/30 3/58/33 20/85/46 19/86/47
f 5/46/25 6/64/39 23/81/43 22/87/48
f 7/62/37 8/43/22 25/88/49 24/82/44
f 51/89/50 52/90/50 45/91/51 42/92/51
f 55/93/52 56/94/52 53/95/53 50/96/53
f 43/97/54 44/98/54 49/99/55 46/100/55
f 47/101/56 48/102/56 57/103/57 54/104/57
f 29/35/17 26/48/27 27/56/31 28/70/41
f 33/47/26 30/65/29 31/67/35 32/57/32
f 41/51/28 38/40/21 39/44/23 40/61/36
f 37/39/20 34/36/18 35/63/38 36/45/24
f 26/48/27 33/47/26 32/57/32 27/56/31
f 34/36/18 29/35/17 28/70/41 35/63/38
f 36/45/24 39/44/23 38/40/21 37/39/20
f 40/61/36 31/60/35 30/52/29 41/51/28
f 26/48/27 29/35/17 10/38/19 9/49/19
f 42/92/51 45/91/51 44/98/54 43/97/54
f 48/105/56 47/106/56 46/100/55 49/99/55
f 56/94/52 55/93/52 54/104/57 57/103/57
f 52/90/50 51/89/50 50/96/53 53/95/53
f 61/107/58 62/108/59 73/109/60 66/110/61
f 87/111/62 84/112/63 83/113/64 88/114/65
f 79/115/66 76/116/67 75/117/68 80/118/69
f 77/119/70 78/120/71 65/121/72 58/122/73
f 69/123/74 70/124/75 89/125/76 82/126/77
f 85/127/78 86/128/79 81/129/80 74/130/81
f 71/131/82 68/132/83 67/133/84 72/134/85
f 58/122/73 65/121/72 64/135/86 59/136/87
f 62/108/59 61/107/58 60/137/88 63/138/89
f 70/124/75 69/123/74 68/139/83 71/140/82
f 66/110/61 73/109/60 72/134/85 67/133/84
f 86/128/79 85/127/78 84/112/63 87/111/62
f 82/126/77 89/125/76 88/114/65 83/113/64
f 78/120/71 77/119/70 76/116/67 79/115/66
f 74/130/81 81/129/80 80/118/69 75/117/68
f 59/136/87 64/135/86 63/138/89 60/137/88
f 59/141/87 60/142/88 92/143/90 91/144/90
f 83/145/64 84/146/63 104/147/90 103/148/90
f 68/149/83 69/150/74 97/151/90 96/152/90
f 69/150/74 82/153/77 102/154/90 97/151/90
f 84/146/63 85/155/78 105/156/90 104/147/90
f 76/157/67 77/158/70 101/159/90 100/160/90
f 77/158/70 58/161/73 90/162/90 101/159/90
f 66/163/61 67/164/84 95/165/90 94/166/90
f 82/153/77 83/145/64 103/148/90 102/154/90
f 74/167/81 75/168/68 99/169/90 98/170/90
f 75/168/68 76/157/67 100/160/90 99/169/90
f 60/142/88 61/171/58 93/172/90 92/143/90
f 61/171/58 66/163/61 94/166/90 93/172/90
f 85/155/78 74/167/81 98/170/90 105/156/90
f 58/161/73 59/141/87 91/144/90 90/162/90
f 67/164/84 68/149/83 96/152/90 95/165/90
f 100/160/90 101/159/90 106/173/90
f 105/156/90 98/170/90 106/173/90
f 98/170/90 99/169/90 106/173/90
f 90/162/90 91/144/90 106/173/90
f 103/148/90 104/147/90 106/173/90
f 91/144/90 92/143/90 106/173/90
f 92/143/90 93/172/90 106/173/90
f 101/159/90 90/162/90 106/173/90
f 96/152/90 97/151/90 106/173/90
f 93/172/90 94/166/90 106/173/90
f 94/166/90 95/165/90 106/173/90
f 95/165/90 96/152/90 106/173/90
f 104/147/90 105/156/90 106/173/90
f 97/151/90 102/154/90 106/173/90
f 102/154/90 103/148/90 106/173/90
f 99/169/90 100/160/90 106/173/90
f 63/138/89 64/135/86 109/15/91 108/21/92
f 62/108/59 63/138/89 108/21/92 107/23/93
f 89/125/76 70/124/75 111/25/94 122/2/95
f 79/115/66 80/118/69 117/6/96 116/5/97
f 65/121/72 78/120/71 115/9/98 110/16/99
f 72/134/85 73/109/60 114/29/100 113/31/101
f 88/114/65 89/125/76 122/2/95 121/1/102
f 73/109/60 62/108/59 107/23/93 114/29/100
f 80/118/69 81/129/80 118/11/103 117/6/96
f 81/129/80 86/128/79 119/12/104 118/11/103
f 70/124/75 71/140/82 112/26/105 111/25/94
f 71/131/82 72/134/85 113/31/101 112/33/105
f 86/128/79 87/111/62 120/19/106 119/12/104
f 87/111/62 88/114/65 121/1/102 120/19/106
f 78/120/71 79/115/66 116/5/97 115/9/98
f 64/135/86 65/121/72 110/16/99 109/15/91
f 130/174/80 123/175/79 139/176/19 146/177/19
f 129/178/69 130/174/80 146/177/19 145/179/19
f 128/180/66 129/178/69 145/179/19 144/181/19
f 135/182/59 136/183/89 152/184/19 151/185/19
f 138/186/72 127/187/71 143/188/19 154/189/19
f 137/190/86 138/186/72 154/189/19 153/191/19
f 132/192/82 133/193/85 149/194/19 148/195/19
f 131/196/75 132/192/82 148/195/19 147/197/19
f 134/198/60 135/182/59 151/185/19 150/199/19
f 133/193/85 134/198/60 150/199/19 149/194/19
f 125/200/65 126/201/76 142/202/19 141/203/19
f 136/183/89 137/190/86 153/191/19 152/184/19
f 124/204/62 125/200/65 141/203/19 140/205/19
f 123/175/79 124/204/62 140/205/19 139/176/19
f 126/201/76 131/196/75 147/197/19 142/202/19
f 127/187/71 128/180/66 144/181/19 143/188/19
f 152/184/19 153/191/19 155/206/19
f 140/205/19 141/203/19 155/206/19
f 139/176/19 140/205/19 155/206/19
f 142/202/19 147/197/19 155/206/19
f 143/188/19 144/181/19 155/206/19
f 146/177/19 139/176/19 155/206/19
f 145/179/19 146/177/19 155/206/19
f 144/181/19 145/179/19 155/206/19
f 151/185/19 152/184/19 155/206/19
f 154/189/19 143/188/19 155/206/19
f 153/191/19 154/189/19 155/206/19
f 148/195/19 149/194/19 155/206/19
f 147/197/19 148/195/19 155/206/19
f 150/199/19 151/185/19 155/206/19
f 149/194/19 150/199/19 155/206/19
f 141/203/19 142/202/19 155/206/19
f 168/207/107 198/208/108 196/209/109 167/210/110
f 162/211/111 186/212/112 184/213/113 161/214/114
f 169/215/115 200/216/116 198/208/108 168/207/107
f 163/217/117 188/218/118 186/212/112 162/211/111
f 170/219/119 202/220/120 200/216/116 169/215/115
f 156/221/121 174/222/122 204/223/123 171/224/124
f 164/225/125 190/226/126 188/227/118 163/228/117
f 157/229/127 176/230/128 174/222/122 156/221/121
f 171/224/124 204/223/123 202/220/120 170/219/119
f 158/231/129 178/232/130 176/230/128 157/229/127
f 164/225/125 165/233/131 192/234/132 190/226/126
f 159/235/133 180/236/134 178/232/130 158/231/129
f 166/237/135 194/238/136 192/234/132 165/233/131
f 160/239/137 182/240/138 180/236/134 159/235/133
f 167/210/110 196/209/109 194/238/136 166/237/135
f 161/214/114 184/213/113 182/240/138 160/239/137
f 173/241/139 175/242/140 172/243/141
f 193/244/142 172/243/141 191/245/143
f 181/246/144 172/243/141 179/247/145
f 195/248/146 172/243/141 193/244/142
f 183/249/147 172/243/141 181/246/144
f 195/248/146 197/250/148 172/243/141
f 185/251/149 172/243/141 183/249/147
f 199/252/150 172/243/141 197/250/148
f 187/253/151 172/243/141 185/251/149
f 201/254/152 172/243/141 199/252/150
f 189/255/153 172/243/141 187/253/151
f 203/256/154 172/243/141 201/254/152
f 177/257/155 172/243/141 175/242/140
f 191/245/143 172/243/141 189/255/153
f 179/247/145 172/243/141 177/257/155
f 176/230/128 175/258/140 173/259/139 174/222/122
f 178/232/130 177/260/155 175/258/140 176/230/128
f 180/236/134 179/261/145 177/260/155 178/232/130
f 182/240/138 181/262/144 179/261/145 180/236/134
f 184/213/113 183/263/147 181/262/144 182/240/138
f 186/212/112 185/264/149 183/263/147 184/213/113
f 188/218/118 187/265/151 185/264/149 186/212/112
f 190/226/126 189/266/153 187/267/151 188/227/118
f 192/234/132 191/268/143 189/266/153 190/226/126
f 194/238/136 193/269/142 191/268/143 192/234/132
f 196/209/109 195/270/146 193/269/142 194/238/136
f 198/208/108 197/271/148 195/270/146 196/209/109
f 200/216/116 199/272/150 197/271/148 198/208/108
f 202/220/120 201/273/152 199/272/150 200/216/116
f 204/223/123 203/274/154 201/273/152 202/220/120
f 173/241/139 172/243/141 203/256/154
f 174/222/122 173/259/139 203/274/154 204/223/123
