# Blender v2.80 (sub 75) OBJ File: 'Visualizacion - copia.blend'
# www.blender.org
mtllib Puerta.mtl
o Puerta_Cube.007
v -3.332884 -0.048028 -19.260565
v -3.332884 3.332471 -19.260565
v -3.428428 -0.048028 -19.260565
v -3.428428 3.332471 -19.260565
v -3.332884 -0.048028 -24.420172
v -3.332884 3.332471 -24.420172
v -3.428428 -0.048028 -24.420172
v -3.428428 3.332471 -24.420172
v -3.428428 0.283824 -19.260565
v -3.428428 0.283824 -24.420172
v -3.414547 0.283824 -19.260565
v -3.414547 0.283824 -24.420172
v -3.428428 0.732897 -19.260565
v -3.428428 2.529188 -19.260565
v -3.428428 2.978261 -19.260565
v -3.428428 2.978261 -24.420172
v -3.428428 2.529188 -24.420172
v -3.428428 0.732897 -24.420172
v -3.414547 0.732897 -19.260565
v -3.414547 0.732897 -24.420172
v -3.428428 1.181969 -19.260565
v -3.428428 1.181969 -24.420172
v -3.411130 2.978261 -19.260565
v -3.416899 2.529188 -19.260565
v -3.414547 1.181969 -19.260565
v -3.414547 1.181969 -24.420172
v -3.428428 1.631042 -19.260565
v -3.428428 1.631042 -24.420172
v -3.407410 1.631042 -19.260565
v -3.411130 2.978261 -24.420172
v -3.416899 2.529188 -24.420172
v -3.407410 1.631042 -24.420172
v -3.428428 2.080115 -19.260565
v -3.428428 2.080115 -24.420172
v -3.407410 2.080115 -19.260565
v -3.407410 2.080115 -24.420172
v -3.332884 3.076622 -19.260565
v -3.332884 2.879899 -19.260565
v -3.428428 2.879899 -19.260565
v -3.428428 3.076622 -19.260565
v -3.428428 2.879899 -24.420172
v -3.428428 3.076622 -24.420172
v -3.332884 2.879899 -24.420172
v -3.332884 3.076622 -24.420172
v -3.332884 2.659847 -19.260565
v -3.332884 2.398529 -19.260565
v -3.428428 2.398529 -19.260565
v -3.428428 2.659847 -19.260565
v -3.428428 2.398529 -24.420172
v -3.428428 2.659847 -24.420172
v -3.332884 2.398529 -24.420172
v -3.332884 2.659847 -24.420172
v -3.332884 0.417208 -19.260565
v -3.332884 0.150439 -19.260565
v -3.332884 0.866281 -19.260565
v -3.332884 0.599512 -19.260565
v -3.332884 1.315354 -19.260565
v -3.332884 1.048585 -19.260565
v -3.332884 1.764427 -19.260565
v -3.332884 1.497658 -19.260565
v -3.332884 2.213500 -19.260565
v -3.332884 1.946731 -19.260565
v -3.428428 1.946731 -19.260565
v -3.428428 2.213500 -19.260565
v -3.428428 1.497658 -19.260565
v -3.428428 1.764427 -19.260565
v -3.428428 1.048585 -19.260565
v -3.428428 1.315354 -19.260565
v -3.428428 0.599512 -19.260565
v -3.428428 0.866281 -19.260565
v -3.428428 0.150439 -19.260565
v -3.428428 0.417208 -19.260565
v -3.428428 1.946731 -24.420172
v -3.428428 2.213500 -24.420172
v -3.428428 1.497658 -24.420172
v -3.428428 1.764427 -24.420172
v -3.428428 1.048585 -24.420172
v -3.428428 1.315354 -24.420172
v -3.428428 0.599512 -24.420172
v -3.428428 0.866281 -24.420172
v -3.428428 0.150439 -24.420172
v -3.428428 0.417208 -24.420172
v -3.332884 1.946731 -24.420172
v -3.332884 2.213500 -24.420172
v -3.332884 1.497658 -24.420172
v -3.332884 1.764427 -24.420172
v -3.332884 1.048585 -24.420172
v -3.332884 1.315354 -24.420172
v -3.332884 0.599512 -24.420172
v -3.332884 0.866281 -24.420172
v -3.332884 0.150439 -24.420172
v -3.332884 0.417208 -24.420172
vt 0.079421 0.283716
vt 0.079421 0.280675
vt 0.098339 0.280675
vt 0.098339 0.283715
vt 0.060464 0.261294
vt 0.079383 0.261294
vt 0.079383 0.263473
vt 0.077100 0.263473
vt 0.060465 0.268737
vt 0.060465 0.265652
vt 0.079383 0.265652
vt 0.079383 0.268737
vt 0.060464 0.298694
vt 0.060464 0.295653
vt 0.079383 0.295653
vt 0.079383 0.298694
vt 0.060464 0.291205
vt 0.060464 0.288164
vt 0.079383 0.288164
vt 0.079383 0.291205
vt 0.060464 0.283715
vt 0.060464 0.280675
vt 0.079383 0.280675
vt 0.079383 0.283715
vt 0.060465 0.276226
vt 0.060465 0.273186
vt 0.079383 0.273186
vt 0.079383 0.276226
vt 0.060427 0.423176
vt 0.060427 0.426262
vt 0.000514 0.426262
vt 0.000514 0.423176
vt 0.060427 0.459818
vt 0.060427 0.463488
vt 0.000514 0.463488
vt 0.000514 0.459818
vt 0.079383 0.270962
vt 0.075221 0.270962
vt 0.079421 0.306452
vt 0.079421 0.303143
vt 0.098339 0.303143
vt 0.098339 0.306452
vt 0.079421 0.298694
vt 0.079421 0.295653
vt 0.098339 0.295653
vt 0.098339 0.298694
vt 0.079421 0.291205
vt 0.079421 0.288164
vt 0.098339 0.288164
vt 0.098339 0.291205
vt 0.079421 0.268737
vt 0.079421 0.265652
vt 0.098339 0.265652
vt 0.098339 0.268737
vt 0.079421 0.261294
vt 0.079421 0.257624
vt 0.098339 0.257624
vt 0.098339 0.261294
vt 0.060464 0.254343
vt 0.079383 0.254343
vt 0.079383 0.255984
vt 0.075958 0.255984
vt 0.079421 0.276226
vt 0.079421 0.273186
vt 0.098339 0.273186
vt 0.098339 0.276226
vt 0.079421 0.254343
vt 0.079421 0.250077
vt 0.098339 0.250077
vt 0.098339 0.254343
vt 0.060427 0.250077
vt 0.060427 0.253387
vt 0.000514 0.253386
vt 0.000514 0.250077
vt 0.060427 0.286031
vt 0.060427 0.289072
vt 0.000514 0.289071
vt 0.000514 0.286031
vt 0.060427 0.321716
vt 0.060427 0.324757
vt 0.000514 0.324756
vt 0.000514 0.321716
vt 0.060427 0.357401
vt 0.060427 0.360442
vt 0.000514 0.360442
vt 0.000514 0.357401
vt 0.060427 0.390289
vt 0.060427 0.393329
vt 0.000514 0.393329
vt 0.000514 0.390289
vt 0.060464 0.257624
vt 0.079383 0.257624
vt 0.060464 0.250077
vt 0.079383 0.250077
vt 0.060427 0.479068
vt 0.000514 0.479068
vt 0.079421 0.255984
vt 0.082846 0.255984
vt 0.060427 0.494648
vt 0.060427 0.498915
vt 0.000514 0.498915
vt 0.000514 0.494648
vt 0.060427 0.443040
vt 0.000514 0.443040
vt 0.079421 0.263473
vt 0.081704 0.263473
vt 0.060427 0.269709
vt 0.000514 0.269709
vt 0.060427 0.305394
vt 0.000514 0.305394
vt 0.060427 0.341079
vt 0.000514 0.341079
vt 0.060427 0.375365
vt 0.000514 0.375365
vt 0.060427 0.408253
vt 0.000514 0.408253
vt 0.079421 0.300918
vt 0.082169 0.300918
vt 0.079421 0.293429
vt 0.082169 0.293429
vt 0.079421 0.285940
vt 0.082169 0.285940
vt 0.079421 0.278451
vt 0.083582 0.278451
vt 0.079421 0.270962
vt 0.083582 0.270962
vt 0.076635 0.300918
vt 0.079383 0.300918
vt 0.079383 0.303143
vt 0.060464 0.303143
vt 0.076635 0.293429
vt 0.079383 0.293429
vt 0.076635 0.285940
vt 0.079383 0.285940
vt 0.075221 0.278451
vt 0.079383 0.278451
vt 0.060464 0.306452
vt 0.079383 0.306452
vn 0.0000 0.0000 -1.0000
vn 0.0000 0.0000 1.0000
vn 1.0000 0.0000 0.0000
vn 0.7826 0.6225 0.0000
vn 0.7826 -0.6225 0.0000
vn 0.8411 0.5409 0.0000
vn 0.8411 -0.5409 -0.0000
vn 0.8529 0.5222 -0.0000
vn 0.8730 0.4878 -0.0000
vn 0.8730 -0.4878 -0.0000
vn 0.8529 -0.5222 -0.0000
vn 0.8529 -0.5221 -0.0000
usemtl T_Props
s off
f 78/1/1 75/2/1 85/3/1 88/4/1
f 45/5/2 48/6/2 14/7/2 24/8/2
f 61/9/2 46/10/2 47/11/2 64/12/2
f 53/13/2 56/14/2 69/15/2 72/16/2
f 55/17/2 58/18/2 67/19/2 70/20/2
f 57/21/2 60/22/2 65/23/2 68/24/2
f 59/25/2 62/26/2 63/27/2 66/28/2
f 84/29/3 51/30/3 46/31/3 61/32/3
f 52/33/3 43/34/3 38/35/3 45/36/3
f 61/9/2 64/12/2 33/37/2 35/38/2
f 7/39/1 81/40/1 91/41/1 5/42/1
f 82/43/1 79/44/1 89/45/1 92/46/1
f 80/47/1 77/48/1 87/49/1 90/50/1
f 74/51/1 49/52/1 51/53/1 84/54/1
f 50/55/1 41/56/1 43/57/1 52/58/1
f 37/59/2 40/60/2 15/61/2 23/62/2
f 76/63/1 73/64/1 83/65/1 86/66/1
f 42/67/1 8/68/1 6/69/1 44/70/1
f 5/71/3 91/72/3 54/73/3 1/74/3
f 92/75/3 89/76/3 56/77/3 53/78/3
f 90/79/3 87/80/3 58/81/3 55/82/3
f 88/83/3 85/84/3 60/85/3 57/86/3
f 86/87/3 83/88/3 62/89/3 59/90/3
f 45/5/2 38/91/2 39/92/2 48/6/2
f 37/59/2 2/93/2 4/94/2 40/60/2
f 30/95/4 23/96/4 38/35/4 43/34/4
f 16/97/1 30/98/1 43/57/1 41/56/1
f 23/62/2 15/61/2 39/92/2 38/91/2
f 44/99/3 6/100/3 2/101/3 37/102/3
f 42/67/1 44/70/1 30/98/1 16/97/1
f 44/99/5 37/102/5 23/96/5 30/95/5
f 31/103/6 24/104/6 46/31/6 51/30/6
f 17/105/1 31/106/1 51/53/1 49/52/1
f 24/8/2 14/7/2 47/11/2 46/10/2
f 50/55/1 52/58/1 31/106/1 17/105/1
f 52/33/7 45/36/7 24/104/7 31/103/7
f 12/107/8 11/108/8 54/73/8 91/72/8
f 20/109/8 19/110/8 56/77/8 89/76/8
f 26/111/8 25/112/8 58/81/8 87/80/8
f 32/113/9 29/114/9 60/85/9 85/84/9
f 36/115/9 35/116/9 62/89/9 83/88/9
f 10/117/1 12/118/1 91/41/1 81/40/1
f 18/119/1 20/120/1 89/45/1 79/44/1
f 22/121/1 26/122/1 87/49/1 77/48/1
f 28/123/1 32/124/1 85/3/1 75/2/1
f 34/125/1 36/126/1 83/65/1 73/64/1
f 11/127/2 9/128/2 71/129/2 54/130/2
f 19/131/2 13/132/2 69/15/2 56/14/2
f 25/133/2 21/134/2 67/19/2 58/18/2
f 29/135/2 27/136/2 65/23/2 60/22/2
f 35/38/2 33/37/2 63/27/2 62/26/2
f 1/137/2 54/130/2 71/129/2 3/138/2
f 74/51/1 84/54/1 36/126/1 34/125/1
f 84/29/10 61/32/10 35/116/10 36/115/10
f 59/25/2 66/28/2 27/136/2 29/135/2
f 76/63/1 86/66/1 32/124/1 28/123/1
f 86/87/10 59/90/10 29/114/10 32/113/10
f 57/21/2 68/24/2 21/134/2 25/133/2
f 78/1/1 88/4/1 26/122/1 22/121/1
f 88/83/11 57/86/11 25/112/11 26/111/11
f 55/17/2 70/20/2 13/132/2 19/131/2
f 80/47/1 90/50/1 20/120/1 18/119/1
f 90/79/11 55/82/11 19/110/11 20/109/11
f 53/13/2 72/16/2 9/128/2 11/127/2
f 82/43/1 92/46/1 12/118/1 10/117/1
f 92/75/12 53/78/12 11/108/12 12/107/12
