# Blender v2.80 (sub 75) OBJ File: 'Visualizacion - copia.blend'
# www.blender.org
mtllib Ajo.mtl
o Ajo.001_garlic.000
v 5.516686 1.096490 -7.855412
v 5.506955 1.180779 -7.855703
v 5.530369 1.158325 -7.855989
v 5.529912 1.116217 -7.854444
v 5.534494 1.137287 -7.855074
v 5.491907 1.192130 -7.854989
v 5.455279 1.241942 -7.856517
v 5.458774 1.118444 -7.917320
v 5.477814 1.158655 -7.790341
v 5.403812 1.102320 -7.873561
v 5.401234 1.180297 -7.857090
v 5.483391 1.137755 -7.928993
v 5.458525 1.174303 -7.900612
v 5.482205 1.176302 -7.819952
v 5.420564 1.102865 -7.815403
v 5.519225 1.137541 -7.877821
v 5.391578 1.096736 -7.856352
v 5.393397 1.139677 -7.907771
v 5.436733 1.158846 -7.926562
v 5.476912 1.116617 -7.787312
v 5.486454 1.102957 -7.814015
v 5.517622 1.116536 -7.903491
v 5.389480 1.115141 -7.813933
v 5.388232 1.136070 -7.812901
v 5.499178 1.180424 -7.825091
v 5.468837 1.190110 -7.891314
v 5.427014 1.176868 -7.821568
v 5.481947 1.158582 -7.924865
v 5.516439 1.154262 -7.877210
v 5.445979 1.191367 -7.892146
v 5.457823 1.187182 -7.888985
v 5.436513 1.179751 -7.807840
v 5.493680 1.154521 -7.807085
v 5.402158 1.096585 -7.822080
v 5.392336 1.118968 -7.878585
v 5.416498 1.154470 -7.809415
v 5.462237 1.242143 -7.856227
v 5.457855 1.241759 -7.863127
v 5.453513 1.241998 -7.863285
v 5.455763 1.241203 -7.862685
v 5.506438 1.102010 -7.873281
v 5.461074 1.242216 -7.851988
v 5.442130 1.180184 -7.905131
v 5.469598 1.179905 -7.807194
v 5.431883 1.095480 -7.801572
v 5.479188 1.137768 -7.784478
v 5.399004 1.160214 -7.905130
v 5.448029 1.242147 -7.856644
v 5.460971 1.241850 -7.860604
v 5.499249 1.175548 -7.871011
v 5.412826 1.175506 -7.872275
v 5.396252 1.154869 -7.879793
v 5.458992 1.241644 -7.851311
v 5.457107 1.242094 -7.849589
v 5.452683 1.242219 -7.849895
v 5.451485 1.241724 -7.851637
v 5.427560 1.136065 -7.785684
v 5.407710 1.097327 -7.893227
v 5.449391 1.241467 -7.858823
v 5.517047 1.118111 -7.877545
v 5.394521 1.118707 -7.904630
v 5.471147 1.096025 -7.801449
v 5.390388 1.138437 -7.880219
v 5.461221 1.241468 -7.858371
v 5.393866 1.157341 -7.817530
v 5.449314 1.242130 -7.852617
v 5.449724 1.241989 -7.861069
v 5.477364 1.096462 -7.912249
v 5.521468 1.137132 -7.807176
v 5.445533 1.224080 -7.864506
v 5.444813 1.224327 -7.849674
v 5.465709 1.223165 -7.859773
v 5.414814 1.179822 -7.889372
v 5.521252 1.137388 -7.905536
v 5.485787 1.192516 -7.832673
v 5.417107 1.192150 -7.857183
v 5.444949 1.223163 -7.860565
v 5.439380 1.096901 -7.911882
v 5.458273 1.101508 -7.906682
v 5.380180 1.158419 -7.858949
v 5.485242 1.190586 -7.878031
v 5.412691 1.136849 -7.804819
v 5.448624 1.223615 -7.847955
v 5.450727 1.224483 -7.844897
v 5.458489 1.224263 -7.844360
v 5.517580 1.158114 -7.902843
v 5.374420 1.116510 -7.857606
v 5.435040 1.116839 -7.926075
v 5.461799 1.223474 -7.847382
v 5.430137 1.156968 -7.791275
v 5.465271 1.223835 -7.863690
v 5.442558 1.224357 -7.856741
v 5.459036 1.137802 -7.921041
v 5.506353 1.095685 -7.893464
v 5.474829 1.189501 -7.829106
v 5.474470 1.179090 -7.905551
v 5.465452 1.224479 -7.848571
v 5.372666 1.137497 -7.859303
v 5.458686 1.154195 -7.918078
v 5.495466 1.137402 -7.802773
v 5.464898 1.191871 -7.820039
v 5.441611 1.192531 -7.821651
v 5.456130 1.222701 -7.867342
v 5.435304 1.189926 -7.830824
v 5.481815 1.116780 -7.925570
v 5.452183 1.224096 -7.868396
v 5.517778 1.158407 -7.812010
v 5.411878 1.181297 -7.827530
v 5.434829 1.137693 -7.930744
v 5.459802 1.223677 -7.868119
v 5.467492 1.224350 -7.856010
v 5.473385 1.203358 -7.855766
v 5.461985 1.202360 -7.873717
v 5.517205 1.116585 -7.809951
v 5.505508 1.096168 -7.820598
v 5.450688 1.202981 -7.874128
v 5.456542 1.200913 -7.872567
v 5.470361 1.203549 -7.844737
v 5.436420 1.203368 -7.856850
v 5.470092 1.202595 -7.867153
v 5.464946 1.202058 -7.842974
v 5.498390 1.179217 -7.888512
v 5.460038 1.203230 -7.838493
v 5.448530 1.203556 -7.839290
v 5.445413 1.202268 -7.843824
v 5.439965 1.201598 -7.862519
v 5.427347 1.115252 -7.787355
v 5.470743 1.201601 -7.861344
v 5.439764 1.203324 -7.846372
v 5.440831 1.202958 -7.868362
v 5.412784 1.117660 -7.805910
v 5.492786 1.118140 -7.803475
v 5.424281 1.188570 -7.868655
v 5.486559 1.188575 -7.866277
v 5.423873 1.192061 -7.835982
v 5.426033 1.191321 -7.880479
vt 0.729339 0.167021
vt 0.717997 0.184772
vt 0.716981 0.164276
vt 0.601481 0.090464
vt 0.600105 0.101225
vt 0.593471 0.100377
vt 0.594847 0.089616
vt 0.583953 0.088223
vt 0.577688 0.087422
vt 0.578670 0.079741
vt 0.584935 0.080542
vt 0.532983 0.073900
vt 0.539445 0.074726
vt 0.538463 0.082406
vt 0.532001 0.081580
vt 0.598447 0.061453
vt 0.597022 0.072601
vt 0.586129 0.071208
vt 0.587554 0.060060
vt 0.559247 0.096001
vt 0.558459 0.102169
vt 0.552329 0.101386
vt 0.553118 0.095218
vt 0.568162 0.113854
vt 0.574210 0.114627
vt 0.572712 0.126336
vt 0.566665 0.125563
vt 0.571640 0.086648
vt 0.572622 0.078968
vt 0.638205 0.095159
vt 0.636829 0.105921
vt 0.626868 0.104647
vt 0.628244 0.093886
vt 0.540638 0.065392
vt 0.542064 0.054244
vt 0.551870 0.055498
vt 0.550445 0.066646
vt 0.527025 0.120495
vt 0.533487 0.121321
vt 0.532246 0.131024
vt 0.525785 0.130198
vt 0.534984 0.109612
vt 0.544791 0.110866
vt 0.543293 0.122575
vt 0.534176 0.064565
vt 0.535602 0.053418
vt 0.549251 0.075980
vt 0.548269 0.083660
vt 0.705971 0.202690
vt 0.698937 0.192145
vt 0.606436 0.102035
vt 0.607812 0.091273
vt 0.617375 0.092496
vt 0.615999 0.103258
vt 0.609988 0.074259
vt 0.608794 0.083593
vt 0.602463 0.082783
vt 0.603657 0.073449
vt 0.626903 0.065092
vt 0.625477 0.076239
vt 0.619551 0.075481
vt 0.620976 0.064334
vt 0.546893 0.094422
vt 0.546104 0.100590
vt 0.536298 0.099336
vt 0.537087 0.093168
vt 0.710882 0.167903
vt 0.570264 0.097410
vt 0.576312 0.098183
vt 0.554494 0.084456
vt 0.555476 0.076775
vt 0.698384 0.178621
vt 0.704582 0.168861
vt 0.623269 0.132801
vt 0.624766 0.121091
vt 0.634727 0.122365
vt 0.633229 0.134074
vt 0.611413 0.063111
vt 0.738186 0.178052
vt 0.732430 0.172987
vt 0.529836 0.098510
vt 0.530625 0.092342
vt 0.578978 0.127138
vt 0.577737 0.136841
vt 0.571472 0.136040
vt 0.575523 0.104351
vt 0.569476 0.103578
vt 0.738186 0.190241
vt 0.629226 0.086205
vt 0.639187 0.087479
vt 0.645649 0.088305
vt 0.644667 0.095986
vt 0.623302 0.093254
vt 0.621926 0.104015
vt 0.599317 0.107393
vt 0.592682 0.106545
vt 0.581789 0.105152
vt 0.582577 0.098984
vt 0.561605 0.077559
vt 0.562799 0.068225
vt 0.573816 0.069634
vt 0.542053 0.132278
vt 0.733056 0.194962
vt 0.731205 0.200947
vt 0.618358 0.084816
vt 0.560623 0.085240
vt 0.626080 0.110815
vt 0.636041 0.112089
vt 0.595828 0.081935
vt 0.621137 0.110183
vt 0.641806 0.066997
vt 0.640381 0.078145
vt 0.630420 0.076871
vt 0.631845 0.065724
vt 0.631989 0.143777
vt 0.622028 0.142504
vt 0.624284 0.085573
vt 0.575241 0.058486
vt 0.564224 0.057078
vt 0.719349 0.205753
vt 0.613897 0.119701
vt 0.612400 0.131411
vt 0.602836 0.130188
vt 0.604334 0.118479
vt 0.605648 0.108203
vt 0.615211 0.109426
vt 0.558094 0.056294
vt 0.556669 0.067441
vt 0.589871 0.128530
vt 0.588630 0.138233
vt 0.646843 0.078971
vt 0.565424 0.135266
vt 0.579863 0.070407
vt 0.605082 0.062302
vt 0.639692 0.134900
vt 0.638451 0.144604
vt 0.648268 0.067823
vt 0.643291 0.106747
vt 0.642503 0.112915
vt 0.596506 0.129379
vt 0.595265 0.139082
vt 0.551015 0.111661
vt 0.549518 0.123371
vt 0.619823 0.120459
vt 0.618326 0.132169
vt 0.611159 0.141114
vt 0.601596 0.139891
vt 0.555648 0.124155
vt 0.557145 0.112445
vt 0.712495 0.202759
vt 0.699659 0.185068
vt 0.581289 0.059259
vt 0.617086 0.141872
vt 0.554407 0.133858
vt 0.548277 0.133074
vt 0.591368 0.116821
vt 0.598003 0.117669
vt 0.580475 0.115428
vt 0.641189 0.123191
vt 0.528522 0.108785
vn -0.6161 0.7223 -0.3143
vn 0.0103 0.9999 -0.0110
vn 0.0084 0.7602 -0.6496
vn 0.8752 0.4190 -0.2418
vn 0.6898 0.6922 -0.2124
vn 0.6379 0.7511 -0.1701
vn 0.8746 0.4553 -0.1667
vn 0.5883 0.4733 0.6556
vn 0.4225 0.4517 0.7858
vn 0.4853 0.0626 0.8721
vn 0.6751 0.0339 0.7369
vn -0.9133 0.1167 -0.3903
vn -0.9787 0.0987 -0.1797
vn -0.8491 0.5006 -0.1689
vn -0.8158 0.4867 -0.3123
vn 0.8116 -0.5687 -0.1337
vn 0.9128 -0.3855 -0.1352
vn 0.6191 -0.3947 0.6790
vn 0.5499 -0.6147 0.5655
vn -0.4019 0.6760 0.6177
vn -0.3536 0.7981 0.4879
vn -0.4378 0.7512 0.4940
vn -0.4821 0.6281 0.6108
vn 0.3057 0.6463 0.6992
vn 0.4135 0.5698 0.7102
vn 0.4639 0.2710 0.8434
vn 0.3516 0.3105 0.8832
vn 0.3752 0.4714 0.7981
vn 0.3946 0.0631 0.9167
vn -0.7289 0.5038 -0.4636
vn -0.6244 0.7317 -0.2733
vn 0.0244 0.7317 -0.6812
vn -0.0132 0.4600 -0.8878
vn -0.9161 -0.3615 -0.1734
vn -0.7465 -0.6409 -0.1791
vn -0.5079 -0.6385 0.5782
vn -0.6489 -0.3597 0.6705
vn -0.8976 0.2570 -0.3581
vn -0.9471 0.2894 -0.1391
vn -0.6326 0.7615 -0.1415
vn -0.5844 0.7838 -0.2100
vn -0.7525 0.6264 -0.2032
vn -0.5358 0.6140 0.5795
vn -0.6783 0.2995 0.6709
vn -0.8550 -0.3667 -0.3668
vn -0.7428 -0.5788 -0.3365
vn -0.7089 0.1175 0.6955
vn -0.6189 0.4713 0.6284
vn 0.4282 0.7508 0.5029
vn 0.6524 0.7410 -0.1590
vn 0.5981 0.7627 -0.2460
vn 0.7907 0.4723 -0.3895
vn 0.0983 0.4594 -0.8828
vn -0.0030 0.7357 -0.6772
vn 0.8189 -0.3754 -0.4341
vn 0.8848 0.0095 -0.4660
vn 0.9659 0.0041 -0.2589
vn 0.9090 -0.3519 -0.2232
vn -0.0029 -0.5160 -0.8566
vn -0.0041 -0.3641 -0.9313
vn 0.0795 -0.3661 -0.9272
vn 0.0547 -0.5650 -0.8233
vn -0.4595 0.7063 0.5386
vn -0.3476 0.8041 0.4823
vn -0.5452 0.8117 -0.2095
vn -0.6545 0.7329 -0.1857
vn 0.0499 0.7473 -0.6626
vn 0.3068 0.7072 0.6369
vn 0.3894 0.6424 0.6601
vn -0.5226 0.4345 0.7335
vn -0.5811 0.1253 0.8042
vn 0.6124 0.7461 -0.2615
vn 0.1005 0.7116 -0.6953
vn -0.1009 0.2748 -0.9562
vn 0.0100 0.6139 -0.7893
vn -0.7044 0.6186 -0.3480
vn -0.8113 0.3028 -0.5001
vn 0.7356 -0.5797 -0.3504
vn -0.6136 0.7577 -0.2223
vn -0.6879 0.6638 -0.2934
vn 0.6682 0.2844 0.6875
vn 0.2586 0.7774 0.5734
vn 0.3065 0.7529 0.5824
vn 0.2839 0.8068 0.5181
vn -0.4843 0.7209 0.4957
vn -0.0712 0.0036 -0.9975
vn -0.8282 0.0678 -0.5563
vn 0.0414 0.4081 -0.9120
vn 0.0141 0.6663 -0.7456
vn 0.6168 0.7552 -0.2220
vn 0.5464 0.8216 -0.1624
vn 0.3404 0.8017 0.4913
vn 0.4173 0.7317 0.5390
vn -0.4372 0.1075 0.8929
vn -0.4294 -0.3482 0.8333
vn 0.3702 -0.3794 0.8480
vn -0.4128 0.7931 0.4478
vn -0.3696 0.7479 0.5515
vn 0.1343 0.0076 -0.9909
vn -0.4224 0.4469 0.7886
vn 0.0390 0.7858 -0.6172
vn -0.5500 0.8056 -0.2203
vn 0.9915 -0.0045 -0.1299
vn 0.0269 0.7317 -0.6811
vn -0.6642 -0.6235 -0.4123
vn -0.7927 -0.3748 -0.4807
vn -0.0714 -0.3968 -0.9151
vn -0.0501 -0.5783 -0.8143
vn 0.0184 -0.0002 -0.9998
vn 0.3100 -0.6046 0.7338
vn -0.3857 -0.5921 0.7076
vn 0.2716 0.7314 0.6255
vn 0.0900 0.5932 -0.8000
vn 0.1691 0.2554 -0.9519
vn 0.8429 0.2828 -0.4578
vn 0.7204 0.6202 -0.3105
vn 0.5530 0.8055 -0.2130
vn -0.0153 0.8131 -0.5819
vn -0.4907 -0.5739 0.6557
vn -0.5390 -0.3209 0.7788
vn 0.9593 0.2539 -0.1234
vn 0.4660 -0.3831 0.7975
vn 0.8284 -0.5120 -0.2271
vn 0.9315 0.2343 -0.2783
vn 0.6135 0.7549 -0.2317
vn -0.5359 0.5556 0.6357
vn -0.6292 0.2473 0.7369
vn 0.0512 0.5496 -0.8339
vn 0.0302 0.2486 -0.9681
vn -0.4909 0.2902 0.8214
vn -0.4637 0.6270 0.6260
vn 0.4083 -0.5789 0.7058
vn 0.7800 0.6046 -0.1612
vn 0.7959 0.5499 -0.2533
vn 0.4727 0.6553 0.5892
vn -0.7786 0.5451 -0.3107
usemtl T_Frutas_1
s 1
f 67/1/1 7/2/2 39/3/3
f 29/4/4 50/5/5 2/6/6 3/7/7
f 107/8/8 33/9/9 100/10/10 69/11/11
f 63/12/12 98/13/13 80/14/14 52/15/15
f 1/16/16 4/17/17 114/18/18 115/19/19
f 32/20/20 102/21/21 104/22/22 27/23/23
f 123/24/24 121/25/25 89/26/26 85/27/27
f 100/10/10 33/9/9 9/28/28 46/29/29
f 47/30/30 73/31/31 43/32/32 19/33/33
f 87/34/34 17/35/35 34/36/36 23/37/37
f 77/38/38 92/39/39 48/40/40 59/41/41
f 119/42/42 129/43/43 71/44/44 92/39/39
f 17/35/35 87/34/34 35/45/45 10/46/46
f 24/47/47 65/48/48 80/14/14 98/13/13
f 42/49/49 37/50/50 7/2/2
f 122/51/51 86/52/52 28/53/53 96/54/54
f 22/55/55 74/56/56 16/57/57 60/58/58
f 79/59/59 8/60/60 105/61/61 68/62/62
f 108/63/63 135/64/64 76/65/65 11/66/66
f 40/67/67 39/3/3 7/2/2
f 44/68/68 9/28/28 33/9/9 14/69/69
f 36/70/70 65/48/48 24/47/47 82/71/71
f 49/72/72 38/73/73 7/2/2
f 106/74/74 116/75/75 130/76/76 70/77/77
f 22/55/55 94/78/78 68/62/62 105/61/61
f 29/4/4 16/57/57 74/56/56 86/52/52
f 80/14/14 65/48/48 108/63/63 11/66/66
f 48/79/40 7/2/2 59/80/41
f 11/66/66 76/65/65 133/81/79 51/82/80
f 97/83/81 42/84/49 53/85/82 89/26/26
f 44/68/68 14/69/69 95/86/83 101/87/84
f 48/79/40 66/88/85 7/2/2
f 19/33/33 109/89/86 18/90/87 47/30/30
f 47/30/30 18/90/87 63/91/12 52/92/15
f 99/93/88 13/94/89 96/54/54 28/53/53
f 101/87/84 102/21/21 32/20/20 44/68/68
f 50/5/5 134/95/90 6/96/91 2/6/6
f 2/6/6 6/96/91 75/97/92 25/98/93
f 46/29/29 57/99/94 127/100/95 20/101/96
f 48/40/40 92/39/39 71/44/44 66/102/85
f 56/103/97 55/104/98 7/2/2
f 28/53/53 86/52/52 74/56/56 12/105/99
f 12/105/99 74/56/56 22/55/55 105/61/61
f 36/70/70 82/71/71 57/99/94 90/106/100
f 30/107/101 43/32/32 73/31/31 136/108/102
f 87/34/34 23/37/37 24/47/47 98/13/13
f 107/8/8 69/11/11 5/109/103 3/7/7
f 13/94/89 43/32/32 30/107/101 31/110/104
f 58/111/105 61/112/106 88/113/107 78/114/108
f 106/74/74 70/77/77 67/115/1 39/116/3
f 8/60/60 93/117/109 12/105/99 105/61/61
f 62/118/110 20/101/96 127/100/95 45/119/111
f 25/98/93 107/8/8 3/7/7 2/6/6
f 55/104/98 54/120/112 7/2/2
f 3/7/7 5/109/103 16/57/57 29/4/4
f 113/121/113 110/122/114 91/123/115 120/124/116
f 122/51/51 81/125/117 134/95/90 50/5/5
f 99/93/88 28/53/53 12/105/99 93/117/109
f 79/59/59 78/114/108 88/113/107 8/60/60
f 13/94/89 31/110/104 26/126/118 96/54/54
f 90/106/100 57/99/94 46/29/29 9/28/28
f 109/89/86 88/113/107 61/112/106 18/90/87
f 14/69/69 33/9/9 107/8/8 25/98/93
f 23/37/37 34/36/36 15/127/119 131/128/120
f 25/98/93 75/97/92 95/86/83 14/69/69
f 111/129/121 37/130/50 42/84/49 97/83/81
f 35/131/45 63/91/12 18/90/87 61/112/106
f 89/26/26 53/85/82 54/132/112 85/27/27
f 69/11/11 100/10/10 132/133/122 114/18/18
f 93/117/109 109/89/86 19/33/33 99/93/88
f 41/134/123 94/78/78 22/55/55 60/58/58
f 70/77/77 77/135/38 59/136/41 67/115/1
f 38/73/73 40/67/67 7/2/2
f 41/134/123 60/58/58 4/17/17 1/16/16
f 10/137/46 35/131/45 61/112/106 58/111/105
f 51/138/80 133/139/79 136/108/102 73/31/31
f 36/70/70 27/23/23 108/63/63 65/48/48
f 111/129/121 72/140/124 64/141/125 37/130/50
f 125/142/126 83/143/127 71/44/44 129/43/43
f 27/23/23 104/22/22 135/64/64 108/63/63
f 117/144/128 116/75/75 106/74/74 103/145/129
f 5/109/103 4/17/17 60/58/58 16/57/57
f 131/128/120 15/127/119 45/119/111 127/100/95
f 27/23/23 36/70/70 90/106/100 32/20/20
f 24/47/47 23/37/37 131/128/120 82/71/71
f 110/122/114 38/146/73 49/147/72 91/123/115
f 13/94/89 99/93/88 19/33/33 43/32/32
f 84/148/130 124/149/131 123/24/24 85/27/27
f 73/31/31 47/30/30 52/92/15 51/138/80
f 50/5/5 29/4/4 86/52/52 122/51/51
f 9/28/28 44/68/68 32/20/20 90/106/100
f 53/150/82 42/49/49 7/2/2
f 80/14/14 11/66/66 51/82/80 52/15/15
f 67/1/1 59/80/41 7/2/2
f 54/120/112 53/150/82 7/2/2
f 49/72/72 7/2/2 64/151/125
f 37/50/50 64/151/125 7/2/2
f 21/152/132 115/19/19 114/18/18 132/133/122
f 66/88/85 56/103/97 7/2/2
f 21/152/132 132/133/122 20/101/96 62/118/110
f 103/145/129 40/153/67 38/146/73 110/122/114
f 84/148/130 85/27/27 54/132/112 55/154/98
f 4/17/17 5/109/103 69/11/11 114/18/18
f 106/74/74 39/116/3 40/153/67 103/145/129
f 72/140/124 91/123/115 49/147/72 64/141/125
f 82/71/71 131/128/120 127/100/95 57/99/94
f 71/44/44 83/143/127 56/155/97 66/102/85
f 83/143/127 84/148/130 55/154/98 56/155/97
f 20/101/96 132/133/122 100/10/10 46/29/29
f 8/60/60 88/113/107 109/89/86 93/117/109
f 112/156/133 128/157/134 72/140/124 111/129/121
f 128/157/134 120/124/116 91/123/115 72/140/124
f 124/149/131 84/148/130 83/143/127 125/142/126
f 121/25/25 118/158/135 97/83/81 89/26/26
f 112/156/133 111/129/121 97/83/81 118/158/135
f 130/76/76 126/159/136 77/135/38 70/77/77
f 126/160/136 119/42/42 92/39/39 77/38/38
f 113/121/113 117/144/128 103/145/129 110/122/114
f 63/12/12 35/45/45 87/34/34 98/13/13
f 76/65/65 135/64/64 129/43/43 119/42/42
f 101/87/84 95/86/83 121/25/25 123/24/24
f 26/126/118 31/110/104 117/144/128 113/121/113
f 31/110/104 30/107/101 116/75/75 117/144/128
f 81/125/117 26/126/118 113/121/113 120/124/116
f 133/81/79 76/65/65 119/42/42 126/160/136
f 81/125/117 120/124/116 128/157/134 134/95/90
f 6/96/91 134/95/90 128/157/134 112/156/133
f 136/108/102 130/76/76 116/75/75 30/107/101
f 133/139/79 126/159/136 130/76/76 136/108/102
f 104/22/22 125/142/126 129/43/43 135/64/64
f 104/22/22 102/21/21 124/149/131 125/142/126
f 123/24/24 124/149/131 102/21/21 101/87/84
f 95/86/83 75/97/92 118/158/135 121/25/25
f 6/96/91 112/156/133 118/158/135 75/97/92
f 122/51/51 96/54/54 26/126/118 81/125/117
