# Blender v2.80 (sub 75) OBJ File: 'Visualizacion - copia.blend'
# www.blender.org
mtllib Banano.mtl
o Bananos.001_banana.000
v 5.196589 2.325576 -6.671292
v 5.187375 2.295925 -6.660314
v 5.185860 2.265754 -6.716536
v 5.195357 2.296516 -6.727384
v 5.213997 2.291166 -6.725620
v 5.204492 2.260259 -6.715036
v 5.183350 2.323851 -6.685054
v 5.173918 2.293350 -6.674160
v 5.229693 2.284302 -6.656388
v 5.238907 2.313954 -6.667367
v 5.240520 2.274643 -6.668308
v 5.249952 2.305145 -6.679203
v 5.173390 2.274493 -6.707978
v 5.182888 2.305257 -6.718827
v 5.225797 2.256705 -6.708648
v 5.235294 2.287468 -6.719497
v 5.133414 2.043205 -6.519969
v 5.131570 2.045306 -6.518704
v 5.119889 2.048436 -6.520056
v 5.116353 2.047152 -6.522542
v 5.116452 2.040248 -6.528835
v 5.122459 2.035944 -6.531835
v 5.126202 2.035245 -6.531658
v 5.129977 2.035018 -6.528749
v 5.254249 2.432368 -6.675518
v 5.247958 2.435428 -6.677892
v 5.246446 2.435751 -6.677156
v 5.238479 2.435941 -6.674973
v 5.235984 2.432441 -6.666776
v 5.238457 2.432252 -6.661539
v 5.251490 2.428761 -6.660030
v 5.254227 2.428679 -6.662084
v 5.187237 2.110665 -6.587508
v 5.176653 2.121038 -6.576033
v 5.134334 2.132660 -6.579958
v 5.120635 2.129372 -6.593360
v 5.118976 2.107187 -6.625106
v 5.131203 2.097733 -6.633220
v 5.149823 2.092013 -6.632136
v 5.169652 2.088679 -6.626506
v 5.168994 2.078616 -6.557113
v 5.160230 2.088854 -6.547732
v 5.126250 2.098243 -6.550691
v 5.113704 2.094292 -6.561655
v 5.110491 2.070879 -6.582819
v 5.120898 2.061560 -6.588839
v 5.135565 2.057476 -6.587170
v 5.151009 2.054740 -6.583091
v 5.237531 2.334838 -6.719484
v 5.212695 2.340590 -6.723696
v 5.226131 2.337343 -6.721296
v 5.201172 2.344494 -6.715888
v 5.196928 2.343183 -6.687070
v 5.203306 2.342377 -6.677020
v 5.240047 2.332535 -6.672766
v 5.247400 2.330774 -6.678591
v 5.243246 2.369802 -6.698890
v 5.228671 2.372735 -6.703241
v 5.233674 2.372181 -6.702801
v 5.220868 2.375951 -6.699168
v 5.218695 2.375160 -6.687493
v 5.222198 2.375187 -6.680990
v 5.241013 2.370147 -6.678812
v 5.244772 2.369284 -6.681834
v 5.251586 2.423346 -6.677784
v 5.243653 2.424383 -6.680919
v 5.245775 2.426106 -6.680412
v 5.236949 2.426662 -6.677279
v 5.234593 2.423343 -6.669860
v 5.236929 2.423238 -6.664809
v 5.249025 2.419997 -6.663408
v 5.251566 2.419922 -6.665315
v 5.124711 2.039788 -6.524273
vt 0.412095 0.054623
vt 0.392803 0.051118
vt 0.404827 0.025843
vt 0.418476 0.032337
vt 0.441725 0.034860
vt 0.438032 0.005844
vt 0.439641 0.005724
vt 0.449095 0.034974
vt 0.422944 0.151594
vt 0.445461 0.150164
vt 0.446742 0.167120
vt 0.423928 0.168984
vt 0.477349 0.145803
vt 0.476039 0.161147
vt 0.455559 0.165288
vt 0.454843 0.149048
vt 0.421912 0.055082
vt 0.443694 0.056031
vt 0.498586 0.146716
vt 0.496371 0.164860
vt 0.486765 0.162694
vt 0.488606 0.146056
vt 0.412883 0.151495
vt 0.392837 0.150278
vt 0.452724 0.056167
vt 0.474460 0.053185
vt 0.465377 0.028815
vt 0.426406 0.033365
vt 0.484072 0.051125
vt 0.493722 0.048729
vt 0.383672 0.150424
vt 0.383920 0.049236
vt 0.397973 0.021347
vt 0.429125 0.004789
vt 0.431424 0.005403
vt 0.472556 0.024993
vt 0.446053 0.003381
vt 0.448555 0.002622
vt 0.395211 0.167050
vt 0.414165 0.168639
vt 0.418074 0.180490
vt 0.403957 0.186918
vt 0.449992 0.001141
vt 0.479591 0.020654
vt 0.421510 -0.000803
vt 0.424829 0.002182
vt 0.446293 0.177886
vt 0.424849 0.179454
vt 0.425389 0.204817
vt 0.417648 0.206945
vt 0.451848 0.177954
vt 0.386290 0.168128
vt 0.396967 0.190688
vt 0.485823 0.187882
vt 0.478674 0.185212
vt 0.412003 0.208784
vt 0.472983 0.183036
vt 0.430680 0.205306
vt 0.446256 0.204651
vt 0.449688 0.204123
vt 0.432114 0.242192
vt 0.427004 0.243995
vt 0.471192 0.206323
vt 0.468206 0.205703
vt 0.422061 0.244146
vt 0.461575 0.204130
vt 0.435621 0.242910
vt 0.443508 0.242468
vt 0.432730 0.246336
vt 0.427766 0.248129
vt 0.459423 0.242315
vt 0.458117 0.243477
vt 0.445530 0.242373
vt 0.453773 0.242592
vt 0.452892 0.246621
vt 0.445325 0.246534
vt 0.443385 0.246588
vt 0.435885 0.247073
vt 0.457776 0.247998
vt 0.456803 0.247723
vt 0.423166 0.249493
vt 0.382472 0.225250
vt 0.384948 0.228525
vt 0.380595 0.229736
vt 0.377692 0.224711
vt 0.376143 0.226439
vt 0.376127 0.232704
vt 0.385031 0.228877
vt 0.384987 0.230839
vt 0.383587 0.232857
vt 0.377232 0.233832
vn -0.9001 0.3805 0.2122
vn -0.8963 -0.0859 -0.4350
vn -0.9370 -0.2678 -0.2244
vn -0.8906 0.3447 0.2966
vn 0.4679 0.3532 0.8102
vn 0.1747 -0.0900 0.9805
vn 0.5057 -0.5383 0.6742
vn 0.8852 -0.2917 0.3623
vn -0.3504 0.4602 0.8158
vn 0.4366 0.2469 0.8651
vn 0.4023 0.2110 0.8909
vn -0.3730 0.4220 0.8263
vn 0.6319 -0.4598 -0.6239
vn 0.6820 -0.2328 -0.6933
vn 0.9805 -0.0697 0.1836
vn 0.9477 -0.1905 0.2562
vn -0.3328 0.5856 0.7392
vn 0.4904 0.3345 0.8048
vn -0.3339 -0.2710 -0.9028
vn -0.2364 -0.0515 -0.9703
vn 0.1419 -0.1759 -0.9741
vn 0.0708 -0.4045 -0.9118
vn -0.8948 0.3810 0.2326
vn -0.8614 0.0610 -0.5042
vn 0.9397 -0.2354 0.2482
vn 0.5427 -0.6514 -0.5302
vn 0.4573 -0.8409 -0.2894
vn -0.2997 0.5990 0.7426
vn -0.0120 -0.6287 -0.7776
vn -0.4163 -0.4854 -0.7688
vn -0.4750 -0.7234 -0.5010
vn -0.7839 -0.0982 0.6130
vn -0.3554 0.0705 0.9320
vn -0.1135 -0.8558 -0.5047
vn 0.1978 -0.9554 0.2194
vn -0.1735 -0.9724 -0.1560
vn -0.7875 0.2322 -0.5709
vn -0.8743 0.4513 0.1787
vn -0.8292 0.5305 0.1762
vn -0.6457 0.5187 -0.5604
vn -0.4101 -0.9118 0.0213
vn -0.7933 -0.5607 0.2373
vn 0.3534 0.1857 0.9168
vn -0.4398 0.4124 0.7978
vn -0.8939 0.4262 0.1387
vn -0.6297 0.5614 -0.5370
vn 0.9538 0.0640 0.2935
vn -0.0946 0.3329 -0.9382
vn 0.2379 0.2306 -0.9435
vn -0.0476 0.4803 -0.8758
vn 0.6794 0.1353 -0.7212
vn -0.5546 0.1456 0.8193
vn 0.2595 -0.0884 0.9617
vn 0.9395 -0.0800 0.3332
vn -0.9707 0.1969 0.1376
vn -0.7087 0.3752 -0.5975
vn 0.2505 0.3196 -0.9139
vn -0.1402 0.3874 -0.9112
vn 0.8136 0.1609 -0.5587
vn -0.6057 -0.1398 0.7833
vn 0.1831 -0.3582 0.9155
vn -0.9852 0.1043 0.1358
vn -0.6806 0.3137 -0.6621
vn 0.0812 0.2972 -0.9514
vn 0.8605 -0.3263 0.3912
vn 0.8368 0.0036 -0.5475
vn 0.8107 -0.0804 -0.5799
vn 0.8354 -0.3949 0.3822
vn 0.1887 -0.3990 0.8973
vn -0.5758 -0.1915 0.7948
vn -0.2424 0.3267 -0.9135
vn 0.1626 0.2251 -0.9607
vn -0.2599 -0.6972 0.6681
usemtl T_Frutas_1
s 1
f 36/1/1 37/2/2 45/3/3 44/4/4
f 42/5/5 18/6/6 17/7/7 41/8/8
f 2/9/9 9/10/10 10/11/11 1/12/12
f 15/13/13 16/14/14 12/15/15 11/16/16
f 9/10/10 2/9/9 35/17/17 34/18/18
f 3/19/19 4/20/20 5/21/21 6/22/22
f 36/1/1 8/23/23 13/24/24 37/2/2
f 15/13/13 11/16/16 33/25/25 40/26/26
f 40/26/26 33/25/25 41/8/8 48/27/27
f 34/18/18 35/17/17 43/28/28 42/5/5
f 6/22/22 39/29/29 38/30/30 3/19/19
f 9/10/10 34/18/18 33/25/25 11/16/16
f 33/25/25 34/18/18 42/5/5 41/8/8
f 8/23/23 36/1/1 35/17/17 2/9/9
f 35/17/17 36/1/1 44/4/4 43/28/28
f 3/31/19 38/32/30 37/2/2 13/24/24
f 37/2/2 38/32/30 46/33/31 45/3/3
f 44/4/4 20/34/32 19/35/33 43/28/28
f 47/36/34 48/27/27 24/37/35 23/38/36
f 14/39/37 7/40/38 53/41/39 52/42/40
f 48/27/27 41/8/8 17/7/7 24/37/35
f 47/36/34 23/38/36 22/43/41 46/44/31
f 38/30/30 39/29/29 47/36/34 46/44/31
f 46/33/31 22/45/41 21/46/42 45/3/3
f 44/4/4 45/3/3 21/46/42 20/34/32
f 1/12/12 10/11/11 55/47/43 54/48/44
f 52/42/40 53/41/39 61/49/45 60/50/46
f 10/11/11 12/15/15 56/51/47 55/47/43
f 1/12/12 54/48/44 53/41/39 7/40/38
f 4/52/20 14/39/37 52/42/40 50/53/48
f 5/21/21 4/20/20 50/54/48 51/55/49
f 50/53/48 52/42/40 60/50/46 58/56/50
f 12/15/15 16/14/14 49/57/51 56/51/47
f 53/41/39 54/48/44 62/58/52 61/49/45
f 54/48/44 55/47/43 63/59/53 62/58/52
f 55/47/43 56/51/47 64/60/54 63/59/53
f 60/50/46 61/49/45 69/61/55 68/62/56
f 51/55/49 50/54/48 58/63/50 59/64/57
f 60/50/46 68/62/56 66/65/58 58/56/50
f 56/51/47 49/57/51 57/66/59 64/60/54
f 62/58/52 70/67/60 69/61/55 61/49/45
f 62/58/52 63/59/53 71/68/61 70/67/60
f 68/62/56 69/61/55 29/69/62 28/70/63
f 58/63/50 66/71/58 67/72/64 59/64/57
f 72/73/65 65/74/66 25/75/67 32/76/68
f 64/60/54 57/66/59 65/74/66 72/73/65
f 70/67/60 71/68/61 31/77/69 30/78/70
f 64/60/54 72/73/65 71/68/61 63/59/53
f 66/71/58 27/79/71 26/80/72 67/72/64
f 68/62/56 28/70/63 27/81/71 66/65/58
f 70/67/60 30/78/70 29/69/62 69/61/55
f 72/73/65 32/76/68 31/77/69 71/68/61
f 43/28/28 19/35/33 18/6/6 42/5/5
f 7/40/38 14/39/37 13/24/24 8/23/23
f 6/22/22 15/13/13 40/26/26 39/29/29
f 57/66/59 59/64/57 67/72/64 65/74/66
f 65/74/66 67/72/64 26/80/72 25/75/67
f 49/57/51 51/55/49 59/64/57 57/66/59
f 16/14/14 5/21/21 51/55/49 49/57/51
f 6/22/22 5/21/21 16/14/14 15/13/13
f 47/36/34 39/29/29 40/26/26 48/27/27
f 8/23/23 2/9/9 1/12/12 7/40/38
f 9/10/10 11/16/16 12/15/15 10/11/11
f 21/82/42 22/83/41 73/84/73
f 20/85/32 21/82/42 73/84/73
f 19/86/33 20/85/32 73/84/73
f 18/87/6 19/86/33 73/84/73
f 22/88/41 23/89/36 73/84/73
f 23/89/36 24/90/35 73/84/73
f 24/90/35 17/91/7 73/84/73
f 17/91/7 18/87/6 73/84/73
f 3/31/19 13/24/24 14/39/37 4/52/20
