# Blender v2.80 (sub 75) OBJ File: 'Visualizacion - copia.blend'
# www.blender.org
mtllib Cebolla.mtl
o Cebolla.001_onion.000
v 6.729405 1.196971 -6.912164
v 6.733210 1.196971 -6.912702
v 6.717999 1.172179 -6.938975
v 6.726380 1.196971 -6.909796
v 6.707521 1.145416 -6.963603
v 6.703686 1.108856 -6.972618
v 6.707521 1.072296 -6.963604
v 6.717999 1.045532 -6.938975
v 6.724903 1.038228 -6.922749
v 6.724903 1.036462 -6.922749
v 6.724944 1.196971 -6.906233
v 6.734602 1.179484 -6.924120
v 6.736737 1.172179 -6.941625
v 6.738570 1.160559 -6.956657
v 6.739977 1.145416 -6.968192
v 6.741163 1.108856 -6.977917
v 6.739977 1.072296 -6.968192
v 6.736737 1.045532 -6.941625
v 6.734602 1.038228 -6.924120
v 6.725482 1.196971 -6.902428
v 6.727849 1.196971 -6.899402
v 6.743688 1.179484 -6.920457
v 6.754290 1.172179 -6.934550
v 6.763393 1.160559 -6.946652
v 6.770379 1.145416 -6.955938
v 6.776267 1.108856 -6.963767
v 6.770379 1.072296 -6.955938
v 6.754290 1.045532 -6.934550
v 6.743688 1.038228 -6.920458
v 6.731413 1.196971 -6.897966
v 6.735218 1.196971 -6.898503
v 6.749726 1.179484 -6.912743
v 6.765954 1.172179 -6.919647
v 6.779888 1.160559 -6.925576
v 6.790580 1.145416 -6.930125
v 6.799595 1.108856 -6.933960
v 6.790580 1.072296 -6.930125
v 6.765954 1.045532 -6.919648
v 6.749726 1.038228 -6.912743
v 6.738243 1.196971 -6.900872
v 6.739679 1.196971 -6.904436
v 6.751097 1.179484 -6.903043
v 6.768603 1.172179 -6.900908
v 6.783634 1.160559 -6.899075
v 6.795170 1.145416 -6.897669
v 6.804893 1.108856 -6.896483
v 6.795170 1.072296 -6.897669
v 6.768603 1.045532 -6.900909
v 6.751097 1.038228 -6.903043
v 6.739142 1.196971 -6.908240
v 6.736774 1.196971 -6.911265
v 6.747435 1.179484 -6.893957
v 6.761528 1.172179 -6.883356
v 6.773630 1.160559 -6.874252
v 6.782916 1.145416 -6.867267
v 6.790744 1.108856 -6.861378
v 6.782916 1.072296 -6.867267
v 6.761528 1.045532 -6.883356
v 6.747435 1.038228 -6.893957
v 6.739720 1.179484 -6.887920
v 6.746624 1.172179 -6.871692
v 6.752553 1.160559 -6.857758
v 6.757102 1.145416 -6.847065
v 6.760938 1.108856 -6.838051
v 6.757102 1.072296 -6.847065
v 6.746624 1.045532 -6.871693
v 6.739720 1.038228 -6.887920
v 6.730021 1.179484 -6.886548
v 6.727886 1.172179 -6.869043
v 6.726053 1.160559 -6.854010
v 6.724646 1.145416 -6.842476
v 6.723461 1.108856 -6.832752
v 6.724646 1.072296 -6.842476
v 6.727886 1.045532 -6.869043
v 6.730021 1.038228 -6.886549
v 6.720934 1.179484 -6.890211
v 6.710333 1.172179 -6.876117
v 6.701230 1.160559 -6.864016
v 6.694244 1.145416 -6.854730
v 6.688355 1.108856 -6.846901
v 6.694244 1.072296 -6.854730
v 6.710333 1.045532 -6.876118
v 6.720934 1.038228 -6.890211
v 6.714897 1.179484 -6.897925
v 6.698670 1.172179 -6.891021
v 6.684735 1.160559 -6.885092
v 6.674043 1.145416 -6.880543
v 6.665028 1.108856 -6.876709
v 6.674043 1.072296 -6.880544
v 6.698670 1.045532 -6.891021
v 6.714897 1.038228 -6.897925
v 6.713525 1.179484 -6.907625
v 6.696020 1.172179 -6.909759
v 6.680988 1.160559 -6.911592
v 6.669453 1.145416 -6.912999
v 6.659729 1.108856 -6.914185
v 6.669453 1.072296 -6.912999
v 6.696020 1.045532 -6.909760
v 6.713525 1.038228 -6.907625
v 6.717188 1.179484 -6.916710
v 6.703095 1.172179 -6.927312
v 6.690993 1.160559 -6.936416
v 6.681707 1.145416 -6.943401
v 6.673880 1.108856 -6.949291
v 6.681707 1.072296 -6.943401
v 6.703095 1.045532 -6.927312
v 6.717188 1.038228 -6.916711
v 6.727198 1.184243 -6.917354
v 6.733893 1.184243 -6.918301
v 6.724903 1.179484 -6.922749
v 6.721872 1.184243 -6.913187
v 6.712070 1.160559 -6.952910
v 6.719345 1.184243 -6.906915
v 6.720292 1.184243 -6.900220
v 6.724459 1.184243 -6.894895
v 6.730730 1.184243 -6.892367
v 6.737425 1.184243 -6.893314
v 6.742751 1.184243 -6.897481
v 6.745278 1.184243 -6.903753
v 6.744332 1.184243 -6.910448
v 6.740165 1.184243 -6.915773
v 6.732312 1.199341 -6.905334
v 6.734602 1.036462 -6.924120
v 6.743688 1.036462 -6.920458
v 6.749726 1.036462 -6.912743
v 6.751097 1.036462 -6.903043
v 6.747435 1.036462 -6.893957
v 6.739720 1.036462 -6.887920
v 6.730021 1.036462 -6.886549
v 6.720934 1.036462 -6.890211
v 6.714897 1.036462 -6.897925
v 6.713525 1.036462 -6.907625
v 6.717188 1.036462 -6.916711
v 6.732312 1.036462 -6.905334
vt 0.028204 0.107937
vt 0.028204 0.143869
vt 0.010188 0.143869
vt 0.010188 0.107937
vt 0.062685 0.003439
vt 0.070296 0.007833
vt 0.069177 0.009005
vt 0.062303 0.005013
vt 0.028204 0.186617
vt 0.028204 0.194559
vt 0.010188 0.194559
vt 0.010188 0.186617
vt 0.144677 0.107937
vt 0.127675 0.107937
vt 0.127675 0.084277
vt 0.144677 0.084277
vt 0.028204 0.177991
vt 0.010188 0.177991
vt 0.144677 0.143869
vt 0.127675 0.143869
vt 0.028204 0.167942
vt 0.010188 0.167942
vt 0.028204 0.071083
vt 0.028204 0.084277
vt 0.010188 0.084277
vt 0.010188 0.071083
vt 0.115258 0.194559
vt 0.127675 0.194559
vt 0.127675 0.198688
vt 0.115258 0.198688
vt 0.115258 0.107937
vt 0.115258 0.084277
vt 0.144677 0.167942
vt 0.127675 0.167942
vt 0.144677 0.177991
vt 0.127675 0.177991
vt 0.144677 0.071083
vt 0.127675 0.071083
vt 0.069408 0.194559
vt 0.077360 0.194559
vt 0.077360 0.198688
vt 0.069408 0.198688
vt 0.115258 0.167942
vt 0.115258 0.143869
vt 0.074690 0.015444
vt 0.073870 0.023938
vt 0.072296 0.023556
vt 0.073135 0.015899
vt 0.144677 0.186617
vt 0.144677 0.194559
vt 0.127675 0.186617
vt 0.115258 0.186617
vt 0.104900 0.107937
vt 0.104900 0.084277
vt 0.115258 0.177991
vt 0.104900 0.143869
vt 0.115258 0.071083
vt 0.095640 0.194559
vt 0.104900 0.194559
vt 0.104900 0.198688
vt 0.095640 0.198688
vt 0.069301 0.031373
vt 0.062159 0.035591
vt 0.061703 0.034037
vt 0.068129 0.030255
vt 0.104900 0.071083
vt 0.104900 0.167942
vt 0.095640 0.143869
vt 0.095640 0.107937
vt 0.053898 0.036235
vt 0.046287 0.031841
vt 0.047406 0.030670
vt 0.054280 0.034661
vt 0.104900 0.186617
vt 0.095640 0.084277
vt 0.104900 0.177991
vt 0.095640 0.186617
vt 0.095640 0.177991
vt 0.086991 0.107937
vt 0.086991 0.084277
vt 0.095640 0.167942
vt 0.095640 0.071083
vt 0.086991 0.194559
vt 0.086991 0.198688
vt 0.086991 0.167942
vt 0.086991 0.143869
vt 0.054073 0.003849
vt 0.054529 0.005404
vt 0.047107 0.008360
vt 0.048279 0.009478
vt 0.086991 0.186617
vt 0.077360 0.107937
vt 0.077360 0.084277
vt 0.086991 0.177991
vt 0.077360 0.143869
vt 0.086991 0.071083
vt 0.144677 0.198688
vt 0.077360 0.177991
vt 0.077360 0.167942
vt 0.077360 0.071083
vt 0.051163 0.194559
vt 0.060534 0.194559
vt 0.060534 0.198688
vt 0.051163 0.198688
vt 0.069408 0.143869
vt 0.069408 0.107937
vt 0.041484 0.024407
vt 0.043038 0.023951
vt 0.077360 0.186617
vt 0.069408 0.084277
vt 0.069408 0.186617
vt 0.069408 0.177991
vt 0.060534 0.107937
vt 0.060534 0.084277
vt 0.069408 0.167942
vt 0.069408 0.071083
vt 0.040796 0.194559
vt 0.040796 0.198688
vt 0.028204 0.198688
vt 0.060534 0.167942
vt 0.060534 0.143869
vt 0.042128 0.015443
vt 0.043702 0.015826
vt 0.060534 0.186617
vt 0.051163 0.107937
vt 0.051163 0.084277
vt 0.060534 0.177991
vt 0.051163 0.143869
vt 0.060534 0.071083
vt 0.051163 0.177991
vt 0.051163 0.167942
vt 0.051163 0.071083
vt 0.040796 0.167942
vt 0.040796 0.143869
vt 0.051163 0.186617
vt 0.040796 0.107937
vt 0.040796 0.084277
vt 0.040796 0.186617
vt 0.040796 0.177991
vt 0.040796 0.071083
vt 0.144677 0.208082
vt 0.127675 0.208082
vt 0.010188 0.198688
vt 0.077360 0.208082
vt 0.069408 0.208082
vt 0.095640 0.208082
vt 0.086991 0.208082
vt 0.051163 0.208082
vt 0.040796 0.208082
vt 0.115258 0.208082
vt 0.104900 0.208082
vt 0.060534 0.208082
vt 0.028204 0.208082
vt 0.010188 0.208082
vt 0.208332 0.194801
vt 0.203049 0.197851
vt 0.200000 0.186469
vt 0.191667 0.194801
vt 0.188618 0.189519
vt 0.196950 0.197851
vt 0.188618 0.183419
vt 0.196950 0.175087
vt 0.203050 0.175087
vt 0.191667 0.178136
vt 0.208332 0.178137
vt 0.211382 0.183419
vt 0.211382 0.189519
vt 0.197164 0.196428
vt 0.192594 0.193775
vt 0.199830 0.186574
vt 0.202496 0.176721
vt 0.207066 0.179374
vt 0.207030 0.193810
vt 0.202448 0.196441
vt 0.189977 0.183908
vt 0.192630 0.179339
vt 0.209697 0.183957
vt 0.209684 0.189241
vt 0.189964 0.189192
vt 0.197212 0.176708
vn -0.3429 -0.4823 -0.8061
vn -0.3915 0.0000 -0.9202
vn 0.1210 0.0000 -0.9926
vn 0.1060 -0.4823 -0.8695
vn -0.6379 -0.6023 -0.4799
vn -0.3125 -0.6024 -0.7345
vn -0.2964 -0.6532 -0.6967
vn -0.6051 -0.6532 -0.4552
vn -0.2020 0.8566 -0.4747
vn -0.1933 0.8696 -0.4543
vn 0.0598 0.8696 -0.4901
vn 0.0624 0.8566 -0.5121
vn 0.5266 -0.4823 -0.7000
vn 0.3470 -0.8166 -0.4612
vn 0.0699 -0.8166 -0.5729
vn -0.2809 0.6965 -0.6603
vn 0.0869 0.6965 -0.7123
vn 0.6012 0.0000 -0.7991
vn -0.3535 0.4300 -0.8308
vn 0.1093 0.4300 -0.8962
vn -0.2260 -0.8166 -0.5311
vn 0.0966 -0.6023 -0.7924
vn 0.4543 0.8696 -0.1933
vn 0.2968 0.8696 -0.3946
vn 0.4683 0.6269 -0.6226
vn 0.7169 0.6269 -0.3050
vn 0.8061 -0.4823 -0.3429
vn 0.5311 -0.8166 -0.2260
vn 0.5427 0.4300 -0.7215
vn 0.4314 0.6965 -0.5735
vn 0.4798 -0.6024 -0.6379
vn -0.2968 0.8696 0.3945
vn -0.0597 0.8696 0.4901
vn -0.0943 0.6269 0.7733
vn -0.4684 0.6269 0.6226
vn 0.8308 0.4300 -0.3535
vn 0.9202 -0.0000 -0.3915
vn 0.4552 -0.6532 -0.6051
vn 0.0916 -0.6532 -0.7516
vn 0.3101 0.8566 -0.4123
vn 0.4747 0.8566 -0.2020
vn 0.8695 -0.4823 0.1060
vn 0.5729 -0.8166 0.0699
vn 0.6603 0.6965 -0.2809
vn 0.9926 -0.0000 0.1210
vn 0.7345 -0.6024 -0.3125
vn 0.3946 0.8696 0.2968
vn 0.4901 0.8696 0.0598
vn 0.7734 0.6269 0.0943
vn 0.6226 0.6269 0.4683
vn 0.7924 -0.6024 0.0967
vn 0.7516 -0.6532 0.0917
vn 0.6967 -0.6532 -0.2964
vn 0.8962 0.4300 0.1093
vn 0.7991 -0.0000 0.6011
vn 0.7000 -0.4823 0.5266
vn 0.6379 -0.6024 0.4799
vn 0.3125 -0.6023 0.7345
vn 0.2964 -0.6532 0.6967
vn 0.6051 -0.6532 0.4552
vn 0.5121 0.8566 0.0625
vn 0.4612 -0.8166 0.3470
vn 0.7123 0.6965 0.0869
vn 0.4123 0.8566 0.3101
vn 0.5735 0.6965 0.4314
vn 0.3429 -0.4823 0.8061
vn 0.2260 -0.8166 0.5311
vn 0.7215 0.4300 0.5427
vn 0.1933 0.8696 0.4543
vn 0.3050 0.6269 0.7169
vn 0.3535 0.4300 0.8308
vn 0.3915 0.0000 0.9202
vn -0.7923 -0.6024 -0.0966
vn -0.7516 -0.6532 -0.0917
vn -0.7345 -0.6023 0.3125
vn -0.6967 -0.6532 0.2964
vn 0.2020 0.8566 0.4747
vn -0.1060 -0.4823 0.8695
vn -0.0699 -0.8166 0.5729
vn 0.2809 0.6964 0.6603
vn -0.1210 -0.0000 0.9926
vn 0.0943 0.6269 -0.7733
vn -0.0869 0.6965 0.7123
vn -0.1093 0.4300 0.8962
vn -0.0966 -0.6024 0.7924
vn -0.4901 0.8696 -0.0598
vn -0.4543 0.8696 0.1933
vn -0.7169 0.6269 0.3050
vn -0.7733 0.6269 -0.0943
vn -0.6012 -0.0000 0.7991
vn -0.5266 -0.4823 0.7000
vn -0.0916 -0.6532 0.7516
vn -0.0624 0.8566 0.5121
vn -0.3470 -0.8166 0.4612
vn -0.3102 0.8566 0.4123
vn -0.4314 0.6965 0.5734
vn -0.8061 -0.4823 0.3429
vn -0.5311 -0.8166 0.2260
vn -0.5427 0.4300 0.7215
vn -0.4799 -0.6024 0.6379
vn -0.3946 0.8696 -0.2968
vn -0.6226 0.6269 -0.4684
vn -0.3050 0.6269 -0.7169
vn -0.8308 0.4300 0.3535
vn -0.9202 -0.0000 0.3915
vn -0.4552 -0.6532 0.6051
vn -0.4747 0.8566 0.2020
vn -0.8695 -0.4823 -0.1060
vn -0.5729 -0.8166 -0.0699
vn -0.6603 0.6965 0.2809
vn -0.9926 -0.0000 -0.1210
vn -0.7123 0.6965 -0.0869
vn -0.8962 0.4300 -0.1093
vn -0.7215 0.4300 -0.5427
vn -0.7991 0.0000 -0.6012
vn -0.5121 0.8566 -0.0624
vn -0.7000 -0.4823 -0.5266
vn -0.4612 -0.8166 -0.3470
vn -0.4123 0.8566 -0.3102
vn -0.5735 0.6965 -0.4314
vn 0.0850 0.7118 -0.6972
vn 0.4222 0.7118 -0.5613
vn -0.0850 0.7119 0.6972
vn -0.4222 0.7118 0.5613
vn 0.5613 0.7119 0.4222
vn 0.2750 0.7118 0.6463
vn -0.6972 0.7118 -0.0850
vn -0.5612 0.7119 -0.4222
vn 0.6463 0.7118 -0.2749
vn 0.6971 0.7119 0.0850
vn -0.6463 0.7118 0.2749
vn -0.2749 0.7118 -0.6463
vn 0.0000 1.0000 -0.0000
vn 0.0000 -1.0000 -0.0000
usemtl T_Frutas_1
s 1
f 7/1/1 6/2/2 16/3/3 17/4/4
f 107/5/5 9/6/6 10/7/7 133/8/8
f 3/9/9 110/10/10 12/11/11 13/12/12
f 17/13/4 27/14/13 28/15/14 18/16/15
f 112/17/16 3/9/9 13/12/12 14/18/17
f 17/13/4 16/19/3 26/20/18 27/14/13
f 5/21/19 112/17/16 14/18/17 15/22/20
f 9/23/6 8/24/21 18/25/15 19/26/22
f 32/27/23 22/28/24 121/29/25 120/30/26
f 28/15/14 27/14/13 37/31/27 38/32/28
f 16/19/3 15/33/20 25/34/29 26/20/18
f 15/33/20 14/35/17 24/36/30 25/34/29
f 19/37/22 18/16/15 28/15/14 29/38/31
f 76/39/32 68/40/33 116/41/34 115/42/35
f 25/34/29 35/43/36 36/44/37 26/20/18
f 19/45/22 29/46/31 124/47/38 123/48/39
f 13/49/12 12/50/11 22/28/24 23/51/40
f 14/35/17 13/49/12 23/51/40 24/36/30
f 23/51/40 22/28/24 32/27/23 33/52/41
f 38/32/28 37/31/27 47/53/42 48/54/43
f 27/14/13 26/20/18 36/44/37 37/31/27
f 24/36/30 23/51/40 33/52/41 34/55/44
f 36/44/37 46/56/45 47/53/42 37/31/27
f 25/34/29 24/36/30 34/55/44 35/43/36
f 29/38/31 28/15/14 38/32/28 39/57/46
f 52/58/47 42/59/48 119/60/49 118/61/50
f 39/62/46 49/63/51 126/64/52 125/65/53
f 39/57/46 38/32/28 48/54/43 49/66/51
f 42/59/48 32/27/23 120/30/26 119/60/49
f 36/44/37 35/43/36 45/67/54 46/56/45
f 47/53/42 46/56/45 56/68/55 57/69/56
f 59/70/57 67/71/58 128/72/59 127/73/60
f 33/52/41 32/27/23 42/59/48 43/74/61
f 47/53/42 57/69/56 58/75/62 48/54/43
f 34/55/44 33/52/41 43/74/61 44/76/63
f 35/43/36 34/55/44 44/76/63 45/67/54
f 44/76/63 43/74/61 53/77/64 54/78/65
f 58/75/62 57/69/56 65/79/66 66/80/67
f 46/56/45 45/67/54 55/81/68 56/68/55
f 45/67/54 44/76/63 54/78/65 55/81/68
f 49/66/51 48/54/43 58/75/62 59/82/57
f 60/83/69 52/58/47 118/61/50 117/84/70
f 55/81/68 63/85/71 64/86/72 56/68/55
f 99/87/73 107/5/5 133/8/8 132/88/74
f 43/74/61 42/59/48 52/58/47 53/77/64
f 91/89/75 99/87/73 132/88/74 131/90/76
f 53/77/64 52/58/47 60/83/69 61/91/77
f 66/80/67 65/79/66 73/92/78 74/93/79
f 57/69/56 56/68/55 64/86/72 65/79/66
f 54/78/65 53/77/64 61/91/77 62/94/80
f 64/86/72 72/95/81 73/92/78 65/79/66
f 55/81/68 54/78/65 62/94/80 63/85/71
f 59/82/57 58/75/62 66/80/67 67/96/58
f 22/28/24 12/50/11 109/97/82 121/29/25
f 63/85/71 62/94/80 70/98/83 71/99/84
f 67/96/58 66/80/67 74/93/79 75/100/85
f 92/101/86 84/102/87 114/103/88 113/104/89
f 64/86/72 63/85/71 71/99/84 72/95/81
f 73/92/78 72/95/81 80/105/90 81/106/91
f 67/71/58 75/107/85 129/108/92 128/72/59
f 61/91/77 60/83/69 68/40/33 69/109/93
f 73/92/78 81/106/91 82/110/94 74/93/79
f 62/94/80 61/91/77 69/109/93 70/98/83
f 70/98/83 69/109/93 77/111/95 78/112/96
f 82/110/94 81/106/91 89/113/97 90/114/98
f 72/95/81 71/99/84 79/115/99 80/105/90
f 71/99/84 70/98/83 78/112/96 79/115/99
f 75/100/85 74/93/79 82/110/94 83/116/100
f 110/10/10 100/117/101 111/118/102 108/119/103
f 80/105/90 79/115/99 87/120/104 88/121/105
f 83/122/100 91/89/75 131/90/76 130/123/106
f 69/109/93 68/40/33 76/39/32 77/111/95
f 81/106/91 80/105/90 88/121/105 89/113/97
f 29/46/31 39/62/46 125/65/53 124/47/38
f 77/111/95 76/39/32 84/102/87 85/124/107
f 90/114/98 89/113/97 97/125/108 98/126/109
f 78/112/96 77/111/95 85/124/107 86/127/110
f 88/121/105 96/128/111 97/125/108 89/113/97
f 79/115/99 78/112/96 86/127/110 87/120/104
f 83/116/100 82/110/94 90/114/98 91/129/75
f 68/40/33 60/83/69 117/84/70 116/41/34
f 87/120/104 86/127/110 94/130/112 95/131/113
f 91/129/75 90/114/98 98/126/109 99/132/73
f 84/102/87 76/39/32 115/42/35 114/103/88
f 88/121/105 87/120/104 95/131/113 96/128/111
f 95/131/113 103/133/114 104/134/115 96/128/111
f 75/107/85 83/122/100 130/123/106 129/108/92
f 85/124/107 84/102/87 92/101/86 93/135/116
f 97/125/108 105/136/117 106/137/118 98/126/109
f 86/127/110 85/124/107 93/135/116 94/130/112
f 97/125/108 96/128/111 104/134/115 105/136/117
f 94/130/112 93/135/116 101/138/119 102/139/120
f 106/137/118 105/136/117 7/1/1 8/24/21
f 104/134/115 103/133/114 5/21/19 6/2/2
f 95/131/113 94/130/112 102/139/120 103/133/114
f 99/132/73 98/126/109 106/137/118 107/140/5
f 100/117/101 92/101/86 113/104/89 111/118/102
f 49/63/51 59/70/57 127/73/60 126/64/52
f 93/135/116 92/101/86 100/117/101 101/138/119
f 105/136/117 104/134/115 6/2/2 7/1/1
f 9/6/6 19/45/22 123/48/39 10/7/7
f 101/138/119 100/117/101 110/10/10 3/9/9
f 2/141/121 51/142/122 121/29/25 109/97/82
f 102/139/120 101/138/119 3/9/9 112/17/16
f 103/133/114 102/139/120 112/17/16 5/21/19
f 107/140/5 106/137/118 8/24/21 9/23/6
f 12/11/11 110/10/10 108/119/103 109/143/82
f 30/144/123 21/145/124 115/42/35 116/41/34
f 40/146/125 31/147/126 117/84/70 118/61/50
f 11/148/127 4/149/128 111/118/102 113/104/89
f 50/150/129 41/151/130 119/60/49 120/30/26
f 21/145/124 20/152/131 114/103/88 115/42/35
f 1/153/132 2/154/121 109/143/82 108/119/103
f 31/147/126 30/144/123 116/41/34 117/84/70
f 4/149/128 1/153/132 108/119/103 111/118/102
f 41/151/130 40/146/125 118/61/50 119/60/49
f 20/152/131 11/148/127 113/104/89 114/103/88
f 51/142/122 50/150/129 120/30/26 121/29/25
f 50/155/129 51/156/122 122/157/133
f 1/158/132 4/159/128 122/157/133
f 2/160/121 1/158/132 122/157/133
f 51/156/122 2/160/121 122/157/133
f 4/159/128 11/161/127 122/157/133
f 21/162/124 30/163/123 122/157/133
f 11/161/127 20/164/131 122/157/133
f 30/163/123 31/165/126 122/157/133
f 40/166/125 41/167/130 122/157/133
f 41/167/130 50/155/129 122/157/133
f 20/164/131 21/162/124 122/157/133
f 31/165/126 40/166/125 122/157/133
f 127/168/60 128/169/59 134/170/134
f 133/171/8 10/172/7 134/170/134
f 125/173/53 126/174/52 134/170/134
f 130/175/106 131/176/76 134/170/134
f 123/177/39 124/178/38 134/170/134
f 128/169/59 129/179/92 134/170/134
f 132/180/74 133/171/8 134/170/134
f 126/174/52 127/168/60 134/170/134
f 131/176/76 132/180/74 134/170/134
f 124/178/38 125/173/53 134/170/134
f 129/179/92 130/175/106 134/170/134
f 10/172/7 123/177/39 134/170/134
f 6/2/2 5/21/19 15/22/20 16/3/3
f 8/24/21 7/1/1 17/4/4 18/25/15
