# Blender v2.80 (sub 75) OBJ File: 'Visualizacion - copia.blend'
# www.blender.org
mtllib Frijol_Verde.mtl
o FrijolVerde.001_beans(quads).000
v 6.754163 1.734797 -7.447448
v 6.754336 1.737560 -7.447556
v 6.754406 1.739433 -7.449590
v 6.754333 1.739318 -7.452351
v 6.754160 1.737290 -7.454222
v 6.753988 1.734537 -7.454111
v 6.753916 1.732667 -7.452087
v 6.753987 1.732771 -7.449328
v 6.791838 1.731135 -7.434393
v 6.791772 1.730113 -7.434749
v 6.794446 1.731534 -7.430616
v 6.794452 1.731652 -7.430589
v 6.791987 1.733151 -7.434467
v 6.794475 1.731890 -7.430591
v 6.794492 1.732012 -7.430622
v 6.792071 1.734143 -7.434898
v 6.793392 1.750842 -7.453664
v 6.793381 1.750483 -7.452602
v 6.796290 1.754660 -7.455121
v 6.796283 1.754704 -7.455316
v 6.793375 1.750748 -7.455749
v 6.796270 1.754678 -7.455690
v 6.796267 1.754608 -7.455870
v 6.793346 1.750294 -7.456773
v 6.791914 1.728866 -7.475312
v 6.792003 1.729906 -7.474961
v 6.794415 1.726649 -7.480859
v 6.794394 1.726482 -7.480893
v 6.791759 1.726824 -7.475215
v 6.794363 1.726166 -7.480866
v 6.794353 1.726017 -7.480804
v 6.791689 1.725823 -7.474765
v 6.790494 1.709306 -7.456158
v 6.790523 1.709664 -7.457168
v 6.792737 1.703623 -7.456388
v 6.792735 1.703593 -7.456287
v 6.790512 1.709368 -7.454160
v 6.792745 1.703584 -7.456072
v 6.792756 1.703605 -7.455957
v 6.790556 1.709785 -7.453173
v 6.729669 1.736676 -7.441679
v 6.741048 1.736700 -7.446568
v 6.728917 1.738394 -7.441496
v 6.740876 1.738601 -7.446607
v 6.727686 1.739370 -7.442482
v 6.740469 1.739856 -7.447947
v 6.726714 1.739057 -7.444052
v 6.740077 1.739741 -7.449794
v 6.726566 1.737648 -7.445311
v 6.739928 1.738332 -7.451077
v 6.727324 1.735949 -7.445516
v 6.740104 1.736449 -7.451047
v 6.728537 1.734951 -7.444531
v 6.740497 1.735186 -7.449719
v 6.729504 1.735247 -7.442940
v 6.740886 1.735284 -7.447863
v 6.721239 1.734564 -7.434013
v 6.719832 1.736585 -7.433434
v 6.717661 1.737553 -7.434307
v 6.716016 1.736906 -7.436132
v 6.715871 1.735027 -7.437843
v 6.717299 1.733015 -7.438420
v 6.719447 1.732050 -7.437525
v 6.721069 1.732689 -7.435703
v 6.787241 1.730922 -7.440042
v 6.787124 1.729120 -7.440681
v 6.787502 1.734469 -7.440178
v 6.787645 1.736213 -7.440955
v 6.788356 1.745183 -7.451830
v 6.788333 1.744553 -7.450026
v 6.788331 1.745032 -7.455382
v 6.788283 1.744250 -7.457130
v 6.787437 1.731813 -7.467212
v 6.787588 1.733603 -7.466588
v 6.787170 1.728289 -7.467053
v 6.787053 1.726556 -7.466272
v 6.786404 1.717668 -7.455519
v 6.786454 1.718307 -7.457314
v 6.786432 1.717789 -7.451982
v 6.786510 1.718550 -7.450241
v 6.774017 1.732649 -7.445730
v 6.773877 1.730788 -7.446406
v 6.774295 1.736311 -7.445877
v 6.774435 1.738113 -7.446700
v 6.774557 1.739925 -7.449803
v 6.774523 1.739251 -7.447937
v 6.774521 1.739778 -7.453475
v 6.774454 1.738957 -7.455282
v 6.774181 1.735669 -7.457220
v 6.774336 1.737525 -7.456549
v 6.773895 1.732015 -7.457067
v 6.773766 1.730217 -7.456243
v 6.773643 1.728423 -7.453169
v 6.773687 1.729100 -7.455032
v 6.773685 1.728561 -7.449502
v 6.773767 1.729375 -7.447699
v 6.718433 1.736220 -7.432138
v 6.716166 1.737177 -7.432992
v 6.714455 1.736488 -7.434834
v 6.714307 1.734563 -7.436586
v 6.715805 1.732531 -7.437207
v 6.718054 1.731585 -7.436336
v 6.719910 1.734182 -7.432768
v 6.719744 1.732267 -7.434502
v 7.099483 1.708654 -7.453609
v 7.087639 1.703748 -7.458901
v 7.040866 1.692529 -7.472297
v 6.785649 1.724563 -7.459543
v 6.770026 1.731667 -7.454026
v 6.800161 1.718112 -7.464530
v 6.834950 1.706173 -7.473240
v 6.880534 1.700677 -7.475310
v 7.099702 1.711744 -7.450749
v 7.088386 1.714221 -7.449212
v 7.042881 1.720825 -7.446115
v 6.786572 1.737517 -7.447556
v 6.770455 1.737683 -7.448460
v 6.801522 1.737232 -7.446838
v 6.836993 1.734841 -7.446713
v 6.882631 1.730109 -7.448076
v 7.099561 1.709755 -7.451697
v 7.087625 1.703543 -7.448244
v 6.785688 1.725108 -7.447106
v 6.770031 1.731737 -7.448052
v 6.800233 1.719132 -7.446408
v 6.786377 1.734776 -7.461672
v 6.770385 1.736710 -7.455124
v 6.786664 1.738817 -7.457933
v 6.770503 1.738371 -7.453588
v 6.801642 1.738913 -7.461925
v 6.801219 1.732977 -7.467417
v 6.836583 1.729095 -7.477638
v 6.837128 1.736734 -7.470571
v 6.882284 1.725252 -7.481419
v 6.882850 1.733199 -7.474066
v 7.099654 1.711059 -7.452255
v 7.099593 1.710206 -7.453044
v 7.088284 1.712792 -7.461034
v 7.088479 1.715533 -7.458498
v 7.043250 1.726005 -7.473177
v 7.042737 1.718801 -7.479843
v 7.099483 1.708667 -7.453184
v 7.087543 1.702394 -7.455921
v 7.064934 1.707703 -7.473102
v 7.018966 1.707801 -7.483004
v 6.973038 1.708458 -7.483322
v 6.786074 1.730518 -7.462411
v 6.770244 1.734718 -7.455532
v 6.800770 1.726670 -7.468495
v 6.800011 1.716015 -7.459742
v 6.835888 1.719347 -7.479051
v 6.881553 1.714983 -7.482350
v 7.099693 1.711613 -7.451535
v 7.088535 1.716323 -7.454725
v 7.065253 1.712183 -7.443389
v 7.043360 1.727551 -7.462274
v 7.019347 1.713150 -7.441622
v 6.973493 1.714852 -7.444234
v 6.786343 1.734308 -7.445766
v 6.770337 1.736026 -7.447513
v 6.801196 1.732639 -7.444361
v 6.801755 1.740490 -7.455708
v 6.836492 1.727814 -7.443083
v 6.860188 1.737760 -7.461987
v 6.882084 1.722445 -7.443755
v 7.099620 1.710584 -7.451017
v 7.087860 1.706848 -7.446575
v 7.063777 1.691459 -7.450947
v 7.041348 1.699305 -7.437456
v 6.785487 1.722275 -7.451136
v 6.769942 1.730497 -7.449780
v 6.799939 1.714999 -7.452377
v 6.800679 1.725398 -7.442755
v 6.858386 1.712462 -7.441054
v 6.786741 1.739893 -7.453736
v 6.770543 1.738935 -7.451630
v 6.837322 1.739472 -7.460428
v 6.859409 1.726815 -7.480349
v 6.858689 1.716713 -7.481462
v 6.883037 1.735819 -7.463070
v 7.099539 1.709446 -7.453539
v 7.088017 1.709050 -7.461455
v 7.065912 1.721440 -7.467239
v 7.066024 1.723022 -7.458927
v 7.041970 1.708027 -7.480340
v 7.020360 1.727375 -7.474765
v 7.020470 1.728919 -7.463463
v 6.974369 1.727154 -7.475013
v 6.974504 1.729056 -7.464263
v 7.064106 1.696099 -7.467487
v 7.017829 1.691832 -7.474450
v 6.971985 1.693673 -7.475761
v 6.857698 1.702803 -7.474851
v 7.065696 1.718401 -7.446851
v 7.019957 1.721722 -7.446793
v 6.974058 1.722773 -7.448835
v 6.859811 1.732475 -7.447395
v 7.064043 1.695193 -7.444336
v 6.859976 1.734791 -7.472968
v 7.065517 1.715899 -7.472367
v 7.019761 1.718973 -7.482540
v 6.973788 1.718988 -7.482570
v 7.063897 1.693154 -7.460997
v 6.785541 1.723040 -7.456193
v 6.769969 1.730858 -7.452295
v 7.088181 1.711365 -7.447620
v 7.042289 1.712519 -7.441231
v 6.859281 1.725033 -7.443314
v 7.064542 1.702195 -7.441013
v 7.087491 1.701668 -7.451368
v 7.018382 1.699602 -7.437481
v 6.972587 1.702133 -7.440818
v 6.785990 1.729341 -7.444597
v 6.770160 1.733554 -7.446951
v 6.835658 1.716100 -7.441085
v 6.881177 1.709712 -7.441077
v 7.099673 1.711321 -7.450727
v 7.099508 1.709014 -7.452470
vt 0.317318 0.604095
vt 0.311377 0.604690
vt 0.311365 0.604121
vt 0.311342 0.603641
vt 0.311303 0.603068
vt 0.317277 0.603273
vt 0.325290 0.604377
vt 0.321432 0.604451
vt 0.321482 0.603874
vt 0.325476 0.603848
vt 0.317269 0.602449
vt 0.311332 0.602003
vt 0.311405 0.601429
vt 0.311473 0.600876
vt 0.311525 0.600299
vt 0.317319 0.601629
vt 0.317458 0.600848
vt 0.311776 0.599244
vt 0.311988 0.598701
vt 0.312153 0.598256
vt 0.312385 0.597734
vt 0.317702 0.600095
vt 0.311605 0.606290
vt 0.311493 0.605731
vt 0.317371 0.604907
vt 0.317454 0.605715
vt 0.311811 0.607389
vt 0.311702 0.606829
vt 0.303937 0.606510
vt 0.305184 0.606025
vt 0.305247 0.606589
vt 0.303946 0.606577
vt 0.304755 0.601347
vt 0.306976 0.601428
vt 0.306945 0.602474
vt 0.304735 0.601940
vt 0.303369 0.601372
vt 0.303362 0.601478
vt 0.307514 0.606981
vt 0.307340 0.606465
vt 0.304410 0.596572
vt 0.307035 0.597439
vt 0.306791 0.598447
vt 0.304266 0.597142
vt 0.302684 0.596079
vt 0.302658 0.596166
vt 0.307053 0.603018
vt 0.305379 0.611632
vt 0.307545 0.609875
vt 0.307942 0.610821
vt 0.305620 0.612153
vt 0.304034 0.612917
vt 0.304065 0.612971
vt 0.321499 0.603315
vt 0.325616 0.603328
vt 0.307873 0.595959
vt 0.308099 0.595459
vt 0.305365 0.606868
vt 0.303957 0.606609
vt 0.307224 0.605436
vt 0.307282 0.604893
vt 0.305235 0.605726
vt 0.303937 0.606475
vt 0.304815 0.602248
vt 0.303371 0.601534
vt 0.307113 0.600895
vt 0.304858 0.601047
vt 0.303386 0.601320
vt 0.307304 0.596959
vt 0.304289 0.597457
vt 0.302656 0.596215
vt 0.306810 0.599000
vt 0.304580 0.596308
vt 0.302709 0.596039
vt 0.305964 0.593829
vt 0.305836 0.594110
vt 0.304612 0.592703
vt 0.304626 0.592674
vt 0.329190 0.604715
vt 0.328681 0.604661
vt 0.329019 0.604052
vt 0.329558 0.604101
vt 0.307474 0.609333
vt 0.305343 0.611327
vt 0.304023 0.612884
vt 0.312148 0.608390
vt 0.325143 0.605466
vt 0.321419 0.605582
vt 0.321395 0.605029
vt 0.325159 0.604934
vt 0.321480 0.602761
vt 0.325635 0.602804
vt 0.321444 0.602209
vt 0.325532 0.602280
vt 0.321435 0.601671
vt 0.325365 0.601782
vt 0.321489 0.601142
vt 0.325218 0.601284
vt 0.328409 0.606012
vt 0.328448 0.605311
vt 0.278595 0.685220
vt 0.278595 0.740275
vt 0.306018 0.743015
vt 0.306018 0.684500
vt 0.329300 0.603404
vt 0.329372 0.602691
vt 0.329188 0.601999
vt 0.328844 0.601371
vt 0.328504 0.600744
vt 0.317603 0.606492
vt 0.329872 0.603433
vt 0.329961 0.602689
vt 0.329775 0.601957
vt 0.329408 0.601297
vt 0.329039 0.600647
vt 0.328948 0.605371
vt 0.328924 0.606081
vt 0.341351 0.737424
vt 0.341351 0.728428
vt 0.412069 0.727929
vt 0.412069 0.736510
vt 0.465095 0.703045
vt 0.465095 0.660696
vt 0.482787 0.665650
vt 0.482787 0.709799
vt 0.447428 0.675255
vt 0.412069 0.673013
vt 0.412069 0.682064
vt 0.447428 0.684417
vt 0.278595 0.714062
vt 0.278595 0.668391
vt 0.306018 0.659395
vt 0.306018 0.701883
vt 0.509300 0.681926
vt 0.500454 0.682812
vt 0.500454 0.736538
vt 0.509300 0.732967
vt 0.412069 0.741077
vt 0.447428 0.743596
vt 0.267095 0.722587
vt 0.254684 0.729230
vt 0.254684 0.728455
vt 0.267095 0.720927
vt 0.278595 0.716608
vt 0.278595 0.737728
vt 0.278595 0.733023
vt 0.306018 0.730310
vt 0.306018 0.738752
vt 0.341351 0.699087
vt 0.323685 0.699641
vt 0.323685 0.657402
vt 0.341351 0.656848
vt 0.482787 0.742378
vt 0.465095 0.744316
vt 0.465095 0.739666
vt 0.482787 0.738531
vt 0.500454 0.725798
vt 0.500454 0.722919
vt 0.509300 0.729507
vt 0.509300 0.730116
vt 0.482787 0.684860
vt 0.465095 0.685220
vt 0.447428 0.738918
vt 0.278595 0.673096
vt 0.306018 0.666591
vt 0.267095 0.736482
vt 0.267095 0.738171
vt 0.254684 0.735790
vt 0.254684 0.735015
vt 0.323685 0.738199
vt 0.323685 0.742738
vt 0.341351 0.742018
vt 0.341351 0.682895
vt 0.323685 0.683670
vt 0.341351 0.664128
vt 0.412069 0.663657
vt 0.412069 0.656295
vt 0.509300 0.681123
vt 0.500454 0.679878
vt 0.509300 0.679379
vt 0.500454 0.674065
vt 0.500454 0.676805
vt 0.509300 0.680182
vt 0.465095 0.731057
vt 0.482787 0.731583
vt 0.278595 0.679850
vt 0.306018 0.675366
vt 0.267095 0.733521
vt 0.254684 0.733853
vt 0.254684 0.732137
vt 0.267095 0.729341
vt 0.267095 0.725383
vt 0.254684 0.730421
vt 0.278595 0.720954
vt 0.278595 0.726767
vt 0.323685 0.729120
vt 0.267095 0.681317
vt 0.267095 0.676750
vt 0.254684 0.680874
vt 0.254684 0.682729
vt 0.323685 0.673843
vt 0.323685 0.664681
vt 0.341351 0.673262
vt 0.465095 0.676279
vt 0.482787 0.677774
vt 0.482787 0.671408
vt 0.465095 0.668003
vt 0.500454 0.721065
vt 0.509300 0.728954
vt 0.447428 0.665623
vt 0.447428 0.700139
vt 0.412069 0.698506
vt 0.447428 0.658066
vt 0.509300 0.731002
vt 0.500454 0.728677
vt 0.500454 0.734628
vt 0.267095 0.673567
vt 0.447428 0.730227
vt 0.509300 0.731888
vt 0.500454 0.731666
vt 0.482787 0.724829
vt 0.482787 0.718878
vt 0.509300 0.732497
vt 0.482787 0.713149
vt 0.267095 0.684832
vt 0.254684 0.684223
vt 0.254684 0.679352
vn 0.0115 0.4233 0.9059
vn -0.2138 0.3325 0.9185
vn -0.1437 0.6534 0.7432
vn -0.1268 0.8082 0.5751
vn -0.1901 0.9512 0.2433
vn 0.0081 0.9437 0.3308
vn 0.5375 -0.2495 0.8055
vn 0.1955 -0.3380 0.9206
vn 0.2213 0.4624 0.8586
vn 0.4074 0.5563 0.7243
vn -0.0602 0.8982 -0.4355
vn -0.2177 0.9288 -0.3000
vn -0.2062 0.7426 -0.6372
vn -0.2234 0.5891 -0.7765
vn -0.3647 0.2525 -0.8962
vn -0.1592 0.3460 -0.9246
vn -0.2271 -0.3952 -0.8901
vn -0.4128 -0.2932 -0.8623
vn -0.3945 -0.6022 -0.6941
vn -0.3848 -0.7402 -0.5514
vn -0.4581 -0.8612 -0.2202
vn -0.2400 -0.9076 -0.3443
vn -0.2565 -0.5452 0.7981
vn -0.2735 -0.2145 0.9376
vn -0.0654 -0.3468 0.9357
vn -0.1699 -0.8955 0.4114
vn -0.4163 -0.8549 0.3096
vn -0.2979 -0.7100 0.6381
vn -0.8117 0.1414 0.5667
vn -0.7720 0.2059 0.6013
vn -0.8003 -0.0382 0.5984
vn -0.8218 0.0043 0.5698
vn -0.7747 0.6175 -0.1362
vn -0.5888 0.7872 -0.1834
vn -0.5570 0.8205 0.1285
vn -0.7541 0.6491 0.0995
vn -0.8008 0.5912 -0.0961
vn -0.7804 0.6223 0.0608
vn -0.5667 -0.2428 0.7873
vn -0.6189 -0.0851 0.7809
vn -0.8943 -0.0441 -0.4454
vn -0.7740 -0.0976 -0.6257
vn -0.7268 0.1627 -0.6673
vn -0.8640 0.1439 -0.4824
vn -0.9089 -0.0145 -0.4167
vn -0.8851 0.1131 -0.4514
vn -0.4463 0.8458 0.2924
vn -0.8972 -0.4238 0.1243
vn -0.7703 -0.6154 0.1669
vn -0.8024 -0.5878 -0.1031
vn -0.9162 -0.3944 -0.0713
vn -0.9234 -0.3777 0.0683
vn -0.9297 -0.3654 -0.0459
vn 0.0661 0.9595 0.2739
vn 0.0199 0.9792 0.2020
vn -0.7681 -0.5960 -0.2341
vn -0.7766 -0.1621 0.6087
vn -0.8135 -0.1021 0.5725
vn -0.5776 0.2358 0.7815
vn -0.4666 0.3931 0.7923
vn -0.7170 0.3281 0.6150
vn -0.7708 0.2627 0.5804
vn -0.7041 0.6744 0.2221
vn -0.7505 0.6371 0.1757
vn -0.5386 0.7744 -0.3318
vn -0.7502 0.6118 -0.2507
vn -0.7849 0.5814 -0.2140
vn -0.7455 -0.2314 -0.6250
vn -0.8182 0.2460 -0.5196
vn -0.8591 0.2046 -0.4692
vn -0.6172 0.3072 -0.7244
vn -0.8865 -0.1375 -0.4419
vn -0.9078 -0.1046 -0.4062
vn -0.9024 -0.3977 -0.1661
vn -0.9244 -0.3593 -0.1278
vn 0.6940 -0.0849 0.7150
vn 0.6924 -0.1768 0.6996
vn 0.4647 0.5928 0.6578
vn 0.3884 0.6852 0.6161
vn -0.6667 -0.6703 0.3260
vn -0.8585 -0.4565 0.2335
vn -0.8998 -0.4029 0.1671
vn -0.0283 -0.9506 -0.3090
vn -0.1786 -0.9287 -0.3251
vn 0.0204 -0.9110 0.4120
vn 0.3380 -0.8696 0.3600
vn -0.1426 0.8892 -0.4348
vn -0.3425 0.8499 -0.4004
vn -0.2824 0.3426 -0.8960
vn -0.4971 0.2891 -0.8181
vn -0.2966 -0.4016 -0.8665
vn -0.3656 -0.4582 -0.8102
vn 0.0886 -0.9560 -0.2796
vn 0.5179 -0.8008 0.3008
vn 0.0034 0.9990 0.0455
vn 0.0169 0.7560 0.6544
vn 0.0732 0.7535 0.6534
vn 0.0545 0.9979 0.0339
vn -0.0409 0.9787 0.2014
vn -0.4641 0.8142 -0.3489
vn -0.6240 0.2190 -0.7501
vn -0.3959 -0.5383 -0.7440
vn -0.1012 0.9809 0.1661
vn -0.4814 0.8144 -0.3239
vn -0.6502 0.2863 -0.7038
vn -0.4585 -0.4732 -0.7523
vn 0.0638 -0.9517 -0.3004
vn 0.5382 -0.7815 0.3156
vn 0.0415 0.3523 0.9350
vn 0.0271 0.2121 0.9769
vn -0.0136 0.2570 0.9663
vn -0.0021 0.3848 0.9230
vn 0.1755 -0.4606 -0.8701
vn 0.1999 -0.2167 -0.9556
vn 0.3682 -0.2020 -0.9075
vn 0.3736 -0.5881 -0.7173
vn 0.0446 0.8817 -0.4696
vn 0.0299 0.8733 -0.4862
vn 0.0364 0.9946 0.0971
vn 0.0266 0.9921 0.1223
vn -0.4359 -0.5222 -0.7330
vn -0.3550 -0.1044 -0.9290
vn -0.2157 -0.1247 -0.9685
vn -0.2311 -0.3875 -0.8924
vn 0.2356 0.9705 -0.0502
vn 0.3233 0.9453 0.0437
vn 0.2325 0.7283 0.6446
vn 0.2242 0.8101 0.5417
vn 0.0238 0.7541 0.6563
vn -0.0005 0.7541 0.6568
vn -0.4784 -0.8410 -0.2526
vn -0.4842 -0.8370 -0.2550
vn -0.4919 -0.6033 -0.6278
vn -0.4880 -0.6056 -0.6286
vn -0.4757 -0.8395 -0.2625
vn -0.0183 0.3468 0.9378
vn -0.1070 -0.0327 0.9937
vn 0.0139 0.1781 0.9839
vn 0.0343 0.3252 0.9450
vn -0.0511 -0.4378 -0.8976
vn -0.0976 -0.4186 -0.9029
vn -0.0856 -0.1585 -0.9836
vn -0.0377 -0.1774 -0.9834
vn 0.1543 0.7412 0.6533
vn 0.0596 0.7515 0.6571
vn 0.0479 0.3839 0.9221
vn 0.1385 0.3570 0.9238
vn 0.4594 -0.8676 0.1905
vn 0.4472 -0.8650 -0.2278
vn 0.3307 -0.9307 -0.1565
vn 0.4743 -0.7533 0.4555
vn 0.2251 0.9697 0.0948
vn 0.1177 0.9871 0.1088
vn -0.0207 0.3974 0.9174
vn -0.2394 0.4396 -0.8657
vn -0.1300 0.4295 -0.8937
vn -0.0543 0.3640 0.9298
vn -0.0199 0.7564 0.6538
vn -0.0243 0.7568 0.6532
vn -0.0550 0.3704 0.9273
vn 0.0517 0.3301 0.9425
vn 0.0922 0.7530 0.6515
vn 0.0794 0.7524 0.6539
vn 0.0794 0.9945 0.0683
vn 0.0822 0.9958 0.0412
vn 0.0005 0.4064 -0.9137
vn 0.0095 0.3898 -0.9208
vn -0.0075 -0.2025 -0.9793
vn 0.5007 0.7314 -0.4631
vn 0.4519 0.7665 -0.4563
vn 0.4930 0.0795 -0.8664
vn 0.5037 -0.1592 -0.8491
vn 0.5142 0.3427 -0.7862
vn 0.5294 0.4346 -0.7286
vn 0.0483 0.2704 0.9615
vn 0.2045 -0.0040 0.9789
vn -0.1046 0.8574 -0.5040
vn -0.0290 0.8528 -0.5215
vn -0.1712 -0.1400 0.9752
vn -0.1761 -0.1237 0.9766
vn -0.2991 -0.6168 0.7281
vn -0.3015 -0.6342 0.7120
vn -0.4327 -0.8746 0.2186
vn -0.4310 -0.8596 0.2747
vn -0.4337 -0.8819 0.1847
vn -0.3011 -0.6544 0.6936
vn 0.0302 0.1819 0.9829
vn -0.1466 0.8543 -0.4986
vn -0.2819 0.4465 -0.8492
vn -0.2802 0.4843 -0.8288
vn -0.1529 0.8563 -0.4933
vn 0.0275 0.8544 -0.5189
vn -0.0371 0.4141 -0.9095
vn 0.0453 0.8624 -0.5042
vn 0.1839 0.8633 -0.4700
vn 0.3369 0.8209 -0.4611
vn 0.3884 0.3469 -0.8537
vn 0.2151 0.3705 -0.9036
vn 0.4794 -0.6419 -0.5984
vn 0.5474 -0.6653 -0.5076
vn 0.0566 0.3799 -0.9233
vn 0.0514 -0.4672 -0.8827
vn -0.0181 -0.4546 -0.8905
vn 0.0575 -0.2172 -0.9744
vn 0.4574 -0.6083 0.6487
vn 0.4067 -0.6308 0.6608
vn 0.2367 0.3069 0.9218
vn -0.4067 -0.0929 -0.9088
vn -0.0270 0.2823 0.9589
vn 0.2609 -0.0643 0.9632
vn 0.3284 -0.1527 0.9321
vn 0.3455 -0.6728 0.6542
vn 0.3956 -0.9064 0.1484
vn 0.3338 -0.1078 0.9365
vn 0.4013 -0.8771 -0.2639
vn -0.0412 0.9974 0.0596
vn -0.0577 0.9949 0.0826
vn -0.4105 -0.0524 -0.9104
usemtl T_Frutas_2
s 1
f 2/1/1 83/2/2 84/3/3 86/4/4 85/5/5 3/6/6
f 41/7/7 42/8/8 44/9/9 43/10/10
f 4/11/11 87/12/12 88/13/13 90/14/14 89/15/15 5/16/16
f 6/17/17 91/18/18 92/19/19 94/20/20 93/21/21 7/22/22
f 82/23/23 81/24/24 1/25/25 8/26/26 95/27/27 96/28/28
f 2/1/1 1/25/25 81/24/24 83/2/2
f 14/29/29 13/30/30 9/31/31 12/32/32
f 21/33/33 71/34/34 69/35/35 17/36/36
f 22/37/37 21/33/33 17/36/36 20/38/38
f 66/39/39 65/40/40 81/24/24 82/23/23
f 29/41/41 75/42/42 73/43/43 25/44/44
f 30/45/45 29/41/41 25/44/44 28/46/46
f 86/4/4 70/47/47 69/35/35 85/5/5
f 75/42/42 91/18/18 89/15/15 73/43/43
f 37/48/48 79/49/49 77/50/50 33/51/51
f 38/52/52 37/48/48 33/51/51 36/53/53
f 43/10/10 44/9/9 46/54/54 45/55/55
f 94/20/20 78/56/56 77/57/50 93/21/21
f 9/31/31 10/58/57 11/59/58 12/32/32
f 65/40/40 66/39/39 10/58/57 9/31/31
f 83/2/2 67/60/59 68/61/60 84/3/3
f 67/60/59 13/30/30 16/62/61 68/61/60
f 13/30/30 14/29/29 15/63/62 16/62/61
f 83/2/2 81/24/24 65/40/40 67/60/59
f 17/36/36 18/64/63 19/65/64 20/38/38
f 69/35/35 70/47/47 18/64/63 17/36/36
f 87/12/12 71/34/34 72/66/65 88/13/13
f 71/34/34 21/33/33 24/67/66 72/66/65
f 21/33/33 22/37/37 23/68/67 24/67/66
f 87/12/12 85/5/5 69/35/35 71/34/34
f 91/18/18 75/42/42 76/69/68 92/19/19
f 25/44/44 26/70/69 27/71/70 28/46/46
f 89/15/15 90/14/14 74/72/71 73/43/43
f 73/43/43 74/72/71 26/70/69 25/44/44
f 75/42/42 29/41/41 32/73/72 76/69/68
f 29/41/41 30/45/45 31/74/73 32/73/72
f 33/75/51 34/76/74 35/77/75 36/78/53
f 77/57/50 78/56/56 34/76/74 33/75/51
f 103/79/76 57/80/77 58/81/78 97/82/79
f 95/27/27 79/49/49 80/83/80 96/28/28
f 79/49/49 37/48/48 40/84/81 80/83/80
f 37/48/48 38/52/52 39/85/82 40/84/81
f 95/27/27 93/86/21 77/50/50 79/49/49
f 53/87/83 54/88/84 56/89/85 55/90/86
f 45/55/55 46/54/54 48/91/87 47/92/88
f 47/92/88 48/91/87 50/93/89 49/94/90
f 49/94/90 50/93/89 52/95/91 51/96/92
f 51/96/92 52/95/91 54/97/84 53/98/83
f 55/90/86 56/89/85 42/8/8 41/7/7
f 57/80/77 41/7/7 43/10/10 58/81/78
f 2/1/1 44/9/9 42/8/8 1/25/25
f 63/99/93 53/87/83 55/90/86 64/100/94
f 162/101/95 118/102/96 119/103/97 177/104/98
f 58/81/78 43/10/10 45/55/55 59/105/99
f 3/6/6 46/54/54 44/9/9 2/1/1
f 59/105/99 45/55/55 47/92/88 60/106/100
f 4/11/11 48/91/87 46/54/54 3/6/6
f 60/106/100 47/92/88 49/94/90 61/107/101
f 5/16/16 50/93/89 48/91/87 4/11/11
f 61/107/101 49/94/90 51/96/92 62/108/102
f 6/17/17 52/95/91 50/93/89 5/16/16
f 62/108/102 51/96/92 53/98/83 63/109/93
f 7/22/22 54/97/84 52/95/91 6/17/17
f 64/100/94 55/90/86 41/7/7 57/80/77
f 8/26/26 56/89/85 54/88/84 7/110/22
f 1/25/25 42/8/8 56/89/85 8/26/26
f 13/30/30 67/60/59 65/40/40 9/31/31
f 87/12/12 4/11/11 3/6/6 85/5/5
f 91/18/18 6/17/17 5/16/16 89/15/15
f 95/27/27 8/26/26 7/110/22 93/86/21
f 59/105/99 98/111/103 97/82/79 58/81/78
f 60/106/100 99/112/104 98/111/103 59/105/99
f 61/107/101 100/113/105 99/112/104 60/106/100
f 62/108/102 101/114/106 100/113/105 61/107/101
f 63/109/93 102/115/107 101/114/106 62/108/102
f 64/100/94 104/116/108 102/117/107 63/99/93
f 104/116/108 64/100/94 57/80/77 103/79/76
f 165/118/109 216/119/110 212/120/111 158/121/112
f 107/122/113 185/123/114 144/124/115 190/125/116
f 186/126/117 188/127/118 189/128/119 187/129/120
f 110/130/121 149/131/122 151/132/123 111/133/124
f 153/134/125 154/135/126 114/136/127 113/137/128
f 189/128/119 196/138/129 195/139/130 187/129/120
f 204/140/131 205/141/132 109/142/133 108/143/134
f 150/144/135 204/140/131 108/143/134 110/130/121
f 161/145/136 173/146/137 215/147/138 163/148/139
f 112/149/140 193/150/141 179/151/142 152/152/143
f 194/153/144 115/154/145 207/155/146 155/156/147
f 210/157/148 143/158/149 142/159/150 218/160/151
f 115/154/145 194/153/144 184/161/152 156/162/153
f 115/154/145 195/139/130 157/163/154 207/155/146
f 151/132/123 149/131/122 131/164/155 132/165/156
f 159/166/157 116/167/158 117/168/159 160/169/160
f 116/167/158 159/166/157 161/145/136 118/102/96
f 163/148/139 208/170/161 197/171/162 119/103/97
f 120/172/163 180/173/164 164/174/165 197/171/162
f 152/152/143 134/175/166 202/176/167 146/177/168
f 153/134/125 136/178/169 139/179/170 154/135/126
f 181/180/171 182/181/172 138/182/173 137/183/174
f 155/156/147 207/155/146 169/184/175 209/185/176
f 195/139/130 196/138/129 158/121/112 157/163/154
f 165/118/109 158/121/112 196/138/129 120/172/163
f 132/165/156 131/164/155 130/186/177 133/187/178
f 213/188/179 214/189/180 124/190/181 123/191/182
f 170/192/183 123/191/182 124/190/181 171/193/184
f 123/191/182 170/192/183 172/194/185 125/195/186
f 173/146/137 213/188/179 123/191/182 125/195/186
f 161/145/136 163/148/139 119/103/97 118/102/96
f 165/118/109 208/170/161 174/196/187 216/119/110
f 128/197/188 126/198/189 127/199/190 129/200/191
f 126/198/189 128/197/188 130/186/177 131/164/155
f 199/201/192 178/202/193 132/165/156 133/187/178
f 134/175/166 178/202/193 199/201/192 135/203/194
f 135/203/194 180/173/164 189/128/119 188/127/118
f 140/204/195 183/205/196 200/206/197 141/207/198
f 142/159/150 143/158/149 106/208/199 105/209/200
f 201/210/201 186/126/117 140/204/195 141/207/198
f 189/128/119 180/173/164 120/172/163 196/138/129
f 191/211/202 192/212/203 146/177/168 145/213/204
f 210/157/148 218/160/151 121/214/205 122/215/206
f 114/136/127 194/153/144 155/156/147 206/216/207
f 185/123/114 107/122/113 191/211/202 145/213/204
f 108/143/134 147/217/208 149/131/122 110/130/121
f 179/151/142 193/150/141 111/133/124 151/132/123
f 158/121/112 212/120/111 211/218/209 157/163/154
f 166/219/210 167/220/211 122/215/206 121/214/205
f 207/155/146 157/163/154 211/218/209 169/184/175
f 167/220/211 209/185/176 198/221/212 122/215/206
f 122/215/206 198/221/212 168/222/213 210/157/148
f 187/129/120 195/139/130 115/154/145 156/162/153
f 214/189/180 213/188/179 159/166/157 160/169/160
f 213/188/179 173/146/137 161/145/136 159/166/157
f 177/104/98 119/103/97 197/171/162 164/174/165
f 208/170/161 165/118/109 120/172/163 197/171/162
f 206/216/207 217/223/214 113/137/128 114/136/127
f 143/158/149 203/224/215 190/125/116 106/208/199
f 183/205/196 139/179/170 138/182/173 200/206/197
f 205/141/132 204/140/131 170/192/183 171/193/184
f 204/140/131 150/144/135 172/194/185 170/192/183
f 175/225/216 128/197/188 129/200/191 176/226/217
f 128/197/188 175/225/216 162/101/95 130/186/177
f 137/183/174 138/182/173 139/179/170 136/178/169
f 164/174/165 199/201/192 133/187/178 177/104/98
f 134/175/166 152/152/143 179/151/142 178/202/193
f 151/132/123 132/165/156 178/202/193 179/151/142
f 135/203/194 199/201/192 164/174/165 180/173/164
f 146/177/168 202/176/167 201/210/201 145/213/204
f 140/204/195 156/162/153 184/161/152 183/205/196
f 141/207/198 200/206/197 144/124/115 185/123/114
f 106/208/199 190/125/116 144/124/115 182/181/172
f 145/213/204 201/210/201 141/207/198 185/123/114
f 202/176/167 134/175/166 135/203/194 188/127/118
f 156/162/153 140/204/195 186/126/117 187/129/120
f 112/149/140 152/152/143 146/177/168 192/212/203
f 194/153/144 114/136/127 154/135/126 184/161/152
f 108/143/134 109/142/133 148/227/218 147/217/208
f 130/186/177 162/101/95 177/104/98 133/187/178
f 208/170/161 163/148/139 215/147/138 174/196/187
f 200/206/197 138/182/173 182/181/172 144/124/115
f 143/158/149 210/157/148 168/222/213 203/224/215
f 167/220/211 206/216/207 155/156/147 209/185/176
f 175/225/216 116/167/158 118/102/96 162/101/95
f 176/226/217 117/168/159 116/167/158 175/225/216
f 147/217/208 126/198/189 131/164/155 149/131/122
f 148/227/218 127/199/190 126/198/189 147/217/208
f 202/176/167 188/127/118 186/126/117 201/210/201
f 181/180/171 105/209/200 106/208/199 182/181/172
f 206/216/207 167/220/211 166/219/210 217/223/214
f 154/135/126 139/179/170 183/205/196 184/161/152
