# Blender v2.80 (sub 75) OBJ File: 'Visualizacion - copia.blend'
# www.blender.org
mtllib Limon.mtl
o Limones.001_lemon(quads).001
v 4.896149 0.780207 -3.515769
v 4.895610 0.768785 -3.508515
v 4.894878 0.763694 -3.495428
v 4.894628 0.766795 -3.480851
v 4.894110 0.776962 -3.471089
v 4.893614 0.790409 -3.469836
v 4.893665 0.801943 -3.477665
v 4.893552 0.807105 -3.491628
v 4.894436 0.803953 -3.505774
v 4.895798 0.793677 -3.514746
v 4.909216 0.777417 -3.532302
v 4.908648 0.757321 -3.519387
v 4.907485 0.748439 -3.497082
v 4.907347 0.753850 -3.471486
v 4.907325 0.771691 -3.454064
v 4.907282 0.795539 -3.451577
v 4.907242 0.816298 -3.465286
v 4.907242 0.825683 -3.490445
v 4.908340 0.819964 -3.514962
v 4.909191 0.801421 -3.530747
v 4.925163 0.775213 -3.542906
v 4.925058 0.749269 -3.526689
v 4.924576 0.737652 -3.498066
v 4.924519 0.744754 -3.465588
v 4.924526 0.767881 -3.443036
v 4.924529 0.798212 -3.440377
v 4.924533 0.824915 -3.458062
v 4.924548 0.836909 -3.489893
v 4.924997 0.829823 -3.520342
v 4.925186 0.806630 -3.540488
v 4.942925 0.774173 -3.547328
v 4.942914 0.745856 -3.529660
v 4.942889 0.733169 -3.498403
v 4.942885 0.740921 -3.463027
v 4.942885 0.766163 -3.438395
v 4.942889 0.799263 -3.435532
v 4.942889 0.828324 -3.454941
v 4.942889 0.841374 -3.489841
v 4.942914 0.833641 -3.522721
v 4.942929 0.809002 -3.544689
v 4.961705 0.774208 -3.546891
v 4.961705 0.745961 -3.529568
v 4.961705 0.733285 -3.497626
v 4.961705 0.741018 -3.463010
v 4.961705 0.766210 -3.437436
v 4.961705 0.799236 -3.435346
v 4.961705 0.827506 -3.456080
v 4.961705 0.840193 -3.489845
v 4.961705 0.832461 -3.522643
v 4.961705 0.807950 -3.544461
v 4.979630 0.775435 -3.541421
v 4.979630 0.749954 -3.526097
v 4.979630 0.738517 -3.497138
v 4.979630 0.745494 -3.465946
v 4.979630 0.768216 -3.443831
v 4.979630 0.798009 -3.442116
v 4.979630 0.823489 -3.460273
v 4.979630 0.834926 -3.489919
v 4.979630 0.827950 -3.519849
v 4.979630 0.805247 -3.538921
v 4.994842 0.777745 -3.531904
v 4.994842 0.757477 -3.519556
v 4.994842 0.748381 -3.497112
v 4.994842 0.753932 -3.472496
v 4.994842 0.772003 -3.456711
v 4.994842 0.795699 -3.454837
v 4.994842 0.815967 -3.467548
v 4.994842 0.825063 -3.490709
v 4.994842 0.819512 -3.514591
v 4.994842 0.801441 -3.529677
v 5.007380 0.780825 -3.519324
v 5.007258 0.767479 -3.510960
v 5.007218 0.761488 -3.496173
v 5.007227 0.765141 -3.480603
v 5.007122 0.777085 -3.470209
v 5.007288 0.792703 -3.468956
v 5.007491 0.806049 -3.477319
v 5.007592 0.812040 -3.492106
v 5.007526 0.808387 -3.507670
v 5.007374 0.796470 -3.518064
v 5.015568 0.785460 -3.494139
v 5.015492 0.784535 -3.497794
v 4.887676 0.786720 -3.493416
v 5.015326 0.782450 -3.496581
v 5.015249 0.781516 -3.494435
v 5.015297 0.782084 -3.492172
v 5.015445 0.783946 -3.490665
v 5.015641 0.786385 -3.490484
v 5.015811 0.788469 -3.491698
v 5.015887 0.789408 -3.493843
v 5.015841 0.788835 -3.496101
v 5.015692 0.786977 -3.497613
v 5.017997 0.783080 -3.505372
v 5.017614 0.777099 -3.501640
v 5.017442 0.774417 -3.495044
v 5.017542 0.776059 -3.488105
v 5.017810 0.781464 -3.483466
v 5.018222 0.788455 -3.482907
v 5.018586 0.794437 -3.486639
v 5.018754 0.797119 -3.493235
v 5.018653 0.795482 -3.500173
v 5.018337 0.790138 -3.504812
v 5.011177 0.781922 -3.512888
v 5.010885 0.771992 -3.506661
v 5.010764 0.767531 -3.495654
v 5.010827 0.770258 -3.484065
v 5.010854 0.779258 -3.476321
v 5.011124 0.790883 -3.475385
v 5.011389 0.800813 -3.481612
v 5.011527 0.805274 -3.492626
v 5.011443 0.802553 -3.504215
v 5.011230 0.793661 -3.511953
v 4.891257 0.783559 -3.507341
v 4.887993 0.785298 -3.499988
v 4.890591 0.776593 -3.502896
v 4.887760 0.782089 -3.497806
v 4.890140 0.773464 -3.494608
v 4.887612 0.780643 -3.493946
v 4.890021 0.775369 -3.485779
v 4.887474 0.781520 -3.489884
v 4.889783 0.781586 -3.479896
v 4.887263 0.784388 -3.487172
v 4.889788 0.789707 -3.479242
v 4.887231 0.788143 -3.486844
v 4.890420 0.796572 -3.484022
v 4.887453 0.791353 -3.489026
v 4.890930 0.799614 -3.492320
v 4.887782 0.792798 -3.492886
v 4.891262 0.797760 -3.501003
v 4.888046 0.791910 -3.496948
v 4.891597 0.791662 -3.506622
v 4.888152 0.789054 -3.499660
vt 0.377368 0.311492
vt 0.378797 0.308017
vt 0.390309 0.310391
vt 0.386225 0.317784
vt 0.374941 0.314211
vt 0.380658 0.322605
vt 0.371461 0.315430
vt 0.374358 0.325457
vt 0.367700 0.315657
vt 0.367485 0.326556
vt 0.363940 0.314752
vt 0.360495 0.325327
vt 0.360584 0.312753
vt 0.353927 0.322295
vt 0.357475 0.310229
vt 0.348039 0.316948
vt 0.297526 0.351028
vt 0.307379 0.332411
vt 0.326140 0.343915
vt 0.321112 0.357578
vt 0.318383 0.299762
vt 0.343087 0.298393
vt 0.343854 0.309163
vt 0.325188 0.316762
vt 0.335770 0.327610
vt 0.407724 0.317507
vt 0.391083 0.300101
vt 0.414574 0.300628
vt 0.397800 0.327647
vt 0.387484 0.333503
vt 0.377266 0.336651
vt 0.367117 0.337363
vt 0.357281 0.336390
vt 0.346930 0.333767
vt 0.287642 0.310170
vt 0.356096 0.306543
vt 0.424151 0.331831
vt 0.444698 0.308360
vt 0.407567 0.342959
vt 0.393100 0.348922
vt 0.380037 0.351987
vt 0.367438 0.353004
vt 0.355381 0.352597
vt 0.341928 0.349836
vt 0.292923 0.369343
vt 0.254174 0.366227
vt 0.262610 0.334826
vt 0.319148 0.384617
vt 0.293668 0.388356
vt 0.318842 0.370856
vt 0.478011 0.359230
vt 0.440790 0.365705
vt 0.435298 0.348189
vt 0.467792 0.331689
vt 0.415093 0.368943
vt 0.412798 0.356449
vt 0.397008 0.370540
vt 0.395809 0.360408
vt 0.381525 0.371402
vt 0.381040 0.362503
vt 0.367411 0.371945
vt 0.367430 0.363359
vt 0.354628 0.372180
vt 0.354819 0.363298
vt 0.339717 0.371815
vt 0.340208 0.361473
vt 0.256998 0.396470
vt 0.322469 0.398016
vt 0.299928 0.406309
vt 0.479212 0.389102
vt 0.440764 0.383954
vt 0.414757 0.381187
vt 0.397128 0.380501
vt 0.381678 0.380293
vt 0.367539 0.380341
vt 0.354477 0.381012
vt 0.339449 0.382232
vt 0.268834 0.423649
vt 0.328291 0.410428
vt 0.310816 0.421907
vt 0.468918 0.418651
vt 0.435524 0.401459
vt 0.413122 0.393785
vt 0.396067 0.390702
vt 0.381235 0.389397
vt 0.367898 0.389049
vt 0.355106 0.390152
vt 0.340738 0.392939
vt 0.291002 0.443758
vt 0.333079 0.453555
vt 0.336553 0.438880
vt 0.446936 0.439472
vt 0.426668 0.417993
vt 0.408907 0.407852
vt 0.393570 0.401974
vt 0.380327 0.398967
vt 0.368188 0.398452
vt 0.356361 0.399778
vt 0.343655 0.403691
vt 0.401779 0.438018
vt 0.405856 0.452584
vt 0.367024 0.455426
vt 0.365877 0.453551
vt 0.368882 0.452485
vt 0.394293 0.427979
vt 0.385457 0.421230
vt 0.376604 0.417907
vt 0.368499 0.417041
vt 0.360541 0.418120
vt 0.352252 0.421799
vt 0.343713 0.428406
vt 0.350235 0.443228
vt 0.350356 0.450912
vt 0.343131 0.452615
vt 0.344121 0.441609
vt 0.368880 0.456181
vt 0.380478 0.447720
vt 0.380688 0.444211
vt 0.388108 0.442837
vt 0.388151 0.450591
vt 0.370737 0.455521
vt 0.379128 0.440844
vt 0.384786 0.436578
vt 0.371888 0.453704
vt 0.376042 0.438369
vt 0.379817 0.432167
vt 0.370741 0.449542
vt 0.371888 0.451417
vt 0.372454 0.436868
vt 0.374274 0.429576
vt 0.368885 0.448790
vt 0.368882 0.436569
vt 0.368767 0.428842
vt 0.367024 0.449447
vt 0.365400 0.436862
vt 0.363362 0.429652
vt 0.365877 0.451267
vt 0.361971 0.438411
vt 0.358057 0.432351
vt 0.359020 0.440976
vt 0.353319 0.436925
vt 0.357564 0.444399
vt 0.357797 0.447891
vt 0.348850 0.433045
vt 0.356151 0.302275
vt 0.394230 0.441071
vt 0.395575 0.452125
vt 0.389213 0.432562
vt 0.382473 0.426885
vt 0.375422 0.423732
vt 0.368630 0.422863
vt 0.361965 0.423863
vt 0.355254 0.427189
vt 0.378606 0.304131
vt 0.367837 0.282351
vt 0.366487 0.280493
vt 0.370021 0.279331
vt 0.370013 0.275614
vt 0.372204 0.276314
vt 0.367832 0.276332
vt 0.366487 0.278195
vt 0.370020 0.283049
vt 0.372209 0.282332
vt 0.373560 0.280463
vt 0.373560 0.278165
vn -0.9866 -0.0874 0.1381
vn -0.9823 -0.1789 0.0547
vn -0.9230 -0.3467 0.1668
vn -0.9333 -0.1649 0.3191
vn -0.9852 0.0807 0.1510
vn -0.9360 0.1126 0.3335
vn -0.9732 0.2181 0.0731
vn -0.9255 0.3225 0.1987
vn -0.9634 0.2643 -0.0441
vn -0.9230 0.3846 -0.0118
vn -0.9613 0.2179 -0.1688
vn -0.9168 0.3176 -0.2420
vn -0.9587 0.1201 -0.2579
vn -0.9003 0.1555 -0.4066
vn -0.9637 -0.0107 -0.2668
vn -0.8968 -0.0654 -0.4376
vn -0.3898 -0.7021 -0.5959
vn -0.6538 -0.5710 -0.4965
vn -0.6639 -0.1786 -0.7262
vn -0.3969 -0.2181 -0.8916
vn -0.8319 -0.5506 -0.0693
vn -0.9185 -0.3907 -0.0612
vn -0.9083 -0.2853 -0.3059
vn -0.8260 -0.4156 -0.3809
vn -0.8277 -0.1354 -0.5447
vn -0.8370 -0.4888 0.2459
vn -0.8534 -0.2447 0.4603
vn -0.8657 0.1097 0.4885
vn -0.8635 0.3971 0.3109
vn -0.8682 0.4962 0.0104
vn -0.8560 0.4125 -0.3114
vn -0.8354 0.1745 -0.5212
vn -0.6489 -0.7568 -0.0785
vn -0.9753 -0.1369 -0.1731
vn -0.6502 -0.6668 0.3642
vn -0.6704 -0.3175 0.6706
vn -0.6790 0.1774 0.7124
vn -0.6726 0.5790 0.4608
vn -0.6739 0.7379 0.0375
vn -0.6741 0.6190 -0.4031
vn -0.6699 0.2674 -0.6926
vn -0.1128 -0.7599 -0.6401
vn -0.1139 -0.9897 -0.0869
vn -0.3829 -0.9201 -0.0829
vn 0.1550 -0.2321 -0.9602
vn 0.1484 -0.7562 -0.6373
vn -0.1137 -0.2359 -0.9651
vn -0.1234 -0.8678 0.4813
vn -0.3839 -0.8076 0.4476
vn -0.1390 -0.4131 0.9000
vn -0.4001 -0.3818 0.8331
vn -0.1255 0.2545 0.9589
vn -0.4020 0.2256 0.8874
vn -0.0945 0.7812 0.6171
vn -0.3895 0.7219 0.5720
vn -0.0857 0.9944 0.0622
vn -0.3883 0.9198 0.0568
vn -0.0949 0.8558 -0.5085
vn -0.3985 0.7841 -0.4758
vn -0.1068 0.3943 -0.9128
vn -0.4014 0.3517 -0.8457
vn 0.1422 -0.9869 -0.0757
vn 0.4164 -0.2091 -0.8848
vn 0.4092 -0.6968 -0.5890
vn 0.1429 -0.8657 0.4798
vn 0.1556 -0.4022 0.9022
vn 0.1736 0.2626 0.9492
vn 0.1771 0.7778 0.6030
vn 0.1716 0.9831 0.0631
vn 0.1737 0.8432 -0.5088
vn 0.1680 0.3779 -0.9105
vn 0.4079 -0.9104 -0.0689
vn 0.6254 -0.1767 -0.7600
vn 0.6281 -0.5943 -0.5024
vn 0.4342 -0.7858 0.4404
vn 0.4845 -0.3544 0.7998
vn 0.4879 0.2397 0.8393
vn 0.4388 0.7100 0.5508
vn 0.4099 0.9099 0.0643
vn 0.4158 0.7772 -0.4723
vn 0.4223 0.3478 -0.8371
vn 0.6308 -0.7731 -0.0656
vn 0.7893 -0.6120 -0.0489
vn 0.7881 -0.4716 -0.3956
vn 0.6570 -0.6542 0.3748
vn 0.6945 -0.2911 0.6579
vn 0.6916 0.1872 0.6976
vn 0.6520 0.5905 0.4756
vn 0.6271 0.7769 0.0568
vn 0.6253 0.6651 -0.4082
vn 0.6246 0.2999 -0.7211
vn 0.7984 -0.5181 0.3070
vn 0.9732 -0.2000 -0.1133
vn 0.9790 -0.1093 -0.1719
vn 0.9967 -0.0813 -0.0012
vn 0.8066 -0.2320 0.5437
vn 0.8068 0.1369 0.5748
vn 0.7973 0.4639 0.3861
vn 0.7878 0.6143 0.0447
vn 0.7863 0.5264 -0.3234
vn 0.7843 0.2380 -0.5729
vn 0.7872 -0.1428 -0.5999
vn 0.9464 -0.2694 -0.1779
vn 0.9450 -0.3264 -0.0205
vn 0.8055 -0.5910 -0.0433
vn 0.8096 -0.4579 -0.3673
vn 0.9701 -0.2424 -0.0142
vn 0.9893 0.1448 0.0155
vn 0.9880 0.1120 -0.1063
vn 0.9456 -0.2889 0.1494
vn 0.9715 -0.2187 0.0915
vn 0.9844 0.0095 -0.1756
vn 0.9474 -0.1607 0.2768
vn 0.9771 -0.1334 0.1659
vn 0.9531 0.0261 0.3016
vn 0.9874 0.0865 0.1324
vn 0.9827 -0.0202 0.1841
vn 0.9591 0.1967 0.2035
vn 0.9618 0.2726 0.0240
vn 0.9603 0.2253 -0.1648
vn 0.9553 0.0759 -0.2857
vn 0.9513 -0.1186 -0.2846
vn 0.8173 -0.1490 -0.5567
vn -0.9798 -0.1946 -0.0456
vn 0.8094 -0.5036 0.3022
vn 0.8140 -0.2323 0.5324
vn 0.8197 0.1194 0.5603
vn 0.8222 0.4277 0.3755
vn 0.8221 0.5676 0.0453
vn 0.8224 0.4821 -0.3021
vn 0.8205 0.2110 -0.5312
vn -0.9982 0.0188 -0.0570
usemtl T_Frutas_1
s 1
f 122/1/1 120/2/2 119/3/3 121/4/4
f 124/5/5 122/1/1 121/4/4 123/6/6
f 126/7/7 124/5/5 123/6/6 125/8/8
f 128/9/9 126/7/7 125/8/8 127/10/10
f 130/11/11 128/9/9 127/10/10 129/12/12
f 132/13/13 130/11/11 129/12/12 131/14/14
f 114/15/15 132/13/13 131/14/14 113/16/16
f 22/17/17 12/18/18 11/19/19 21/20/20
f 3/21/21 117/22/22 115/23/23 2/24/24
f 12/18/18 2/24/24 1/25/25 11/19/19
f 4/26/26 119/3/3 117/27/22 3/28/21
f 5/29/27 121/4/4 119/3/3 4/26/26
f 6/30/28 123/6/6 121/4/4 5/29/27
f 7/31/29 125/8/8 123/6/6 6/30/28
f 8/32/30 127/10/10 125/8/8 7/31/29
f 9/33/31 129/12/12 127/10/10 8/32/30
f 10/34/32 131/14/14 129/12/12 9/33/31
f 1/25/25 113/16/16 131/14/14 10/34/32
f 13/35/33 3/21/21 2/24/24 12/18/18
f 115/23/23 116/36/34 114/15/15 113/16/16
f 14/37/35 4/26/26 3/28/21 13/38/33
f 15/39/36 5/29/27 4/26/26 14/37/35
f 16/40/37 6/30/28 5/29/27 15/39/36
f 17/41/38 7/31/29 6/30/28 16/40/37
f 18/42/39 8/32/30 7/31/29 17/41/38
f 19/43/40 9/33/31 8/32/30 18/42/39
f 20/44/41 10/34/32 9/33/31 19/43/40
f 11/19/19 1/25/25 10/34/32 20/44/41
f 32/45/42 33/46/43 23/47/44 22/17/17
f 23/47/44 13/35/33 12/18/18 22/17/17
f 41/48/45 42/49/46 32/45/42 31/50/47
f 33/51/43 34/52/48 24/53/49 23/54/44
f 24/53/49 14/37/35 13/38/33 23/54/44
f 34/52/48 35/55/50 25/56/51 24/53/49
f 25/56/51 15/39/36 14/37/35 24/53/49
f 35/55/50 36/57/52 26/58/53 25/56/51
f 26/58/53 16/40/37 15/39/36 25/56/51
f 36/57/52 37/59/54 27/60/55 26/58/53
f 27/60/55 17/41/38 16/40/37 26/58/53
f 37/59/54 38/61/56 28/62/57 27/60/55
f 28/62/57 18/42/39 17/41/38 27/60/55
f 38/61/56 39/63/58 29/64/59 28/62/57
f 29/64/59 19/43/40 18/42/39 28/62/57
f 39/63/58 40/65/60 30/66/61 29/64/59
f 30/66/61 20/44/41 19/43/40 29/64/59
f 31/50/47 21/20/20 30/66/61 40/65/60
f 21/20/20 11/19/19 20/44/41 30/66/61
f 42/49/46 43/67/62 33/46/43 32/45/42
f 51/68/63 52/69/64 42/49/46 41/48/45
f 43/70/62 44/71/65 34/52/48 33/51/43
f 44/71/65 45/72/66 35/55/50 34/52/48
f 45/72/66 46/73/67 36/57/52 35/55/50
f 46/73/67 47/74/68 37/59/54 36/57/52
f 47/74/68 48/75/69 38/61/56 37/59/54
f 48/75/69 49/76/70 39/63/58 38/61/56
f 49/76/70 50/77/71 40/65/60 39/63/58
f 41/48/45 31/50/47 40/65/60 50/77/71
f 52/69/64 53/78/72 43/67/62 42/49/46
f 61/79/73 62/80/74 52/69/64 51/68/63
f 53/81/72 54/82/75 44/71/65 43/70/62
f 54/82/75 55/83/76 45/72/66 44/71/65
f 55/83/76 56/84/77 46/73/67 45/72/66
f 56/84/77 57/85/78 47/74/68 46/73/67
f 57/85/78 58/86/79 48/75/69 47/74/68
f 58/86/79 59/87/80 49/76/70 48/75/69
f 59/87/80 60/88/81 50/77/71 49/76/70
f 51/68/63 41/48/45 50/77/71 60/88/81
f 62/80/74 63/89/82 53/78/72 52/69/64
f 73/90/83 63/89/82 62/80/74 72/91/84
f 63/92/82 64/93/85 54/82/75 53/81/72
f 64/93/85 65/94/86 55/83/76 54/82/75
f 65/94/86 66/95/87 56/84/77 55/83/76
f 66/95/87 67/96/88 57/85/78 56/84/77
f 67/96/88 68/97/89 58/86/79 57/85/78
f 68/97/89 69/98/90 59/87/80 58/86/79
f 69/98/90 70/99/91 60/88/81 59/87/80
f 61/79/73 51/68/63 60/88/81 70/99/91
f 74/100/92 64/93/85 63/92/82 73/101/83
f 89/102/93 88/103/94 81/104/95
f 75/105/96 65/94/86 64/93/85 74/100/92
f 76/106/97 66/95/87 65/94/86 75/105/96
f 77/107/98 67/96/88 66/95/87 76/106/97
f 78/108/99 68/97/89 67/96/88 77/107/98
f 79/109/100 69/98/90 68/97/89 78/108/99
f 80/110/101 70/99/91 69/98/90 79/109/100
f 71/111/102 61/79/73 70/99/91 80/110/101
f 94/112/103 95/113/104 105/114/105 104/115/106
f 90/116/107 89/102/93 81/104/95
f 85/117/108 86/118/109 96/119/110 95/120/104
f 91/121/111 90/116/107 81/104/95
f 86/118/109 87/122/112 97/123/113 96/119/110
f 92/124/114 91/121/111 81/104/95
f 87/122/112 88/125/94 98/126/115 97/123/113
f 84/127/116 82/128/117 81/104/95
f 88/125/94 89/129/93 99/130/118 98/126/115
f 85/131/108 84/127/116 81/104/95
f 89/129/93 90/132/107 100/133/119 99/130/118
f 86/134/109 85/131/108 81/104/95
f 90/132/107 91/135/111 101/136/120 100/133/119
f 87/137/112 86/134/109 81/104/95
f 91/135/111 92/138/114 102/139/121 101/136/120
f 82/128/117 92/124/114 81/104/95
f 92/138/114 82/140/117 93/141/122 102/139/121
f 82/140/117 84/142/116 94/112/103 93/141/122
f 84/142/116 85/143/108 95/113/104 94/112/103
f 93/141/122 94/112/103 104/115/106 103/144/123
f 118/145/124 116/36/34 115/23/23 117/22/22
f 103/144/123 104/115/106 72/91/84 71/111/102
f 2/24/24 115/23/23 113/16/16 1/25/25
f 95/120/104 96/119/110 106/146/125 105/147/105
f 96/119/110 97/123/113 107/148/126 106/146/125
f 97/123/113 98/126/115 108/149/127 107/148/126
f 98/126/115 99/130/118 109/150/128 108/149/127
f 99/130/118 100/133/119 110/151/129 109/150/128
f 100/133/119 101/136/120 111/152/130 110/151/129
f 101/136/120 102/139/121 112/153/131 111/152/130
f 102/139/121 93/141/122 103/144/123 112/153/131
f 104/115/106 105/114/105 73/90/83 72/91/84
f 105/147/105 106/146/125 74/100/92 73/101/83
f 106/146/125 107/148/126 75/105/96 74/100/92
f 107/148/126 108/149/127 76/106/97 75/105/96
f 108/149/127 109/150/128 77/107/98 76/106/97
f 109/150/128 110/151/129 78/108/99 77/107/98
f 110/151/129 111/152/130 79/109/100 78/108/99
f 111/152/130 112/153/131 80/110/101 79/109/100
f 112/153/131 103/144/123 71/111/102 80/110/101
f 120/2/2 118/154/124 117/27/22 119/3/3
f 31/50/47 32/45/42 22/17/17 21/20/20
f 88/103/94 87/137/112 81/104/95
f 72/91/84 62/80/74 61/79/73 71/111/102
f 132/155/13 114/156/15 83/157/132
f 120/158/2 122/159/1 83/157/132
f 118/160/124 120/158/2 83/157/132
f 116/161/34 118/160/124 83/157/132
f 114/156/15 116/161/34 83/157/132
f 130/162/11 132/155/13 83/157/132
f 128/163/9 130/162/11 83/157/132
f 126/164/7 128/163/9 83/157/132
f 124/165/5 126/164/7 83/157/132
f 122/159/1 124/165/5 83/157/132
