# Blender v2.80 (sub 75) OBJ File: 'Visualizacion - copia.blend'
# www.blender.org
mtllib Lulo.mtl
o Lulos.001_kiwi(quads).000
v 7.883586 0.790098 -3.759871
v 7.893859 0.789667 -3.793688
v 7.891520 0.820949 -3.760448
v 7.899256 0.815062 -3.794186
v 7.915140 0.843132 -3.760452
v 7.919523 0.834613 -3.794265
v 7.946568 0.853500 -3.759871
v 7.947544 0.843615 -3.793880
v 7.978312 0.844645 -3.759067
v 7.973592 0.835907 -3.793492
v 8.000905 0.821667 -3.757984
v 7.992815 0.815188 -3.792648
v 8.008140 0.792253 -3.757337
v 8.000066 0.788733 -3.791718
v 7.998339 0.759725 -3.756835
v 7.993384 0.762336 -3.790962
v 7.973685 0.737474 -3.756477
v 7.972373 0.742892 -3.790359
v 7.941296 0.730436 -3.756878
v 7.943879 0.736520 -3.790831
v 7.912136 0.739644 -3.757805
v 7.919045 0.744674 -3.791823
v 7.892291 0.760851 -3.758879
v 7.901594 0.763869 -3.792828
v 7.942493 0.786725 -3.827873
v 7.940450 0.786797 -3.827668
v 7.944288 0.786708 -3.827995
v 7.943043 0.789560 -3.828398
v 7.941233 0.790720 -3.828375
v 7.944646 0.788606 -3.828349
v 7.945145 0.791643 -3.828830
v 7.944118 0.793535 -3.828991
v 7.946067 0.790016 -3.828633
v 7.948333 0.792209 -3.828834
v 7.948437 0.794302 -3.829009
v 7.948232 0.790402 -3.828629
v 7.951401 0.791374 -3.828371
v 7.952649 0.793182 -3.828345
v 7.950289 0.789836 -3.828332
v 7.953318 0.789658 -3.827821
v 7.955348 0.790781 -3.827572
v 7.951559 0.788699 -3.827965
v 7.953853 0.787267 -3.827362
v 7.956095 0.787407 -3.826942
v 7.951916 0.787121 -3.827659
v 7.952965 0.784363 -3.827191
v 7.954852 0.783411 -3.826728
v 7.951325 0.785168 -3.827532
v 7.950788 0.781936 -3.827239
v 7.951888 0.780114 -3.826820
v 7.949852 0.783524 -3.827559
v 7.947852 0.781123 -3.827357
v 7.947899 0.778989 -3.826995
v 7.947863 0.782981 -3.827633
v 7.945080 0.782109 -3.827449
v 7.944080 0.780317 -3.827122
v 7.946003 0.783647 -3.827694
v 7.943239 0.784131 -3.827559
v 7.941482 0.783134 -3.827249
v 7.944785 0.784993 -3.827777
v 7.906736 0.788796 -3.812604
v 7.910373 0.808910 -3.813028
v 7.926617 0.824597 -3.813325
v 7.949240 0.831077 -3.812880
v 7.968804 0.824445 -3.812255
v 7.983260 0.807940 -3.811512
v 7.989563 0.786921 -3.810700
v 7.985623 0.766612 -3.810040
v 7.969387 0.750851 -3.810035
v 7.946852 0.745105 -3.810276
v 7.927361 0.751859 -3.811054
v 7.912885 0.767781 -3.811932
v 7.912764 0.788475 -3.818707
v 7.915974 0.806162 -3.819205
v 7.929959 0.819678 -3.819804
v 7.949421 0.824853 -3.819428
v 7.966270 0.819028 -3.818502
v 7.978713 0.804730 -3.817646
v 7.984267 0.786394 -3.816916
v 7.980849 0.768672 -3.816379
v 7.967244 0.755018 -3.816457
v 7.948349 0.749984 -3.816684
v 7.931130 0.755873 -3.817336
v 7.918031 0.769888 -3.818100
v 7.883420 0.790642 -3.726823
v 7.892179 0.820545 -3.727404
v 7.915792 0.842614 -3.727382
v 7.946280 0.852579 -3.725914
v 7.976967 0.843957 -3.724389
v 7.998964 0.822142 -3.723228
v 8.005843 0.794003 -3.724468
v 7.995817 0.763425 -3.724870
v 7.971688 0.741066 -3.725193
v 7.940403 0.733214 -3.724416
v 7.911592 0.741530 -3.724800
v 7.891834 0.762170 -3.725857
v 7.927840 0.793062 -3.681956
v 7.932952 0.793287 -3.679167
v 7.910888 0.792512 -3.689288
v 7.930317 0.800386 -3.682118
v 7.934614 0.798146 -3.679258
v 7.916079 0.808243 -3.689707
v 7.936328 0.805931 -3.682157
v 7.938648 0.801861 -3.679262
v 7.928871 0.820077 -3.690126
v 7.944242 0.808174 -3.682008
v 7.943978 0.803379 -3.679175
v 7.945024 0.824345 -3.689445
v 7.952072 0.806591 -3.681755
v 7.949155 0.802318 -3.679018
v 7.961329 0.820321 -3.688733
v 7.958250 0.801915 -3.681475
v 7.952937 0.799100 -3.678839
v 7.974007 0.810263 -3.688134
v 7.960102 0.794863 -3.681248
v 7.954091 0.794433 -3.678686
v 7.977936 0.795658 -3.687628
v 7.956863 0.787157 -3.681152
v 7.952218 0.789465 -3.678603
v 7.971547 0.779697 -3.687571
v 7.950604 0.781472 -3.681152
v 7.948106 0.785718 -3.678594
v 7.959375 0.767426 -3.687986
v 7.942678 0.779217 -3.681248
v 7.942780 0.784194 -3.678677
v 7.942751 0.762502 -3.687912
v 7.934965 0.780852 -3.681449
v 7.937640 0.785275 -3.678830
v 7.926220 0.766071 -3.688196
v 7.929546 0.785923 -3.681715
v 7.934063 0.788598 -3.679009
v 7.914845 0.777193 -3.688768
v 7.894214 0.791941 -3.702472
v 7.901824 0.816038 -3.703079
v 7.921342 0.834257 -3.703691
v 7.945581 0.841058 -3.702109
v 7.969948 0.833946 -3.700711
v 7.987468 0.817079 -3.699781
v 7.993167 0.794782 -3.700113
v 7.985348 0.771384 -3.700441
v 7.967548 0.752705 -3.701345
v 7.942306 0.745359 -3.700580
v 7.917641 0.751317 -3.700782
v 7.900878 0.768539 -3.701677
v 7.924711 0.788251 -3.823102
v 7.927742 0.800804 -3.824600
v 7.936498 0.808916 -3.826208
v 7.948494 0.811415 -3.826204
v 7.960822 0.808163 -3.824334
v 7.970180 0.799338 -3.822381
v 7.973115 0.786953 -3.821560
v 7.969428 0.774630 -3.821298
v 7.961060 0.765573 -3.821285
v 7.949617 0.762258 -3.821495
v 7.937500 0.765910 -3.821901
v 7.928072 0.775233 -3.822381
v 7.935071 0.787692 -3.824506
v 7.936779 0.794724 -3.825620
v 7.941728 0.799222 -3.826874
v 7.948646 0.800520 -3.826962
v 7.955868 0.798828 -3.825568
v 7.961192 0.794167 -3.824081
v 7.962622 0.787437 -3.823240
v 7.960271 0.780447 -3.823056
v 7.955415 0.775161 -3.823232
v 7.948901 0.773181 -3.823516
v 7.942153 0.775224 -3.823753
v 7.936985 0.780441 -3.823917
v 7.935296 0.793381 -3.678349
v 7.937601 0.793514 -3.678083
v 7.936138 0.789822 -3.678232
v 7.938202 0.790982 -3.678000
v 7.938863 0.787292 -3.678092
v 7.940137 0.789184 -3.677900
v 7.942827 0.786467 -3.677970
v 7.942963 0.788603 -3.677812
v 7.946973 0.787652 -3.677895
v 7.945920 0.789446 -3.677760
v 7.950130 0.790542 -3.677904
v 7.948166 0.791505 -3.677764
v 7.943344 0.793839 -3.677948
v 7.951464 0.794304 -3.677978
v 7.949107 0.794177 -3.677817
v 7.950612 0.797858 -3.678096
v 7.948503 0.796701 -3.677904
v 7.947840 0.800365 -3.678232
v 7.946541 0.798485 -3.678000
v 7.943866 0.801184 -3.678345
v 7.943712 0.799072 -3.678079
v 7.939720 0.799998 -3.678411
v 7.940756 0.798228 -3.678127
v 7.936577 0.797117 -3.678415
v 7.938519 0.796174 -3.678131
v 7.948069 0.786809 -3.827980
vt 0.158052 0.364731
vt 0.167095 0.366070
vt 0.165403 0.379213
vt 0.155662 0.377738
vt 0.184774 0.366128
vt 0.194865 0.364576
vt 0.195476 0.383175
vt 0.184468 0.382045
vt 0.153379 0.389946
vt 0.163404 0.391552
vt 0.174868 0.380731
vt 0.172734 0.393436
vt 0.148602 0.363135
vt 0.145729 0.376188
vt 0.143411 0.388650
vt 0.140128 0.360807
vt 0.135956 0.374398
vt 0.133642 0.387716
vt 0.131152 0.357367
vt 0.126082 0.372431
vt 0.124070 0.386943
vt 0.121854 0.352562
vt 0.115616 0.369583
vt 0.113986 0.385755
vt 0.111027 0.345045
vt 0.100091 0.364951
vt 0.098353 0.386254
vt 0.096675 0.332345
vt 0.079838 0.358707
vt 0.075899 0.388257
vt 0.207350 0.360923
vt 0.225777 0.351989
vt 0.234286 0.384583
vt 0.210336 0.384159
vt 0.204709 0.405506
vt 0.226836 0.416819
vt 0.191313 0.399740
vt 0.175426 0.366607
vt 0.181670 0.396105
vt 0.183374 0.355409
vt 0.174958 0.356689
vt 0.082711 0.443561
vt 0.082813 0.446476
vt 0.080792 0.446104
vt 0.080715 0.444178
vt 0.085007 0.442819
vt 0.085106 0.446944
vt 0.083104 0.451001
vt 0.081377 0.449394
vt 0.079850 0.448065
vt 0.079055 0.453277
vt 0.078445 0.451144
vt 0.077874 0.449273
vt 0.074154 0.453257
vt 0.074800 0.451111
vt 0.075381 0.449245
vt 0.069694 0.451241
vt 0.071576 0.449591
vt 0.073224 0.448202
vt 0.067157 0.448084
vt 0.069802 0.447324
vt 0.072067 0.446688
vt 0.067093 0.444190
vt 0.069785 0.444588
vt 0.072068 0.444894
vt 0.069687 0.440157
vt 0.071623 0.441679
vt 0.073285 0.442945
vt 0.074072 0.437408
vt 0.074807 0.439638
vt 0.075425 0.441554
vt 0.078883 0.437141
vt 0.078338 0.439448
vt 0.077810 0.441425
vt 0.082803 0.439325
vt 0.081181 0.441058
vt 0.079714 0.442511
vt 0.167438 0.356891
vt 0.159140 0.355701
vt 0.143353 0.351878
vt 0.150515 0.354222
vt 0.135923 0.348004
vt 0.128273 0.342775
vt 0.120943 0.335458
vt 0.113448 0.321701
vt 0.201648 0.347511
vt 0.213003 0.336159
vt 0.192266 0.352668
vt 0.180558 0.344596
vt 0.173477 0.346188
vt 0.172457 0.338768
vt 0.177983 0.337151
vt 0.174497 0.352685
vt 0.167282 0.353114
vt 0.166513 0.346517
vt 0.182473 0.351229
vt 0.159519 0.352000
vt 0.160146 0.345602
vt 0.151587 0.350524
vt 0.154114 0.343964
vt 0.144923 0.348239
vt 0.147749 0.342109
vt 0.138124 0.344405
vt 0.141491 0.339232
vt 0.131221 0.339228
vt 0.136431 0.334388
vt 0.125148 0.332081
vt 0.132411 0.327626
vt 0.120189 0.319700
vt 0.130142 0.318919
vt 0.207309 0.332138
vt 0.198810 0.342743
vt 0.193520 0.336333
vt 0.197926 0.328609
vt 0.190701 0.348123
vt 0.187319 0.341466
vt 0.169475 0.403958
vt 0.160811 0.401963
vt 0.151330 0.400153
vt 0.142207 0.399083
vt 0.133169 0.398528
vt 0.124420 0.398549
vt 0.115290 0.399670
vt 0.103337 0.403956
vt 0.086242 0.412249
vt 0.207374 0.436335
vt 0.195418 0.420886
vt 0.185681 0.412163
vt 0.177457 0.407136
vt 0.160212 0.424706
vt 0.165770 0.413326
vt 0.172366 0.416616
vt 0.164969 0.427676
vt 0.154430 0.422494
vt 0.158196 0.411387
vt 0.111498 0.294750
vt 0.106936 0.292454
vt 0.107547 0.288949
vt 0.112590 0.289035
vt 0.148224 0.420571
vt 0.149799 0.409569
vt 0.105991 0.285325
vt 0.110205 0.283054
vt 0.141647 0.420467
vt 0.141483 0.408762
vt 0.102625 0.282586
vt 0.104816 0.278488
vt 0.135117 0.420714
vt 0.133328 0.408248
vt 0.098377 0.281435
vt 0.097923 0.276738
vt 0.128902 0.421311
vt 0.125694 0.408035
vt 0.094353 0.282236
vt 0.091378 0.278160
vt 0.123436 0.422832
vt 0.118538 0.410281
vt 0.091529 0.284653
vt 0.086509 0.282059
vt 0.117755 0.427172
vt 0.110281 0.416254
vt 0.090881 0.288169
vt 0.085299 0.287722
vt 0.113120 0.433201
vt 0.100356 0.425952
vt 0.092624 0.291886
vt 0.088293 0.294058
vt 0.173327 0.436612
vt 0.184588 0.430091
vt 0.189433 0.442499
vt 0.175480 0.443352
vt 0.096073 0.294634
vt 0.093929 0.298690
vt 0.169557 0.431267
vt 0.178614 0.421676
vt 0.100320 0.295765
vt 0.100841 0.300399
vt 0.104296 0.294936
vt 0.107271 0.298893
vt 0.092927 0.448659
vt 0.088527 0.456596
vt 0.092493 0.439696
vt 0.087311 0.432591
vt 0.102906 0.286908
vt 0.103754 0.288832
vt 0.099336 0.288603
vt 0.080699 0.460580
vt 0.071665 0.460447
vt 0.166814 0.339366
vt 0.062985 0.456734
vt 0.161437 0.338890
vt 0.057655 0.449840
vt 0.156278 0.337829
vt 0.057894 0.441729
vt 0.150971 0.335668
vt 0.062950 0.434305
vt 0.146124 0.333033
vt 0.070654 0.429530
vt 0.142246 0.329646
vt 0.079375 0.428810
vt 0.139491 0.324758
vt 0.138541 0.319260
vt 0.189685 0.326525
vt 0.187123 0.331437
vt 0.183207 0.335171
vt 0.103433 0.290671
vt 0.102043 0.291974
vt 0.099910 0.292396
vt 0.097604 0.291785
vt 0.095768 0.290305
vt 0.094894 0.288368
vt 0.095217 0.286527
vt 0.096636 0.285231
vt 0.098777 0.284810
vt 0.101083 0.285428
vt 0.105103 0.291513
vt 0.105549 0.288916
vt 0.103134 0.293351
vt 0.100134 0.293953
vt 0.096897 0.293087
vt 0.094306 0.291014
vt 0.093063 0.288277
vt 0.093518 0.285668
vt 0.095538 0.283840
vt 0.098557 0.283251
vt 0.101794 0.284130
vt 0.104362 0.286205
vt 0.076518 0.445417
vn -0.4666 0.7838 -0.4099
vn -0.7964 0.4380 -0.4170
vn -0.8533 0.5047 -0.1310
vn -0.5057 0.8534 -0.1261
vn -0.7937 -0.4641 -0.3934
vn -0.4985 -0.7939 -0.3483
vn -0.5290 -0.8437 -0.0911
vn -0.8587 -0.4964 -0.1275
vn -0.4995 0.8416 0.2056
vn -0.8357 0.5107 0.2021
vn -0.9901 -0.0218 -0.1389
vn -0.9794 -0.0005 0.2017
vn -0.0039 0.9116 -0.4112
vn -0.0192 0.9919 -0.1252
vn -0.0251 0.9742 0.2244
vn 0.4858 0.7740 -0.4060
vn 0.5106 0.8511 -0.1219
vn 0.4815 0.8425 0.2415
vn 0.8092 0.4368 -0.3930
vn 0.8688 0.4825 -0.1112
vn 0.8398 0.4768 0.2596
vn 0.9379 -0.0097 -0.3468
vn 0.9972 -0.0198 -0.0722
vn 0.9630 -0.0342 0.2675
vn 0.8178 -0.4954 -0.2927
vn 0.8446 -0.5349 -0.0241
vn 0.8095 -0.5123 0.2869
vn 0.4486 -0.8512 -0.2725
vn 0.4611 -0.8872 -0.0158
vn 0.4559 -0.8430 0.2856
vn -0.0397 -0.9542 -0.2967
vn -0.0402 -0.9981 -0.0461
vn -0.0228 -0.9627 0.2695
vn -0.5105 -0.8255 0.2406
vn -0.9091 -0.0404 -0.4145
vn -0.8499 -0.4821 0.2126
vn -0.6887 -0.4151 -0.5945
vn -0.7820 -0.0553 -0.6209
vn -0.0857 -0.1352 -0.9871
vn -0.0898 -0.1537 -0.9840
vn -0.0328 -0.1509 -0.9880
vn -0.0444 -0.1145 -0.9924
vn -0.3044 -0.2408 -0.9216
vn -0.3507 -0.1389 -0.9261
vn -0.3193 -0.0143 -0.9475
vn -0.0824 -0.1468 -0.9857
vn -0.0359 -0.1705 -0.9847
vn -0.1556 0.1083 -0.9819
vn -0.0304 -0.1130 -0.9931
vn -0.0057 -0.1523 -0.9883
vn 0.0808 0.1458 -0.9860
vn 0.0700 -0.0926 -0.9932
vn 0.0682 -0.1400 -0.9878
vn 0.2596 0.1053 -0.9599
vn 0.1490 -0.1098 -0.9827
vn 0.1199 -0.1543 -0.9807
vn 0.3582 0.0035 -0.9336
vn 0.1776 -0.1348 -0.9748
vn 0.1359 -0.1609 -0.9776
vn 0.3740 -0.1151 -0.9202
vn 0.1783 -0.1300 -0.9753
vn 0.1341 -0.1320 -0.9821
vn 0.3321 -0.2042 -0.9209
vn 0.1655 -0.1168 -0.9793
vn 0.1249 -0.0997 -0.9871
vn 0.2238 -0.3100 -0.9240
vn 0.1229 -0.1426 -0.9821
vn 0.0979 -0.1125 -0.9888
vn 0.0170 -0.3755 -0.9267
vn 0.0295 -0.1612 -0.9865
vn 0.0311 -0.1274 -0.9914
vn -0.1874 -0.3326 -0.9243
vn -0.0551 -0.1407 -0.9885
vn -0.0281 -0.1093 -0.9936
vn -0.6890 0.3603 -0.6289
vn -0.3948 0.6832 -0.6143
vn 0.4532 0.6532 -0.6066
vn 0.0299 0.7878 -0.6152
vn 0.7182 0.3718 -0.5882
vn 0.8295 0.0068 -0.5585
vn 0.7428 -0.4236 -0.5185
vn 0.4242 -0.7626 -0.4884
vn -0.0226 -0.8605 -0.5089
vn -0.4327 -0.7099 -0.5557
vn -0.2152 -0.1713 -0.9614
vn -0.2700 -0.0716 -0.9602
vn -0.3077 -0.1036 -0.9458
vn -0.2583 -0.2032 -0.9445
vn -0.5714 -0.0610 -0.8184
vn -0.5273 0.2520 -0.8114
vn -0.2779 0.0645 -0.9584
vn -0.4926 -0.3169 -0.8105
vn -0.3038 0.5251 -0.7949
vn -0.1658 0.2234 -0.9605
vn 0.0516 0.6102 -0.7906
vn 0.0644 0.2785 -0.9583
vn 0.3810 0.4864 -0.7863
vn 0.2602 0.2046 -0.9436
vn 0.5603 0.2635 -0.7852
vn 0.3243 0.0861 -0.9420
vn 0.6132 -0.0044 -0.7899
vn 0.2986 -0.0360 -0.9537
vn 0.5429 -0.3106 -0.7803
vn 0.2419 -0.1465 -0.9592
vn 0.3234 -0.5511 -0.7692
vn 0.1566 -0.2419 -0.9576
vn 0.0096 -0.6323 -0.7746
vn 0.0232 -0.2879 -0.9574
vn -0.2959 -0.5273 -0.7965
vn -0.1180 -0.2559 -0.9595
vn -0.8056 0.0273 0.5918
vn -0.6817 0.4435 0.5818
vn -0.4116 0.7049 0.5777
vn -0.0359 0.7936 0.6073
vn 0.3626 0.6919 0.6243
vn 0.6651 0.3999 0.6306
vn 0.7820 -0.0369 0.6222
vn 0.6622 -0.4199 0.6206
vn 0.4010 -0.6776 0.6164
vn 0.0170 -0.7784 0.6276
vn -0.4033 -0.6711 0.6221
vn -0.7004 -0.3802 0.6041
vn -0.4328 0.0447 0.9004
vn -0.5316 0.0404 0.8460
vn -0.4637 -0.2328 0.8549
vn -0.3725 -0.1792 0.9106
vn -0.3797 0.2659 0.8861
vn -0.4523 0.3144 0.8346
vn -0.3604 -0.1716 0.9169
vn -0.4183 0.0467 0.9071
vn -0.2388 0.4141 0.8783
vn -0.2808 0.4838 0.8289
vn -0.3667 0.2544 0.8949
vn -0.0425 0.4601 0.8869
vn -0.0421 0.5334 0.8448
vn -0.2296 0.3957 0.8892
vn 0.1506 0.4024 0.9030
vn 0.2090 0.4745 0.8551
vn -0.0406 0.4438 0.8952
vn 0.2934 0.2368 0.9262
vn 0.4182 0.2914 0.8603
vn 0.1435 0.3833 0.9124
vn 0.3614 -0.0064 0.9324
vn 0.5095 -0.0175 0.8603
vn 0.2794 0.2239 0.9337
vn 0.3277 -0.2260 0.9173
vn 0.4293 -0.2864 0.8565
vn 0.3432 -0.0061 0.9392
vn 0.1982 -0.3636 0.9102
vn 0.2641 -0.4484 0.8539
vn 0.3082 -0.2095 0.9280
vn 0.0019 -0.4094 0.9123
vn 0.0170 -0.5051 0.8629
vn 0.1830 -0.3440 0.9209
vn -0.2113 -0.3437 0.9150
vn -0.2612 -0.4296 0.8644
vn -0.0046 -0.3903 0.9207
vn -0.2029 -0.3311 0.9215
vn -0.2844 -0.0044 -0.9587
vn -0.1421 -0.2994 -0.9435
vn -0.0818 0.0631 0.9946
vn -0.0849 0.0252 0.9961
vn -0.0155 0.0256 0.9996
vn -0.1491 0.1157 -0.9820
vn 0.0877 0.1748 -0.9807
vn 0.2613 0.1193 -0.9579
vn 0.3114 0.0178 -0.9501
vn 0.3088 -0.0762 -0.9481
vn 0.2773 -0.1678 -0.9460
vn 0.1880 -0.2573 -0.9479
vn 0.0329 -0.3177 -0.9476
vn -0.0685 -0.0100 0.9976
vn -0.0621 -0.0227 0.9978
vn -0.0308 -0.0232 0.9993
vn 0.0004 -0.0302 0.9995
vn 0.0121 -0.0060 0.9999
vn 0.0380 0.0247 0.9990
vn 0.0193 0.0425 0.9989
vn -0.0048 0.0836 0.9965
vn -0.0260 0.0954 0.9951
vn -0.0630 0.0766 0.9951
vn -0.2123 -0.0901 0.9730
vn -0.2363 0.0372 0.9710
vn -0.1309 -0.1750 0.9758
vn -0.0193 -0.2102 0.9775
vn 0.0892 -0.1864 0.9784
vn 0.1650 -0.1096 0.9802
vn 0.1904 0.0070 0.9817
vn 0.1600 0.1341 0.9780
vn 0.0782 0.2284 0.9704
vn -0.0276 0.2681 0.9630
vn -0.1376 0.2420 0.9605
vn -0.2181 0.1613 0.9625
vn 0.0507 -0.1356 -0.9895
usemtl T_Frutas_1
s 1
f 6/1/1 4/2/2 3/3/3 5/4/4
f 24/5/5 22/6/6 21/7/7 23/8/8
f 87/9/9 5/4/4 3/3/3 86/10/10
f 86/10/10 3/3/3 1/11/11 85/12/12
f 8/13/13 6/1/1 5/4/4 7/14/14
f 88/15/15 7/14/14 5/4/4 87/9/9
f 10/16/16 8/13/13 7/14/14 9/17/17
f 89/18/18 9/17/17 7/14/14 88/15/15
f 12/19/19 10/16/16 9/17/17 11/20/20
f 90/21/21 11/20/20 9/17/17 89/18/18
f 14/22/22 12/19/19 11/20/20 13/23/23
f 91/24/24 13/23/23 11/20/20 90/21/21
f 16/25/25 14/22/22 13/23/23 15/26/26
f 92/27/27 15/26/26 13/23/23 91/24/24
f 18/28/28 16/25/25 15/26/26 17/29/29
f 93/30/30 17/29/29 15/26/26 92/27/27
f 20/31/31 18/32/28 17/33/29 19/34/32
f 94/35/33 19/34/32 17/33/29 93/36/30
f 22/6/6 20/31/31 19/34/32 21/7/7
f 95/37/34 21/7/7 19/34/32 94/35/33
f 2/38/35 24/5/5 23/8/8 1/11/11
f 96/39/36 23/8/8 21/7/7 95/37/34
f 72/40/37 24/5/5 2/38/35 61/41/38
f 58/42/39 25/43/40 27/44/41 60/45/42
f 59/46/43 26/47/44 25/43/40 58/42/39
f 26/47/44 29/48/45 28/49/46 25/43/40
f 25/43/40 28/49/46 30/50/47 27/44/41
f 29/48/45 32/51/48 31/52/49 28/49/46
f 28/49/46 31/52/49 33/53/50 30/50/47
f 32/51/48 35/54/51 34/55/52 31/52/49
f 31/52/49 34/55/52 36/56/53 33/53/50
f 35/54/51 38/57/54 37/58/55 34/55/52
f 34/55/52 37/58/55 39/59/56 36/56/53
f 38/57/54 41/60/57 40/61/58 37/58/55
f 37/58/55 40/61/58 42/62/59 39/59/56
f 41/60/57 44/63/60 43/64/61 40/61/58
f 40/61/58 43/64/61 45/65/62 42/62/59
f 44/63/60 47/66/63 46/67/64 43/64/61
f 43/64/61 46/67/64 48/68/65 45/65/62
f 47/66/63 50/69/66 49/70/67 46/67/64
f 46/67/64 49/70/67 51/71/68 48/68/65
f 50/69/66 53/72/69 52/73/70 49/70/67
f 49/70/67 52/73/70 54/74/71 51/71/68
f 53/72/69 56/75/72 55/76/73 52/73/70
f 52/73/70 55/76/73 57/77/74 54/74/71
f 56/75/72 59/46/43 58/42/39 55/76/73
f 55/76/73 58/42/39 60/45/42 57/77/74
f 61/41/38 2/38/35 4/2/2 62/78/75
f 4/2/2 6/1/1 63/79/76 62/78/75
f 8/13/13 10/16/16 65/80/77 64/81/78
f 6/1/1 8/13/13 64/81/78 63/79/76
f 10/16/16 12/19/19 66/82/79 65/80/77
f 12/19/19 14/22/22 67/83/80 66/82/79
f 14/22/22 16/25/25 68/84/81 67/83/80
f 16/25/25 18/28/28 69/85/82 68/84/81
f 18/32/28 20/31/31 70/86/83 69/87/82
f 20/31/31 22/6/6 71/88/84 70/86/83
f 22/6/6 24/5/5 72/40/37 71/88/84
f 156/89/85 145/90/86 157/91/87 168/92/88
f 73/93/89 74/94/90 146/95/91 145/90/86
f 84/96/92 72/40/37 61/41/38 73/93/89
f 74/94/90 75/97/93 147/98/94 146/95/91
f 74/94/90 73/93/89 61/41/38 62/78/75
f 75/97/93 76/99/95 148/100/96 147/98/94
f 75/97/93 74/94/90 62/78/75 63/79/76
f 76/99/95 77/101/97 149/102/98 148/100/96
f 76/99/95 75/97/93 63/79/76 64/81/78
f 77/101/97 78/103/99 150/104/100 149/102/98
f 77/101/97 76/99/95 64/81/78 65/80/77
f 78/103/99 79/105/101 151/106/102 150/104/100
f 78/103/99 77/101/97 65/80/77 66/82/79
f 79/105/101 80/107/103 152/108/104 151/106/102
f 79/105/101 78/103/99 66/82/79 67/83/80
f 80/107/103 81/109/105 153/110/106 152/108/104
f 80/107/103 79/105/101 67/83/80 68/84/81
f 81/111/105 82/112/107 154/113/108 153/114/106
f 81/109/105 80/107/103 68/84/81 69/85/82
f 82/112/107 83/115/109 155/116/110 154/113/108
f 82/112/107 81/111/105 69/87/82 70/86/83
f 83/115/109 84/96/92 156/89/85 155/116/110
f 83/115/109 82/112/107 70/86/83 71/88/84
f 84/96/92 83/115/109 71/88/84 72/40/37
f 133/117/111 134/118/112 86/10/10 85/12/12
f 134/118/112 135/119/113 87/9/9 86/10/10
f 135/119/113 136/120/114 88/15/15 87/9/9
f 136/120/114 137/121/115 89/18/18 88/15/15
f 137/121/115 138/122/116 90/21/21 89/18/18
f 138/122/116 139/123/117 91/24/24 90/21/21
f 139/123/117 140/124/118 92/27/27 91/24/24
f 140/124/118 141/125/119 93/30/30 92/27/27
f 141/126/119 142/127/120 94/35/33 93/36/30
f 142/127/120 143/128/121 95/37/34 94/35/33
f 143/128/121 144/129/122 96/39/36 95/37/34
f 97/130/123 99/131/124 132/132/125 130/133/126
f 100/134/127 102/135/128 99/131/124 97/130/123
f 130/136/126 131/137/129 98/138/130 97/139/123
f 103/140/131 105/141/132 102/135/128 100/134/127
f 98/138/130 101/142/133 100/143/127 97/139/123
f 106/144/134 108/145/135 105/141/132 103/140/131
f 101/142/133 104/146/136 103/147/131 100/143/127
f 109/148/137 111/149/138 108/145/135 106/144/134
f 104/146/136 107/150/139 106/151/134 103/147/131
f 112/152/140 114/153/141 111/149/138 109/148/137
f 107/150/139 110/154/142 109/155/137 106/151/134
f 115/156/143 117/157/144 114/153/141 112/152/140
f 110/154/142 113/158/145 112/159/140 109/155/137
f 118/160/146 120/161/147 117/157/144 115/156/143
f 113/158/145 116/162/148 115/163/143 112/159/140
f 121/164/149 123/165/150 120/161/147 118/160/146
f 116/162/148 119/166/151 118/167/146 115/163/143
f 124/168/152 126/169/153 123/170/150 121/171/149
f 119/166/151 122/172/154 121/173/149 118/167/146
f 127/174/155 129/175/156 126/169/153 124/168/152
f 122/172/154 125/176/157 124/177/152 121/173/149
f 130/133/126 132/132/125 129/175/156 127/174/155
f 125/176/157 128/178/158 127/179/155 124/177/152
f 144/129/122 132/132/125 99/131/124 133/117/111
f 128/178/158 131/137/129 130/136/126 127/179/155
f 99/131/124 102/135/128 134/118/112 133/117/111
f 102/135/128 105/141/132 135/119/113 134/118/112
f 105/141/132 108/145/135 136/120/114 135/119/113
f 108/145/135 111/149/138 137/121/115 136/120/114
f 111/149/138 114/153/141 138/122/116 137/121/115
f 114/153/141 117/157/144 139/123/117 138/122/116
f 117/157/144 120/161/147 140/124/118 139/123/117
f 120/161/147 123/165/150 141/125/119 140/124/118
f 123/170/150 126/169/153 142/127/120 141/126/119
f 126/169/153 129/175/156 143/128/121 142/127/120
f 129/175/156 132/132/125 144/129/122 143/128/121
f 85/12/12 1/11/11 23/8/8 96/39/36
f 84/96/92 73/93/89 145/90/86 156/89/85
f 144/129/122 133/117/111 85/12/12 96/39/36
f 26/47/44 157/180/87 158/181/159 29/48/45
f 168/182/88 59/46/43 56/75/72 167/183/160
f 193/184/161 170/185/162 181/186/163
f 159/187/164 32/51/48 29/48/45 158/181/159
f 160/188/165 35/54/51 32/51/48 159/187/164
f 157/91/87 145/90/86 146/95/91 158/189/159
f 161/190/166 38/57/54 35/54/51 160/188/165
f 158/189/159 146/95/91 147/98/94 159/191/164
f 162/192/167 41/60/57 38/57/54 161/190/166
f 159/191/164 147/98/94 148/100/96 160/193/165
f 163/194/168 44/63/60 41/60/57 162/192/167
f 160/193/165 148/100/96 149/102/98 161/195/166
f 164/196/169 47/66/63 44/63/60 163/194/168
f 161/195/166 149/102/98 150/104/100 162/197/167
f 165/198/170 50/69/66 47/66/63 164/196/169
f 162/197/167 150/104/100 151/106/102 163/199/168
f 166/200/171 53/72/69 50/69/66 165/198/170
f 163/199/168 151/106/102 152/108/104 164/201/169
f 167/183/160 56/75/72 53/72/69 166/200/171
f 164/201/169 152/108/104 153/110/106 165/202/170
f 59/46/43 168/182/88 157/180/87 26/47/44
f 165/203/170 153/114/106 154/113/108 166/204/171
f 166/204/171 154/113/108 155/116/110 167/205/160
f 167/205/160 155/116/110 156/89/85 168/92/88
f 170/185/162 172/206/172 181/186/163
f 172/206/172 174/207/173 181/186/163
f 176/208/174 178/209/175 181/186/163
f 180/210/176 183/211/177 181/186/163
f 185/212/178 187/213/179 181/186/163
f 189/214/180 191/215/181 181/186/163
f 171/216/182 169/217/183 98/138/130 131/137/129
f 172/206/172 170/185/162 169/217/183 171/216/182
f 173/218/184 174/207/173 172/206/172 171/216/182
f 173/218/184 171/216/182 131/137/129 128/178/158
f 175/219/185 176/208/174 174/207/173 173/218/184
f 175/219/185 173/218/184 128/178/158 125/176/157
f 177/220/186 178/209/175 176/208/174 175/219/185
f 177/220/186 175/219/185 125/176/157 122/172/154
f 179/221/187 180/210/176 178/209/175 177/220/186
f 179/221/187 177/220/186 122/172/154 119/166/151
f 182/222/188 183/211/177 180/210/176 179/221/187
f 182/222/188 179/221/187 119/166/151 116/162/148
f 184/223/189 185/212/178 183/211/177 182/222/188
f 184/223/189 182/222/188 116/162/148 113/158/145
f 187/213/179 185/212/178 184/223/189 186/224/190
f 186/224/190 184/223/189 113/158/145 110/154/142
f 189/214/180 187/213/179 186/224/190 188/225/191
f 188/225/191 186/224/190 110/154/142 107/150/139
f 191/215/181 189/214/180 188/225/191 190/226/192
f 190/226/192 188/225/191 107/150/139 104/146/136
f 193/184/161 191/215/181 190/226/192 192/227/193
f 192/227/193 190/226/192 104/146/136 101/142/133
f 170/185/162 193/184/161 192/227/193 169/217/183
f 169/217/183 192/227/193 101/142/133 98/138/130
f 191/215/181 193/184/161 181/186/163
f 187/213/179 189/214/180 181/186/163
f 183/211/177 185/212/178 181/186/163
f 178/209/175 180/210/176 181/186/163
f 174/207/173 176/208/174 181/186/163
f 27/44/41 194/228/194 60/45/42
f 30/50/47 33/53/50 194/228/194
f 42/62/59 45/65/62 194/228/194
f 51/71/68 54/74/71 194/228/194
f 33/53/50 36/56/53 194/228/194
f 39/59/56 42/62/59 194/228/194
f 48/68/65 51/71/68 194/228/194
f 27/44/41 30/50/47 194/228/194
f 57/77/74 60/45/42 194/228/194
f 36/56/53 39/59/56 194/228/194
f 45/65/62 48/68/65 194/228/194
f 54/74/71 57/77/74 194/228/194
f 4/2/2 2/38/35 1/11/11 3/3/3
