# Blender v2.80 (sub 75) OBJ File: 'Visualizacion - copia.blend'
# www.blender.org
mtllib Pimenton.mtl
o Pimientos.001_paprika.000
v 6.767560 1.050797 -8.074899
v 6.781398 1.196939 -8.062452
v 6.777579 1.199558 -8.065598
v 6.775624 1.050674 -8.087079
v 6.788447 1.050536 -8.092126
v 6.787021 1.199027 -8.054177
v 6.795105 1.052857 -8.090215
v 6.796236 1.195151 -8.058119
v 6.801851 1.049722 -8.088398
v 6.801177 1.197181 -8.058792
v 6.811197 1.049697 -8.078340
v 6.806416 1.197609 -8.066571
v 6.810882 1.051603 -8.071424
v 6.804564 1.195649 -8.071668
v 6.812430 1.048684 -8.064272
v 6.806256 1.197834 -8.076758
v 6.804738 1.048064 -8.052609
v 6.800539 1.198368 -8.083852
v 6.797977 1.050476 -8.050132
v 6.795359 1.196113 -8.084003
v 6.784276 1.048635 -8.047894
v 6.790754 1.198576 -8.086522
v 6.782141 1.198802 -8.083249
v 6.773709 1.052239 -8.056318
v 6.768922 1.050847 -8.061411
v 6.777009 1.199766 -8.074766
v 6.742322 1.186632 -8.028062
v 6.726643 1.197850 -8.043436
v 6.754107 1.202401 -8.038655
v 6.741916 1.210732 -8.050561
v 6.773621 1.196836 -8.000296
v 6.776674 1.208393 -8.015388
v 6.816027 1.178202 -8.009592
v 6.809296 1.197330 -8.024186
v 6.836943 1.189205 -8.016935
v 6.826232 1.206257 -8.028341
v 6.858110 1.190872 -8.052988
v 6.843726 1.207034 -8.056545
v 6.853903 1.178856 -8.074790
v 6.839725 1.198883 -8.073730
v 6.856922 1.191775 -8.096887
v 6.843378 1.209105 -8.091533
v 6.829237 1.193835 -8.128846
v 6.821361 1.209428 -8.116575
v 6.807382 1.181707 -8.132985
v 6.803618 1.201152 -8.118421
v 6.786361 1.190822 -8.141045
v 6.786623 1.207597 -8.125224
v 6.746311 1.189708 -8.125255
v 6.755707 1.207304 -8.113360
v 6.723752 1.193610 -8.086617
v 6.738934 1.209203 -8.083837
v 6.738309 1.145399 -8.025936
v 6.721181 1.153612 -8.041819
v 6.774557 1.153346 -7.995767
v 6.816885 1.136264 -8.006005
v 6.839647 1.142553 -8.013264
v 6.862458 1.143780 -8.052629
v 6.857242 1.135464 -8.075338
v 6.860091 1.143056 -8.097715
v 6.831859 1.146460 -8.132154
v 6.808810 1.139087 -8.136148
v 6.787300 1.143715 -8.143970
v 6.745450 1.141966 -8.126172
v 6.719892 1.147170 -8.086943
v 6.754106 1.051066 -8.055306
v 6.762233 1.054148 -8.046141
v 6.760831 1.048202 -8.058096
v 6.767495 1.050139 -8.051006
v 6.780224 1.047838 -8.032567
v 6.782208 1.045122 -8.039278
v 6.803475 1.051730 -8.035964
v 6.801280 1.047685 -8.042395
v 6.814847 1.047793 -8.040290
v 6.810693 1.044327 -8.045843
v 6.827474 1.048484 -8.060395
v 6.821401 1.045190 -8.062080
v 6.825960 1.053674 -8.072943
v 6.819245 1.049254 -8.072037
v 6.825939 1.050205 -8.084362
v 6.819684 1.046600 -8.081663
v 6.810311 1.049860 -8.101719
v 6.806674 1.046635 -8.095666
v 6.799425 1.055063 -8.105149
v 6.797282 1.050999 -8.098197
v 6.788355 1.051225 -8.107787
v 6.788012 1.047768 -8.100857
v 6.766447 1.051128 -8.099315
v 6.770160 1.047961 -8.093828
v 6.752453 1.051346 -8.077915
v 6.758935 1.048131 -8.076873
v 6.741822 1.095279 -8.030649
v 6.726515 1.094442 -8.044367
v 6.773718 1.092476 -8.004711
v 6.812864 1.090431 -8.013680
v 6.832228 1.089385 -8.020513
v 6.852309 1.089170 -8.055653
v 6.848732 1.090791 -8.076233
v 6.850604 1.089285 -8.096901
v 6.826584 1.092132 -8.128859
v 6.806612 1.092686 -8.131708
v 6.787774 1.089615 -8.137553
v 6.750902 1.089212 -8.120062
v 6.727703 1.091485 -8.084761
v 6.762705 1.208337 -8.060043
v 6.770690 1.202300 -8.053788
v 6.782105 1.206623 -8.036812
v 6.800772 1.198836 -8.044766
v 6.811522 1.203176 -8.046453
v 6.822055 1.204189 -8.062366
v 6.818505 1.200102 -8.072828
v 6.822155 1.206021 -8.082999
v 6.809779 1.205772 -8.097882
v 6.799011 1.201795 -8.098089
v 6.789198 1.206490 -8.103352
v 6.771477 1.206555 -8.096310
v 6.761218 1.207445 -8.078989
v 6.750896 1.069210 -8.037527
v 6.739272 1.065521 -8.049551
v 6.776693 1.062240 -8.017200
v 6.808475 1.066461 -8.023972
v 6.824307 1.062929 -8.029075
v 6.839894 1.062889 -8.057425
v 6.838078 1.067404 -8.074507
v 6.838792 1.064391 -8.090100
v 6.819198 1.064586 -8.115741
v 6.803784 1.069553 -8.119692
v 6.788303 1.064169 -8.122248
v 6.758205 1.064237 -8.110330
v 6.739961 1.064958 -8.081004
v 6.784348 1.252517 -8.068161
v 6.786453 1.251073 -8.066427
v 6.789554 1.252224 -8.061864
v 6.794633 1.250087 -8.064038
v 6.797358 1.251207 -8.064409
v 6.800246 1.251443 -8.068698
v 6.799224 1.250362 -8.071507
v 6.800158 1.251567 -8.074314
v 6.797005 1.251861 -8.078225
v 6.794150 1.250618 -8.078309
v 6.791612 1.251976 -8.079697
v 6.786863 1.252100 -8.077892
v 6.784033 1.252632 -8.073215
v 6.792132 1.251667 -8.071085
v 6.801305 1.210489 -8.074769
v 6.791183 1.210974 -8.081144
v 6.788746 1.211268 -8.060024
v 6.782209 1.211751 -8.073468
v 6.801410 1.210342 -8.068117
v 6.797571 1.210837 -8.079400
v 6.785074 1.209905 -8.065428
v 6.782581 1.211614 -8.067482
v 6.785560 1.211121 -8.079008
v 6.794763 1.208737 -8.062599
v 6.800200 1.209062 -8.071445
v 6.794189 1.209365 -8.079499
v 6.797989 1.210063 -8.063039
vt 0.341860 0.918183
vt 0.332439 0.922677
vt 0.329366 0.906446
vt 0.339544 0.902683
vt 0.339790 0.883368
vt 0.329753 0.882758
vt 0.361476 0.857504
vt 0.347154 0.852796
vt 0.349316 0.845168
vt 0.362963 0.849624
vt 0.277132 0.764410
vt 0.279052 0.765561
vt 0.273613 0.791702
vt 0.271225 0.790054
vt 0.325634 0.844238
vt 0.313033 0.827256
vt 0.321774 0.824948
vt 0.330742 0.837488
vt 0.392130 0.752074
vt 0.397907 0.753789
vt 0.389128 0.759705
vt 0.411786 0.857697
vt 0.403891 0.857263
vt 0.402996 0.849040
vt 0.410144 0.849626
vt 0.395913 0.859904
vt 0.383077 0.859854
vt 0.383010 0.852418
vt 0.395663 0.851692
vt 0.359061 0.872592
vt 0.374779 0.873974
vt 0.374289 0.884230
vt 0.357946 0.884880
vt 0.375828 0.858489
vt 0.375977 0.851022
vt 0.397525 0.873433
vt 0.396508 0.864278
vt 0.405034 0.863119
vt 0.406142 0.873298
vt 0.339238 0.851313
vt 0.342228 0.844064
vt 0.382550 0.874390
vt 0.398335 0.884629
vt 0.382490 0.884852
vt 0.344783 0.928815
vt 0.358357 0.916652
vt 0.358856 0.922979
vt 0.314918 0.859479
vt 0.332936 0.868505
vt 0.307493 0.875817
vt 0.430925 0.870565
vt 0.427275 0.858386
vt 0.435528 0.855624
vt 0.440397 0.868582
vt 0.318776 0.939427
vt 0.293917 0.964613
vt 0.276022 0.950038
vt 0.312393 0.929575
vt 0.440717 0.845956
vt 0.432659 0.849402
vt 0.428945 0.842265
vt 0.435594 0.839516
vt 0.407011 0.884145
vt 0.414197 0.872994
vt 0.416035 0.884439
vt 0.433835 0.884441
vt 0.425098 0.853662
vt 0.422689 0.846344
vt 0.273595 0.859273
vt 0.290592 0.839788
vt 0.455248 0.878994
vt 0.443887 0.882023
vt 0.449605 0.863048
vt 0.471565 0.847482
vt 0.485873 0.866806
vt 0.342123 0.870709
vt 0.380107 0.756595
vt 0.384170 0.751800
vt 0.452182 0.833434
vt 0.444431 0.829750
vt 0.374164 0.899406
vt 0.382395 0.901436
vt 0.349767 0.943859
vt 0.360811 0.934079
vt 0.364586 0.950248
vt 0.355831 0.956964
vt 0.375358 0.863911
vt 0.360329 0.862070
vt 0.374728 0.937518
vt 0.376718 0.951288
vt 0.382587 0.864336
vt 0.374460 0.923116
vt 0.383059 0.921894
vt 0.381941 0.934464
vt 0.393553 0.934498
vt 0.391695 0.950688
vt 0.381905 0.949093
vt 0.412592 0.862703
vt 0.403518 0.925169
vt 0.413246 0.925350
vt 0.408865 0.937038
vt 0.400590 0.939652
vt 0.420326 0.941117
vt 0.412245 0.954950
vt 0.403247 0.952617
vt 0.443511 0.851275
vt 0.425723 0.929705
vt 0.435011 0.935841
vt 0.425014 0.948686
vt 0.457943 0.837035
vt 0.446454 0.941267
vt 0.434352 0.952235
vt 0.442955 0.968066
vt 0.423832 0.970557
vt 0.420306 0.961857
vt 0.318761 0.971930
vt 0.329315 0.952565
vt 0.343062 0.964125
vt 0.338370 0.974260
vt 0.337226 0.856639
vt 0.322277 0.848957
vt 0.341324 0.944310
vt 0.350000 0.957531
vt 0.334881 0.931310
vt 0.345482 0.858803
vt 0.374427 0.912591
vt 0.358452 0.904346
vt 0.405215 0.914463
vt 0.396123 0.915659
vt 0.397804 0.902205
vt 0.406413 0.899897
vt 0.382790 0.914497
vt 0.440908 0.923004
vt 0.429058 0.922230
vt 0.432971 0.905432
vt 0.444777 0.903655
vt 0.414825 0.902864
vt 0.414061 0.917872
vt 0.394910 0.922637
vt 0.306161 0.829939
vt 0.457817 0.907053
vt 0.452121 0.930119
vt 0.481516 0.945900
vt 0.492515 0.910061
vt 0.263211 0.907483
vt 0.304578 0.906908
vt 0.397065 0.954131
vt 0.465805 0.959556
vt 0.415040 0.959734
vt 0.304058 0.764123
vt 0.307557 0.763203
vt 0.315037 0.788958
vt 0.310176 0.790608
vt 0.310111 0.801118
vt 0.303172 0.802528
vt 0.301834 0.792952
vt 0.307686 0.792240
vt 0.281181 0.765158
vt 0.276493 0.791814
vt 0.292842 0.803583
vt 0.287097 0.803130
vt 0.287580 0.793756
vt 0.293053 0.793890
vt 0.284477 0.793994
vt 0.286705 0.766650
vt 0.288863 0.766141
vt 0.325483 0.793175
vt 0.318778 0.796782
vt 0.319910 0.786996
vt 0.292457 0.766349
vt 0.294434 0.766932
vt 0.295911 0.794483
vt 0.284660 0.765779
vt 0.281557 0.792934
vt 0.298154 0.765343
vt 0.273578 0.763607
vt 0.267060 0.788107
vt 0.302278 0.765345
vt 0.397560 0.759978
vt 0.389392 0.750449
vt 0.388387 0.769249
vt 0.383389 0.767362
vt 0.397907 0.763045
vt 0.394511 0.767370
vt 0.382148 0.764377
vt 0.379849 0.761991
vt 0.391184 0.767444
vt 0.311573 0.762411
vt 0.279360 0.802078
vt 0.274026 0.800473
vt 0.270244 0.799905
vt 0.267046 0.797618
vt 0.283161 0.803202
vt 0.296518 0.804142
vt 0.313396 0.799098
vt 0.262071 0.794266
vn -0.5981 0.3495 0.7212
vn -0.7537 0.4974 0.4296
vn -0.9100 0.0245 0.4138
vn -0.6622 -0.0241 0.7490
vn -0.6351 -0.2511 0.7304
vn -0.8827 -0.2630 0.3894
vn -0.0609 -0.9954 0.0736
vn -0.1146 -0.9890 0.0934
vn 0.1385 -0.9664 -0.2165
vn 0.0300 -0.9313 -0.3629
vn 0.1440 0.6677 -0.7304
vn 0.2110 0.5986 -0.7727
vn 0.2635 0.2190 -0.9395
vn 0.1178 0.1888 -0.9749
vn -0.1418 -0.9890 -0.0429
vn -0.1064 -0.9879 -0.1129
vn 0.1779 -0.9556 0.2351
vn 0.2782 -0.9574 0.0769
vn -0.5051 0.6305 0.5893
vn -0.1749 0.6888 0.7035
vn 0.0779 0.9958 0.0481
vn 0.1995 -0.9768 0.0782
vn 0.1391 -0.9873 -0.0768
vn -0.2664 -0.9634 -0.0307
vn -0.2483 -0.9388 0.2389
vn 0.1900 -0.9648 -0.1819
vn -0.0330 -0.9865 0.1606
vn -0.3431 -0.9169 -0.2037
vn -0.2796 -0.9181 -0.2808
vn -0.2228 -0.5797 0.7838
vn 0.2001 -0.5141 0.8341
vn 0.2548 -0.2834 0.9245
vn -0.2401 -0.2675 0.9332
vn -0.0597 -0.9850 0.1620
vn -0.1368 -0.9500 -0.2807
vn 0.8249 -0.5567 0.0980
vn 0.6312 -0.7756 -0.0038
vn 0.6787 -0.7316 -0.0649
vn 0.8516 -0.5220 -0.0469
vn -0.0684 -0.9865 0.1487
vn 0.2989 -0.9540 -0.0230
vn 0.4825 -0.5608 0.6728
vn 0.9401 -0.3090 0.1440
vn 0.6049 -0.3017 0.7369
vn -0.1914 0.9000 0.3915
vn -0.1784 0.4902 0.8531
vn -0.0489 0.9310 0.3616
vn -0.7973 -0.5598 -0.2258
vn -0.7360 -0.5703 0.3647
vn -0.9236 -0.2793 -0.2625
vn 0.3540 -0.6173 -0.7026
vn 0.1722 -0.8188 -0.5476
vn 0.1273 -0.7830 -0.6089
vn 0.1792 -0.5768 -0.7970
vn -0.3916 0.9086 -0.1455
vn -0.2916 0.8835 -0.3667
vn -0.5976 0.3370 -0.7275
vn -0.8834 0.3970 -0.2490
vn 0.1319 -0.9812 -0.1408
vn -0.0028 -0.9846 -0.1747
vn -0.1024 -0.9756 0.1940
vn 0.1783 -0.9411 0.2873
vn 0.9547 -0.2945 -0.0425
vn 0.7881 -0.5845 -0.1932
vn 0.9063 -0.3151 -0.2815
vn 0.4611 -0.2932 -0.8375
vn -0.1136 -0.9754 -0.1890
vn -0.3554 -0.9225 0.1508
vn -0.6265 -0.2920 -0.7227
vn -0.5229 -0.5883 -0.6168
vn -0.0423 -0.3132 -0.9488
vn 0.2246 -0.2765 -0.9344
vn 0.0224 -0.6329 -0.7739
vn -0.5611 -0.5154 0.6478
vn -0.4550 0.6635 -0.5939
vn -0.6598 0.7283 -0.1852
vn 0.2642 -0.0641 0.9623
vn 0.6279 -0.0390 0.7773
vn 0.2740 0.9617 -0.0108
vn 0.1149 0.9808 -0.1573
vn 0.0978 0.9918 0.0816
vn -0.2186 0.9052 0.3645
vn 0.1220 -0.7535 0.6460
vn -0.1778 -0.8314 0.5264
vn -0.0458 0.9937 -0.1021
vn 0.1222 0.8911 0.4370
vn 0.2990 -0.7927 0.5312
vn 0.0828 0.8626 0.4991
vn 0.0945 0.8847 0.4564
vn -0.2937 0.9559 0.0044
vn -0.1541 0.9608 -0.2305
vn 0.2428 0.9577 -0.1541
vn -0.0644 0.9336 0.3524
vn 0.5971 -0.7964 -0.0959
vn 0.4972 0.8669 0.0369
vn 0.4771 0.8757 0.0744
vn -0.1063 0.9383 0.3292
vn -0.1674 0.9845 0.0528
vn -0.2951 0.9503 0.0994
vn -0.0981 0.9551 -0.2795
vn 0.2596 0.9340 0.2455
vn 0.0873 -0.8245 -0.5591
vn 0.0421 0.8990 -0.4359
vn 0.1018 0.8792 -0.4655
vn -0.0498 0.9781 0.2023
vn -0.3843 -0.8065 -0.4494
vn 0.1240 0.8871 -0.4446
vn 0.2036 0.9649 0.1660
vn 0.1493 0.9802 0.1297
vn -0.0962 0.9765 -0.1930
vn 0.2698 0.9468 -0.1752
vn 0.2233 0.9747 -0.0056
vn -0.1855 0.9761 -0.1132
vn -0.4837 -0.8242 0.2945
vn -0.5788 -0.8009 -0.1535
vn 0.3133 0.9430 0.1120
vn -0.0247 0.9349 0.3541
vn -0.2276 0.9279 0.2953
vn -0.4382 -0.7662 0.4700
vn 0.2458 0.2906 0.9247
vn -0.2271 0.0017 0.9739
vn 0.9619 0.2708 -0.0362
vn 0.9018 0.4246 0.0811
vn 0.9856 -0.0255 0.1670
vn 0.9957 -0.0841 -0.0378
vn 0.5016 0.4111 0.7612
vn 0.2330 0.2851 -0.9297
vn 0.3787 0.4218 -0.8238
vn 0.5122 -0.0035 -0.8589
vn 0.2563 -0.0254 -0.9663
vn 0.9625 -0.0331 -0.2692
vn 0.9062 0.3871 -0.1701
vn 0.4368 0.8947 -0.0935
vn -0.0210 -0.0259 -0.9994
vn 0.0490 0.3925 -0.9184
vn -0.6490 -0.0670 -0.7578
vn -0.9639 -0.0282 -0.2649
vn 0.4898 0.8714 0.0266
vn 0.1236 0.9038 -0.4097
vn -0.5678 0.7001 0.4330
vn -0.9462 0.2326 -0.2252
vn -0.8431 0.2179 0.4916
vn -0.2703 0.2240 0.9364
vn -0.6939 0.2253 0.6840
vn 0.2536 0.6786 -0.6893
vn 0.3980 0.1978 -0.8958
vn 0.9774 0.1931 0.0858
vn 0.4955 0.1936 0.8467
vn 0.9799 0.1991 -0.0117
vn 0.7872 0.6164 0.0182
vn 0.7575 0.6521 0.0297
vn -0.6117 0.2377 -0.7545
vn 0.3185 0.6237 0.7138
vn 0.2092 0.5660 0.7975
vn 0.2579 0.2172 0.9415
vn 0.7738 0.6331 -0.0206
vn 0.9675 0.2215 -0.1219
usemtl T_Frutas_2
s 1
f 27/1/1 28/2/2 54/3/3 53/4/4
f 92/5/5 53/4/4 54/3/3 93/6/6
f 71/7/7 69/8/8 24/9/9 21/10/10
f 141/11/11 140/12/12 156/13/13 146/14/14
f 91/15/15 89/16/16 4/17/17 1/18/18
f 132/19/19 133/20/20 144/21/21
f 81/22/22 79/23/23 13/24/24 11/25/25
f 77/26/26 75/27/27 17/28/28 15/29/29
f 120/30/30 121/31/31 95/32/32 94/33/33
f 73/34/34 71/7/7 21/10/10 19/35/35
f 123/36/36 76/37/37 78/38/38 124/39/39
f 68/40/40 91/15/15 1/18/18 25/41/41
f 122/42/42 123/36/36 97/43/43 96/44/44
f 29/45/45 27/1/1 31/46/46 32/47/47
f 130/48/48 119/49/49 93/6/6 104/50/50
f 126/51/51 82/52/52 84/53/53 127/54/54
f 52/55/55 50/56/56 49/57/57 51/58/58
f 87/59/59 85/60/60 7/61/61 5/62/62
f 98/63/63 124/39/39 125/64/64 99/65/65
f 125/64/64 126/51/51 100/66/66 99/65/65
f 83/67/67 81/22/22 11/25/25 9/68/68
f 103/69/69 129/70/70 130/48/48 104/50/50
f 79/23/23 77/26/26 15/29/29 13/24/24
f 102/71/71 101/72/72 127/54/54 128/73/73
f 75/27/27 73/34/34 19/35/35 17/28/28
f 128/73/73 129/74/70 103/75/69 102/71/71
f 92/5/5 93/6/6 119/49/49 118/76/74
f 142/77/75 143/78/76 144/21/21
f 89/79/16 87/59/59 5/62/62 4/80/17
f 85/60/60 83/67/67 9/68/68 7/61/61
f 94/33/33 92/5/5 118/76/74 120/30/30
f 56/81/77 95/32/32 96/44/44 57/82/78
f 106/83/79 107/84/80 6/85/81 2/86/82
f 72/87/83 121/31/31 120/30/30 70/88/84
f 107/84/80 108/89/85 8/90/86 6/85/81
f 76/37/37 123/36/36 122/42/42 74/91/87
f 34/92/88 36/93/89 109/94/90 108/89/85
f 109/94/90 110/95/91 12/96/92 10/97/93
f 124/39/39 78/38/38 80/98/94 125/64/64
f 82/52/52 126/51/51 125/64/64 80/98/94
f 40/99/95 42/100/96 112/101/97 111/102/98
f 112/101/97 113/103/99 18/104/100 16/105/101
f 128/73/73 127/54/54 84/53/53 86/106/102
f 44/107/103 46/108/104 114/109/105 113/103/99
f 88/110/106 129/74/70 128/73/73 86/106/102
f 46/108/104 48/111/107 115/112/108 114/109/105
f 115/112/108 116/113/109 23/114/110 22/115/111
f 116/116/109 117/117/112 26/118/113 23/119/110
f 66/120/114 119/49/49 130/48/48 90/121/115
f 117/117/112 105/122/116 3/123/117 26/118/113
f 29/45/45 32/47/47 107/84/80 106/83/79
f 28/2/2 27/1/1 29/45/45 30/124/118
f 69/8/8 71/7/7 70/88/84 67/125/119
f 33/126/120 31/46/46 55/127/121 56/81/77
f 27/1/1 53/4/4 55/127/121 31/46/46
f 39/128/122 37/129/123 58/130/124 59/131/125
f 37/129/123 35/132/126 57/82/78 58/130/124
f 36/93/89 34/92/88 33/126/120 35/132/126
f 45/133/127 43/134/128 61/135/129 62/136/130
f 39/128/122 59/131/125 60/137/131 41/138/132
f 38/139/133 37/129/123 39/128/122 40/99/95
f 43/134/128 41/138/132 60/137/131 61/135/129
f 42/100/96 40/99/95 39/128/122 41/138/132
f 91/15/15 90/121/115 88/140/106 89/16/16
f 45/133/127 62/136/130 63/141/134 47/142/135
f 44/107/103 43/134/128 45/133/127 46/108/104
f 49/143/57 47/142/135 63/141/134 64/144/136
f 48/111/107 46/108/104 45/133/127 47/142/135
f 64/145/136 65/146/137 51/58/58 49/57/57
f 28/2/2 51/58/58 65/146/137 54/3/3
f 121/31/31 72/87/83 74/91/87 122/42/42
f 33/126/120 56/81/77 57/82/78 35/132/126
f 118/76/74 67/125/119 70/88/84 120/30/30
f 31/46/46 33/126/120 34/92/88 32/47/47
f 36/93/89 38/139/133 110/95/91 109/94/90
f 108/89/85 109/94/90 10/97/93 8/90/86
f 35/132/126 37/129/123 38/139/133 36/93/89
f 42/100/96 44/107/103 113/103/99 112/101/97
f 38/139/133 40/99/95 111/102/98 110/95/91
f 12/96/92 110/95/91 111/102/98 14/147/138
f 111/102/98 112/101/97 16/105/101 14/147/138
f 41/138/132 43/134/128 44/107/103 42/100/96
f 48/111/107 50/148/56 116/113/109 115/112/108
f 18/104/100 113/103/99 114/109/105 20/149/139
f 114/109/105 115/112/108 22/115/111 20/149/139
f 50/148/56 48/111/107 47/142/135 49/143/57
f 52/55/55 30/124/118 105/122/116 117/117/112
f 130/48/48 129/70/70 88/140/106 90/121/115
f 51/58/58 28/2/2 30/124/118 52/55/55
f 95/32/32 56/81/77 55/127/121 94/33/33
f 96/44/44 97/43/43 58/130/124 57/82/78
f 98/63/63 59/131/125 58/130/124 97/43/43
f 59/131/125 98/63/63 99/65/65 60/137/131
f 99/65/65 100/66/66 61/135/129 60/137/131
f 101/72/72 62/136/130 61/135/129 100/66/66
f 102/71/71 63/141/134 62/136/130 101/72/72
f 102/71/71 103/75/69 64/144/136 63/141/134
f 50/56/56 52/55/55 117/117/112 116/116/109
f 104/50/50 93/6/6 54/3/3 65/146/137
f 69/8/8 68/40/40 25/41/41 24/9/9
f 92/5/5 94/33/33 55/127/121 53/4/4
f 72/87/83 70/88/84 71/7/7 73/34/34
f 75/27/27 74/91/87 72/87/83 73/34/34
f 76/37/37 74/91/87 75/27/27 77/26/26
f 77/26/26 79/23/23 78/38/38 76/37/37
f 66/120/114 90/121/115 91/15/15 68/40/40
f 81/22/22 80/98/94 78/38/38 79/23/23
f 82/52/52 80/98/94 81/22/22 83/67/67
f 83/67/67 85/60/60 84/53/53 82/52/52
f 87/59/59 86/106/102 84/53/53 85/60/60
f 88/110/106 86/106/102 87/59/59 89/79/16
f 103/69/69 104/50/50 65/146/137 64/145/136
f 118/76/74 119/49/49 66/120/114 67/125/119
f 98/63/63 97/43/43 123/36/36 124/39/39
f 101/72/72 100/66/66 126/51/51 127/54/54
f 32/47/47 34/92/88 108/89/85 107/84/80
f 96/44/44 95/32/32 121/31/31 122/42/42
f 3/123/117 105/122/116 106/83/79 2/86/82
f 131/150/140 143/151/76 148/152/141 152/153/142
f 2/154/82 6/155/81 147/156/143 151/157/144
f 140/12/12 139/158/145 150/159/146 156/13/13
f 10/160/93 12/161/92 149/162/147 157/163/148
f 155/164/149 137/165/150 136/166/151 149/162/147
f 23/167/110 26/168/113 148/152/141 153/169/152
f 157/163/148 135/170/153 134/171/154 154/172/155
f 138/173/156 137/165/150 155/164/149 145/174/157
f 136/166/151 135/170/153 157/163/148 149/162/147
f 139/158/145 138/173/156 145/174/157 150/159/146
f 134/171/154 133/175/20 147/156/143 154/172/155
f 142/176/75 141/11/11 146/14/14 153/177/152
f 151/157/144 132/178/19 131/150/140 152/153/142
f 133/20/20 134/179/154 144/21/21
f 143/78/76 131/180/140 144/21/21
f 138/181/156 139/182/145 144/21/21
f 135/183/153 136/184/151 144/21/21
f 139/182/145 140/185/12 144/21/21
f 134/179/154 135/183/153 144/21/21
f 140/185/12 141/186/11 144/21/21
f 141/186/11 142/77/75 144/21/21
f 131/180/140 132/19/19 144/21/21
f 136/184/151 137/187/150 144/21/21
f 133/175/20 132/178/19 151/157/144 147/156/143
f 143/151/76 142/188/75 153/169/152 148/152/141
f 137/187/150 138/181/156 144/21/21
f 16/189/101 18/190/100 150/159/146 145/174/157
f 20/191/139 22/192/111 146/14/14 156/13/13
f 14/193/138 16/189/101 145/174/157 155/164/149
f 8/194/86 10/160/93 157/163/148 154/172/155
f 18/190/100 20/191/139 156/13/13 150/159/146
f 12/161/92 14/193/138 155/164/149 149/162/147
f 26/168/113 3/195/117 152/153/142 148/152/141
f 6/155/81 8/194/86 154/172/155 147/156/143
f 3/195/117 2/154/82 151/157/144 152/153/142
f 22/192/111 23/196/110 153/177/152 146/14/14
f 30/124/118 29/45/45 106/83/79 105/122/116
f 67/125/119 66/120/114 68/40/40 69/8/8
