# Blender v2.80 (sub 75) OBJ File: 'Visualizacion - copia.blend'
# www.blender.org
mtllib PLatano_Maduro.mtl
o PlatanoMaduro.001_banana.001
v 8.549903 0.969885 -6.995977
v 8.517338 0.967755 -6.997367
v 8.512979 0.939810 -7.053924
v 8.546533 0.942228 -7.052038
v 8.548049 0.921558 -7.043077
v 8.514471 0.919009 -7.045229
v 8.548981 0.978582 -7.014501
v 8.515651 0.976238 -7.016256
v 8.521254 0.921061 -6.976974
v 8.553820 0.923192 -6.975585
v 8.521589 0.902464 -6.984540
v 8.554918 0.904809 -6.982784
v 8.512569 0.958707 -7.050258
v 8.546124 0.961124 -7.048372
v 8.516683 0.897780 -7.030596
v 8.550238 0.900197 -7.028710
v 8.230621 0.937565 -6.957040
v 8.231243 0.940747 -6.956316
v 8.230199 0.953527 -6.962196
v 8.228800 0.955771 -6.966292
v 8.225432 0.950683 -6.973296
v 8.225119 0.941833 -6.974103
v 8.225808 0.937816 -6.972372
v 8.225855 0.934721 -6.968140
v 8.662404 0.962582 -6.948835
v 8.663636 0.969686 -6.953128
v 8.663080 0.971543 -6.953114
v 8.659532 0.980153 -6.954855
v 8.652524 0.983140 -6.949652
v 8.651238 0.981981 -6.943982
v 8.652404 0.967722 -6.937419
v 8.654112 0.964410 -6.937962
v 8.332927 0.898344 -6.975786
v 8.333451 0.916924 -6.968333
v 8.329535 0.963618 -6.988727
v 8.326988 0.972118 -7.007502
v 8.319892 0.954668 -7.040972
v 8.319441 0.935789 -7.044524
v 8.320899 0.914781 -7.036249
v 8.323056 0.894925 -7.022911
v 8.287612 0.909226 -6.964962
v 8.289484 0.925371 -6.958524
v 8.286313 0.962942 -6.974719
v 8.282684 0.970625 -6.990983
v 8.269918 0.956951 -7.016222
v 8.268120 0.940507 -7.018758
v 8.269310 0.924379 -7.011434
v 8.270991 0.908766 -7.001343
v 8.591012 0.920711 -7.016962
v 8.588547 0.947094 -7.030835
v 8.589719 0.932789 -7.023254
v 8.584686 0.962527 -7.028478
v 8.570957 0.973799 -7.005604
v 8.568704 0.969735 -6.994067
v 8.571987 0.929539 -6.975567
v 8.575391 0.919817 -6.977642
v 8.614645 0.937286 -6.988452
v 8.613549 0.952055 -6.998333
v 8.614712 0.946923 -6.995758
v 8.611884 0.962458 -6.997667
v 8.605941 0.967350 -6.988670
v 8.604720 0.965605 -6.981369
v 8.606401 0.945022 -6.971896
v 8.608191 0.940058 -6.972986
v 8.654704 0.960299 -6.954084
v 8.653931 0.967866 -6.960258
v 8.655954 0.966714 -6.958444
v 8.652039 0.976608 -6.959671
v 8.645534 0.979338 -6.955041
v 8.644341 0.978305 -6.949578
v 8.645422 0.965071 -6.943489
v 8.647008 0.961996 -6.943991
v 8.226261 0.943450 -6.965596
v 8.657366 0.972652 -6.947369
vt 0.641805 0.553612
vt 0.622156 0.547123
vt 0.637810 0.520296
vt 0.651204 0.529454
vt 0.675045 0.535488
vt 0.678083 0.508055
vt 0.680259 0.508078
vt 0.682668 0.536632
vt 0.641544 0.662186
vt 0.664405 0.663209
vt 0.663561 0.681225
vt 0.641116 0.680781
vt 0.696978 0.663994
vt 0.692870 0.680388
vt 0.672255 0.680729
vt 0.673945 0.663425
vt 0.651910 0.555412
vt 0.674378 0.559449
vt 0.718688 0.669020
vt 0.712712 0.689087
vt 0.703382 0.684444
vt 0.708448 0.666338
vt 0.631330 0.661151
vt 0.610691 0.658347
vt 0.683686 0.560840
vt 0.706667 0.560640
vt 0.700404 0.532024
vt 0.659312 0.531690
vt 0.716927 0.559729
vt 0.727284 0.558428
vt 0.601027 0.657699
vt 0.613128 0.543843
vt 0.631227 0.514310
vt 0.673623 0.506271
vt 0.674724 0.506930
vt 0.708362 0.528722
vt 0.682444 0.507484
vt 0.683582 0.506761
vt 0.612264 0.677502
vt 0.631488 0.679892
vt 0.635022 0.692495
vt 0.621275 0.699666
vt 0.684269 0.505744
vt 0.716247 0.524816
vt 0.670451 0.502112
vt 0.671760 0.504230
vt 0.661821 0.691872
vt 0.641403 0.691592
vt 0.644066 0.711346
vt 0.637977 0.712007
vt 0.666769 0.692798
vt 0.602761 0.678466
vt 0.614344 0.704306
vt 0.696226 0.711491
vt 0.690045 0.706520
vt 0.627304 0.714722
vt 0.685227 0.702653
vt 0.648355 0.711343
vt 0.653274 0.712695
vt 0.660747 0.714997
vt 0.653894 0.710864
vt 0.661614 0.712957
vt 0.656128 0.743134
vt 0.650876 0.743185
vt 0.679816 0.719652
vt 0.677353 0.718794
vt 0.646190 0.742038
vt 0.647618 0.709271
vt 0.665341 0.716412
vt 0.665953 0.715046
vt 0.659032 0.744451
vt 0.679275 0.717293
vt 0.666489 0.745487
vt 0.655258 0.747540
vt 0.650214 0.747693
vt 0.645110 0.743038
vt 0.644010 0.709557
vt 0.633204 0.742844
vt 0.640897 0.742703
vt 0.640695 0.747124
vt 0.632766 0.747178
vt 0.625506 0.713196
vt 0.636545 0.710043
vt 0.665581 0.749897
vt 0.658005 0.748784
vt 0.682775 0.717425
vt 0.668334 0.745734
vt 0.645671 0.747708
vt 0.644712 0.747591
vt 0.667526 0.750101
vt 0.571032 0.507139
vt 0.568709 0.504242
vt 0.572777 0.503159
vt 0.575503 0.507606
vt 0.576947 0.506072
vt 0.576947 0.500520
vt 0.568631 0.503930
vt 0.568667 0.502191
vt 0.569972 0.500400
vt 0.575911 0.499522
vt 0.665581 0.749897
vt 0.655258 0.747540
vt 0.645671 0.747708
vt 0.640695 0.747124
vt 0.632766 0.747178
vt 0.658005 0.748784
vt 0.650214 0.747693
vt 0.644712 0.747591
vn -0.0426 0.9972 -0.0616
vn -0.2037 0.5707 -0.7955
vn -0.4777 0.5820 -0.6581
vn -0.1188 0.9928 0.0163
vn 0.1341 0.0164 0.9908
vn -0.4078 0.1009 0.9075
vn -0.5663 -0.4682 0.6782
vn -0.1347 -0.7656 0.6290
vn -0.0303 0.6954 0.7180
vn 0.0129 0.0097 0.9999
vn -0.0383 0.0260 0.9989
vn -0.0733 0.7014 0.7090
vn 0.0471 -0.8984 -0.4367
vn 0.3016 -0.8577 -0.4165
vn 0.2071 -0.8057 0.5549
vn 0.0367 -0.8128 0.5813
vn 0.1156 0.7178 0.6866
vn 0.1287 -0.0100 0.9916
vn 0.0128 -0.1151 -0.9933
vn 0.2620 -0.1086 -0.9589
vn 0.2733 -0.4412 -0.8548
vn 0.0279 -0.4706 -0.8819
vn -0.0463 0.9982 -0.0379
vn -0.0239 0.5889 -0.8079
vn -0.0100 -0.8288 0.5594
vn -0.1892 -0.8830 -0.4294
vn -0.4847 -0.8252 -0.2900
vn 0.1332 0.6984 0.7032
vn -0.2442 -0.4703 -0.8481
vn -0.2542 -0.1081 -0.9611
vn -0.5870 -0.0957 -0.8039
vn -0.5877 0.7751 0.2320
vn -0.4248 0.5518 0.7177
vn -0.5790 -0.4179 -0.7000
vn -0.8473 -0.5304 0.0282
vn -0.8372 -0.3297 -0.4363
vn 0.1839 0.5886 -0.7872
vn 0.0549 0.9966 -0.0615
vn 0.1518 0.9883 -0.0142
vn 0.4872 0.6009 -0.6337
vn -0.9308 -0.0888 -0.3546
vn -0.8603 0.4463 -0.2464
vn -0.0840 0.0638 0.9944
vn -0.0878 0.7482 0.6576
vn 0.0432 0.9936 -0.1041
vn 0.5241 0.6127 -0.5915
vn 0.2840 -0.6745 0.6814
vn 0.6258 -0.0383 -0.7791
vn 0.6434 -0.3273 -0.6921
vn 0.7411 0.0031 -0.6714
vn 0.6409 -0.6813 -0.3537
vn -0.3783 0.7273 0.5726
vn -0.3720 0.0302 0.9277
vn 0.1222 -0.7218 0.6812
vn -0.2159 0.9540 -0.2079
vn 0.3472 0.5794 -0.7374
vn 0.7130 -0.2903 -0.6383
vn 0.6466 0.0232 -0.7625
vn 0.6513 -0.7445 -0.1470
vn -0.6372 0.6310 0.4425
vn -0.6112 -0.0446 0.7902
vn 0.1834 0.9816 0.0531
vn 0.6793 0.6872 -0.2573
vn 0.6517 -0.1789 -0.7371
vn -0.1696 -0.7555 0.6328
vn 0.5103 -0.8427 -0.1717
vn 0.8194 -0.5452 0.1770
vn 0.3166 -0.4326 0.8442
vn 0.0186 0.1508 0.9884
vn 0.0410 0.7659 0.6416
vn 0.9577 0.2756 -0.0829
vn 0.9703 -0.0624 -0.2338
vn -0.9447 0.0701 0.3203
vn 0.7453 0.3452 0.5704
usemtl T_Frutas_1
s 1
f 36/1/1 37/2/2 45/3/3 44/4/4
f 42/5/5 18/6/6 17/7/7 41/8/8
f 2/9/9 9/10/10 10/11/11 1/12/12
f 15/13/13 16/14/14 12/15/15 11/16/16
f 9/10/10 2/9/9 35/17/17 34/18/18
f 3/19/19 4/20/20 5/21/21 6/22/22
f 36/1/1 8/23/23 13/24/24 37/2/2
f 15/13/13 11/16/16 33/25/25 40/26/26
f 40/26/26 33/25/25 41/8/8 48/27/27
f 34/18/18 35/17/17 43/28/28 42/5/5
f 6/22/22 39/29/29 38/30/30 3/19/19
f 9/10/10 34/18/18 33/25/25 11/16/16
f 33/25/25 34/18/18 42/5/5 41/8/8
f 8/23/23 36/1/1 35/17/17 2/9/9
f 35/17/17 36/1/1 44/4/4 43/28/28
f 3/31/19 38/32/30 37/2/2 13/24/24
f 37/2/2 38/32/30 46/33/31 45/3/3
f 44/4/4 20/34/32 19/35/33 43/28/28
f 47/36/34 48/27/27 24/37/35 23/38/36
f 14/39/37 7/40/38 53/41/39 52/42/40
f 48/27/27 41/8/8 17/7/7 24/37/35
f 47/36/34 23/38/36 22/43/41 46/44/31
f 38/30/30 39/29/29 47/36/34 46/44/31
f 46/33/31 22/45/41 21/46/42 45/3/3
f 44/4/4 45/3/3 21/46/42 20/34/32
f 1/12/12 10/11/11 55/47/43 54/48/44
f 52/42/40 53/41/39 61/49/45 60/50/46
f 10/11/11 12/15/15 56/51/47 55/47/43
f 1/12/12 54/48/44 53/41/39 7/40/38
f 4/52/20 14/39/37 52/42/40 50/53/48
f 5/21/21 4/20/20 50/54/48 51/55/49
f 50/53/48 52/42/40 60/50/46 58/56/50
f 12/15/15 16/14/14 49/57/51 56/51/47
f 53/41/39 54/48/44 62/58/52 61/49/45
f 54/48/44 55/47/43 63/59/53 62/58/52
f 55/47/43 56/51/47 64/60/54 63/59/53
f 60/61/46 61/62/45 69/63/55 68/64/56
f 51/55/49 50/54/48 58/65/50 59/66/57
f 60/61/46 68/64/56 66/67/58 58/68/50
f 56/51/47 49/57/51 57/69/59 64/60/54
f 62/70/52 70/71/60 69/63/55 61/62/45
f 62/70/52 63/72/53 71/73/61 70/71/60
f 68/64/56 69/63/55 29/74/62 28/75/63
f 58/68/50 66/67/58 67/76/64 59/77/57
f 72/78/65 65/79/66 25/80/67 32/81/68
f 64/82/54 57/83/59 65/79/66 72/78/65
f 70/71/60 71/73/61 31/84/69 30/85/70
f 64/86/54 72/87/65 71/73/61 63/72/53
f 66/67/58 27/88/71 26/89/72 67/76/64
f 68/64/56 28/75/63 27/88/71 66/67/58
f 70/71/60 30/85/70 29/74/62 69/63/55
f 72/87/65 32/90/68 31/84/69 71/73/61
f 43/28/28 19/35/33 18/6/6 42/5/5
f 7/40/38 14/39/37 13/24/24 8/23/23
f 6/22/22 15/13/13 40/26/26 39/29/29
f 57/83/59 59/77/57 67/76/64 65/79/66
f 65/79/66 67/76/64 26/89/72 25/80/67
f 49/57/51 51/55/49 59/66/57 57/69/59
f 16/14/14 5/21/21 51/55/49 49/57/51
f 6/22/22 5/21/21 16/14/14 15/13/13
f 47/36/34 39/29/29 40/26/26 48/27/27
f 8/23/23 2/9/9 1/12/12 7/40/38
f 9/10/10 11/16/16 12/15/15 10/11/11
f 21/91/42 22/92/41 73/93/73
f 20/94/32 21/91/42 73/93/73
f 19/95/33 20/94/32 73/93/73
f 18/96/6 19/95/33 73/93/73
f 22/97/41 23/98/36 73/93/73
f 23/98/36 24/99/35 73/93/73
f 24/99/35 17/100/7 73/93/73
f 17/100/7 18/96/6 73/93/73
f 3/31/19 13/24/24 14/39/37 4/52/20
f 31/84/69 32/90/68 74/101/74
f 29/74/62 30/85/70 74/102/74
f 27/88/71 28/75/63 74/103/74
f 25/80/67 26/89/72 74/104/74
f 32/81/68 25/80/67 74/105/74
f 30/85/70 31/84/69 74/106/74
f 28/75/63 29/74/62 74/107/74
f 26/89/72 27/88/71 74/108/74
