# Blender v2.80 (sub 75) OBJ File: 'props_sara.blend'
# www.blender.org
mtllib Cuchillo_2.mtl
o Cuchillo_2_Cube.002
v -2.281408 0.082553 0.014603
v -2.276813 3.612320 0.100046
v -2.281408 0.082553 -0.014603
v -2.277998 3.612320 -0.100046
v 5.148095 0.022098 0.014603
v 4.809446 3.451018 0.100046
v 5.148095 0.022098 -0.014603
v 4.809446 3.451018 -0.100046
v 2.950570 -0.226652 -0.014603
v 0.978286 -0.239444 -0.014603
v -0.993997 -0.138199 -0.014603
v -1.012899 3.592284 -0.100046
v 0.959385 3.556156 -0.100046
v 2.931669 3.592284 -0.100046
v -0.993997 -0.138199 0.014603
v 0.978286 -0.239444 0.014603
v 2.950570 -0.226652 0.014603
v 2.931669 3.592284 0.100046
v 0.959385 3.556156 0.100046
v -1.012899 3.592284 0.100046
v -2.228904 1.072800 0.100046
v -2.185601 2.773457 0.100046
v -2.192481 2.773457 -0.100046
v -2.228904 1.072800 -0.100046
v 5.045713 2.442966 -0.100046
v 5.133973 1.041758 -0.100046
v 5.045713 2.442966 0.100046
v 5.133973 1.041758 0.100046
v 2.931669 2.314949 0.100046
v 2.931669 0.766597 0.100046
v 0.959385 2.314949 0.100046
v 0.959385 0.766597 0.100046
v -1.012899 2.451039 0.100046
v -1.012899 0.902687 0.100046
v -1.012899 2.451039 -0.100046
v -1.012899 0.902687 -0.100046
v 0.959385 2.314949 -0.100046
v 0.959385 0.766597 -0.100046
v 2.931669 2.314949 -0.100046
v 2.931669 0.766597 -0.100046
v 4.268511 3.660677 -0.100046
v 4.274601 -0.127321 0.014603
v 4.274601 -0.127321 -0.014603
v 4.268511 3.660677 0.100046
v 4.364598 0.897216 0.100046
v 4.364598 2.445567 0.100046
v 4.364598 0.897216 -0.100046
v 4.364598 2.445567 -0.100046
v 4.227684 2.608637 -0.100046
v 4.227684 2.608637 0.100046
v 4.090337 2.571835 -0.100046
v 4.090337 2.571835 0.100046
v 3.815643 2.846131 -0.100046
v 3.815643 2.846131 0.100046
v 4.328229 2.983877 -0.100046
v 4.328229 2.983877 0.100046
v 3.952990 3.084422 -0.100046
v 3.952990 3.084422 0.100046
v 3.852445 2.983877 -0.100046
v 3.852445 2.983877 0.100046
v 4.227684 3.084422 -0.100046
v 4.227684 3.084422 0.100046
v 4.321498 2.990609 -0.100046
v 4.321498 2.990609 0.100046
v 4.365032 2.846530 -0.100046
v 4.365032 2.846530 0.100046
v 3.952990 2.608637 -0.100046
v 3.952990 2.608637 0.100046
v 4.090337 3.121225 -0.100046
v 4.090337 3.121225 0.100046
v 4.340215 2.753912 -0.100046
v 4.328229 2.709183 -0.100046
v 4.340215 2.753912 0.100046
v 4.328229 2.709183 0.100046
v 3.852445 2.708425 -0.100046
v 3.852445 2.708425 0.100046
v -8.082513 2.542532 0.288502
v -8.082513 3.759973 0.288502
v -8.082513 2.542532 -0.288502
v -8.082513 3.759973 -0.288502
v -2.132544 2.589520 0.266231
v -2.132544 3.712984 0.266231
v -2.132544 2.589520 -0.266231
v -2.132544 3.712984 -0.266231
v -2.206541 2.694007 -0.288502
v -2.206541 3.759973 -0.288502
v -2.206541 2.694007 0.288502
v -2.206541 3.759973 0.288502
v -7.440256 2.634374 -0.288502
v -7.440256 3.759973 0.288502
v -7.440256 3.759973 -0.288502
v -7.440256 2.634374 0.288502
v -7.833638 2.269228 -0.288502
v -7.833638 3.759973 0.288502
v -7.833638 3.759973 -0.288502
v -7.833638 2.269228 0.288502
v -8.273904 2.542532 0.000000
v -8.273904 3.759973 0.000000
v -2.132544 2.589520 0.000000
v -2.132544 3.712984 0.000000
v -2.206541 3.759973 0.000000
v -2.206541 2.694007 0.000000
v -7.440256 2.634374 0.000000
v -7.440256 3.759973 0.000000
v -7.833638 2.269228 0.000000
v -7.833638 3.759973 0.000000
v -4.823398 3.759973 -0.391094
v -4.823398 2.464187 0.391094
v -4.823398 2.464187 -0.391094
v -4.823398 3.759973 0.391094
v -4.823398 3.759973 0.000000
v -4.823398 2.464187 0.000000
vt 0.875000 0.750000
vt 0.541667 0.250000
vt 0.541667 0.000000
vt 0.578668 0.480073
vt 0.579046 0.479863
vt 0.625000 0.500000
vt 0.541667 0.500000
vt 0.625000 0.750000
vt 0.541667 0.750000
vt 0.625000 0.937500
vt 0.541667 1.000000
vt 0.541667 0.937500
vt 0.375000 0.500000
vt 0.354863 0.750000
vt 0.354863 0.500000
vt 0.812500 0.500000
vt 0.812500 0.750000
vt 0.687500 0.500000
vt 0.645137 0.750000
vt 0.645137 0.500000
vt 0.750000 0.500000
vt 0.687500 0.750000
vt 0.750000 0.750000
vt 0.125000 0.500000
vt 0.187500 0.750000
vt 0.125000 0.750000
vt 0.250000 0.500000
vt 0.187500 0.500000
vt 0.312500 0.500000
vt 0.250000 0.750000
vt 0.541667 0.812500
vt 0.560040 0.784890
vt 0.569679 0.785777
vt 0.625000 0.875000
vt 0.541667 0.875000
vt 0.625000 0.312500
vt 0.541667 0.312500
vt 0.625000 0.375000
vt 0.541667 0.375000
vt 0.541667 0.437500
vt 0.375000 0.375000
vt 0.458333 0.437500
vt 0.375000 0.437500
vt 0.458333 0.375000
vt 0.375000 0.312500
vt 0.458333 0.312500
vt 0.375000 0.250000
vt 0.458333 0.250000
vt 0.458333 0.875000
vt 0.375000 0.937500
vt 0.375000 0.875000
vt 0.458333 0.937500
vt 0.458333 0.812500
vt 0.375000 0.812500
vt 0.375000 0.770137
vt 0.458333 0.770137
vt 0.375000 1.000000
vt 0.458333 1.000000
vt 0.458333 0.500000
vt 0.375000 0.750000
vt 0.458333 0.750000
vt 0.458333 0.479863
vt 0.375000 0.479863
vt 0.541667 0.479863
vt 0.458333 0.000000
vt 0.375000 0.000000
vt 0.541667 0.770137
vt 0.578668 0.769926
vt 0.569501 0.769080
vt 0.312500 0.750000
vt 0.560039 0.465110
vt 0.552987 0.467945
vt 0.416667 0.670158
vt 0.500000 0.852262
vt 0.500000 0.670158
vt 0.333333 0.852262
vt 0.333333 0.670158
vt 0.750000 0.852262
vt 0.833333 0.670158
vt 0.750000 0.670158
vt 0.583333 0.670158
vt 0.693806 0.670158
vt 0.250000 0.852262
vt 0.250000 0.670158
vt 0.166667 0.852262
vt 0.166667 0.670158
vt 0.083333 0.852262
vt 0.083333 0.670158
vt 0.916667 0.670158
vt 1.000000 0.852262
vt 1.000000 0.670158
vt 0.916667 0.852262
vt 0.838913 0.670158
vt 0.000000 0.852262
vt 0.000000 0.670158
vt 0.583333 0.852262
vt 0.666667 0.670158
vt 0.625000 0.250000
vt 0.562813 0.479863
vt 0.569501 0.480920
vt 0.625000 0.479863
vt 0.625000 1.000000
vt 0.875000 0.500000
vt 0.562813 0.770137
vt 0.559760 0.770605
vt 0.552924 0.773861
vt 0.625000 0.770137
vt 0.625000 0.812500
vt 0.586087 0.781186
vt 0.579242 0.784437
vt 0.585622 0.772779
vt 0.579046 0.770137
vt 0.588391 0.776903
vt 0.550412 0.778034
vt 0.552987 0.782055
vt 0.625000 0.437500
vt 0.569678 0.464223
vt 0.586087 0.468814
vt 0.579242 0.465563
vt 0.585622 0.477221
vt 0.588391 0.473097
vt 0.559760 0.479395
vt 0.552924 0.476139
vt 0.550411 0.471966
vt 0.416667 0.852262
vt 0.833333 0.852262
vt 0.666667 0.852262
vt 0.693806 0.852262
vt 0.838913 0.852262
vt 0.375000 0.125000
vt 0.625000 0.125000
vt 0.625000 0.250000
vt 0.375000 0.250000
vt 0.375000 0.494886
vt 0.625000 0.494886
vt 0.625000 0.500000
vt 0.375000 0.500000
vt 0.375000 0.625000
vt 0.625000 0.625000
vt 0.625000 0.750000
vt 0.375000 0.750000
vt 0.375000 0.989628
vt 0.625000 0.989628
vt 0.625000 1.000000
vt 0.375000 1.000000
vt 0.369886 0.625000
vt 0.369886 0.750000
vt 0.864628 0.625000
vt 0.875000 0.625000
vt 0.875000 0.750000
vt 0.864628 0.750000
vt 0.630114 0.625000
vt 0.630114 0.750000
vt 0.260827 0.625000
vt 0.260826 0.750000
vt 0.625000 0.755114
vt 0.375000 0.755114
vt 0.375000 0.385827
vt 0.625000 0.385827
vt 0.375000 0.260372
vt 0.625000 0.260372
vt 0.625000 0.276767
vt 0.375000 0.276767
vt 0.135372 0.625000
vt 0.151767 0.625000
vt 0.151767 0.750000
vt 0.135372 0.750000
vt 0.739174 0.625000
vt 0.848233 0.625000
vt 0.848233 0.750000
vt 0.739174 0.750000
vt 0.375000 0.864173
vt 0.625000 0.864174
vt 0.625000 0.973233
vt 0.375000 0.973233
vt 0.125000 0.625000
vt 0.125000 0.750000
vt 0.848233 0.500000
vt 0.864628 0.500000
vt 0.125000 0.500000
vt 0.135372 0.500000
vt 0.739174 0.500000
vt 0.151767 0.500000
vt 0.260826 0.500000
vt 0.369886 0.500000
vt 0.630114 0.500000
vt 0.875000 0.500000
vt 0.375000 0.000000
vt 0.625000 0.000000
vn -0.9936 -0.1080 0.0342
vn 0.0000 -0.0000 -1.0000
vn 0.9736 0.2282 0.0000
vn 0.0000 0.0000 1.0000
vn 0.1686 -0.9857 0.0000
vn 0.0159 0.9999 0.0000
vn -0.0511 0.9987 0.0000
vn -0.0183 0.9998 0.0000
vn 0.0183 0.9998 0.0000
vn -0.1690 -0.9856 0.0000
vn -0.0513 -0.9987 0.0000
vn 0.0065 -1.0000 0.0000
vn 0.0006 -0.0857 -0.9963
vn -0.0043 -0.0847 -0.9964
vn -0.0141 -0.0821 -0.9965
vn -0.0043 -0.0847 0.9964
vn 0.0006 -0.0857 0.9963
vn 0.0064 -0.0856 0.9963
vn -0.0141 -0.0821 0.9965
vn 0.9999 0.0138 0.0000
vn 0.9980 0.0629 0.0000
vn 0.0144 -0.0844 -0.9963
vn -0.9986 0.0529 0.0000
vn -0.9998 0.0214 -0.0000
vn 0.0064 -0.0856 -0.9963
vn 0.0144 -0.0844 0.9963
vn 0.3614 0.9324 0.0000
vn 0.0748 -0.9972 0.0000
vn 0.2588 0.9659 0.0000
vn 0.7044 0.7098 -0.0000
vn -0.9659 -0.2588 0.0000
vn -0.2588 0.9659 0.0000
vn -0.9659 0.2588 0.0000
vn 0.9661 0.2582 0.0000
vn 0.9661 -0.2581 0.0000
vn 0.7071 -0.7071 0.0000
vn -0.2588 -0.9659 0.0000
vn -0.7071 -0.7071 0.0000
vn 0.2588 -0.9659 0.0000
vn -0.7071 0.7071 0.0000
vn -0.9948 -0.1014 0.0059
vn 0.0158 0.9999 -0.0001
vn 0.0000 -0.0846 -0.9964
vn -0.0057 -0.0819 -0.9966
vn -0.0119 -0.0853 -0.9963
vn -0.0057 -0.0819 0.9966
vn 0.0000 -0.0846 0.9964
vn 0.0076 -0.0838 0.9965
vn -0.0119 -0.0853 0.9963
vn 0.0156 -0.0833 -0.9964
vn -0.9991 0.0254 0.0344
vn 0.0076 -0.0838 -0.9965
vn 0.0156 -0.0833 0.9964
vn -0.9659 0.2589 0.0000
vn -0.8333 0.0000 -0.5528
vn 0.1905 0.0000 -0.9817
vn 0.1385 0.0000 -0.9904
vn 0.2882 0.0000 -0.9576
vn 1.0000 0.0000 0.0000
vn -0.8161 -0.5779 0.0000
vn 0.0000 1.0000 0.0000
vn 0.5361 0.8442 0.0000
vn 0.0113 -0.9999 0.0000
vn 0.0875 -0.9962 0.0000
vn 0.2882 0.0000 0.9576
vn 0.1385 0.0000 0.9904
vn 0.1905 0.0000 0.9817
vn -0.0003 0.0000 -1.0000
vn -0.0196 0.0000 -0.9998
vn -0.0162 0.0000 -0.9999
vn 0.6803 -0.7329 0.0000
vn -0.0003 0.0000 1.0000
vn -0.0196 0.0000 0.9998
vn -0.0162 0.0000 0.9999
vn -0.6214 -0.7835 0.0000
vn -0.6086 -0.7673 0.2019
vn -0.6086 -0.7673 -0.2019
vn -0.8333 0.0000 0.5528
vn -0.0649 -0.9979 0.0000
usemtl None
s off
f 2/1/1 23/2/1 22/3/1
f 55/4/2 63/5/2 8/6/2
f 25/7/3 6/8/3 27/9/3
f 20/10/4 22/11/4 33/12/4
f 7/13/5 42/14/5 43/15/5
f 12/16/6 2/1/6 20/17/6
f 14/18/7 44/19/7 41/20/7
f 13/21/8 18/22/8 14/18/8
f 12/16/9 19/23/9 13/21/9
f 3/24/10 15/25/10 1/26/10
f 10/27/11 15/25/11 11/28/11
f 9/29/12 16/30/12 10/27/12
f 29/31/4 76/32/4 54/33/4
f 29/31/4 19/34/4 31/35/4
f 19/34/4 33/12/4 31/35/4
f 23/2/2 12/36/2 35/37/2
f 35/37/2 13/38/2 37/39/2
f 13/38/2 39/40/2 37/39/2
f 10/41/13 40/42/13 9/43/13
f 37/39/2 40/42/2 38/44/2
f 11/45/14 38/44/14 10/41/14
f 36/46/2 37/39/2 38/44/2
f 3/47/15 36/46/15 11/45/15
f 24/48/2 35/37/2 36/46/2
f 32/49/16 15/50/16 16/51/16
f 31/35/4 34/52/4 32/49/4
f 30/53/17 16/51/17 17/54/17
f 29/31/4 32/49/4 30/53/4
f 42/55/18 30/53/18 17/54/18
f 45/56/4 29/31/4 30/53/4
f 34/52/19 1/57/19 15/50/19
f 33/12/4 21/58/4 34/52/4
f 26/59/20 5/60/20 7/13/20
f 25/7/21 28/61/21 26/59/21
f 47/62/22 7/13/22 43/63/22
f 48/64/2 26/59/2 47/62/2
f 21/65/23 3/47/23 1/66/23
f 21/65/24 23/2/24 24/48/24
f 39/40/2 47/62/2 40/42/2
f 40/42/25 43/63/25 9/43/25
f 28/61/4 46/67/4 45/56/4
f 5/60/26 45/56/26 42/55/26
f 6/8/4 56/68/4 66/69/4
f 41/20/27 6/8/27 8/6/27
f 43/15/28 17/70/28 9/29/28
f 39/40/2 75/71/2 67/72/2
f 67/73/29 52/74/29 51/75/29
f 76/76/30 67/73/30 75/77/30
f 66/78/31 55/79/31 65/80/31
f 52/74/32 49/81/32 51/75/32
f 66/78/33 65/80/33 71/82/33
f 54/83/34 75/77/34 53/84/34
f 60/85/35 53/84/35 59/86/35
f 58/87/36 59/86/36 57/88/36
f 61/89/37 70/90/37 69/91/37
f 62/92/38 61/89/38 63/93/38
f 70/94/39 57/88/39 69/95/39
f 50/96/40 72/97/40 49/81/40
f 2/1/41 4/98/41 23/2/41
f 25/7/2 48/64/2 71/99/2
f 25/7/2 71/99/2 65/100/2
f 41/101/2 8/6/2 63/5/2
f 8/6/2 25/7/2 65/100/2
f 55/4/2 8/6/2 65/100/2
f 25/7/3 8/6/3 6/8/3
f 20/10/4 2/102/4 22/11/4
f 7/13/5 5/60/5 42/14/5
f 12/16/42 4/103/42 2/1/42
f 14/18/7 18/22/7 44/19/7
f 13/21/8 19/23/8 18/22/8
f 12/16/9 20/17/9 19/23/9
f 3/24/10 11/28/10 15/25/10
f 10/27/11 16/30/11 15/25/11
f 9/29/12 17/70/12 16/30/12
f 46/67/4 73/104/4 74/105/4
f 46/67/4 74/105/4 50/106/4
f 44/107/4 18/108/4 58/109/4
f 18/108/4 29/31/4 54/33/4
f 60/110/4 18/108/4 54/33/4
f 62/111/4 64/112/4 44/107/4
f 70/113/4 62/111/4 44/107/4
f 46/67/4 50/106/4 52/114/4
f 46/67/4 52/114/4 29/31/4
f 52/114/4 68/115/4 29/31/4
f 58/109/4 70/113/4 44/107/4
f 60/110/4 58/109/4 18/108/4
f 29/31/4 68/115/4 76/32/4
f 29/31/4 18/108/4 19/34/4
f 19/34/4 20/10/4 33/12/4
f 23/2/2 4/98/2 12/36/2
f 35/37/2 12/36/2 13/38/2
f 13/38/2 14/116/2 39/40/2
f 10/41/43 38/44/43 40/42/43
f 37/39/2 39/40/2 40/42/2
f 11/45/44 36/46/44 38/44/44
f 36/46/2 35/37/2 37/39/2
f 3/47/45 24/48/45 36/46/45
f 24/48/2 23/2/2 35/37/2
f 32/49/46 34/52/46 15/50/46
f 31/35/4 33/12/4 34/52/4
f 30/53/47 32/49/47 16/51/47
f 29/31/4 31/35/4 32/49/4
f 42/55/48 45/56/48 30/53/48
f 45/56/4 46/67/4 29/31/4
f 34/52/49 21/58/49 1/57/49
f 33/12/4 22/11/4 21/58/4
f 26/59/20 28/61/20 5/60/20
f 25/7/21 27/9/21 28/61/21
f 47/62/50 26/59/50 7/13/50
f 48/64/2 25/7/2 26/59/2
f 21/65/23 24/48/23 3/47/23
f 21/65/51 22/3/51 23/2/51
f 39/40/2 48/64/2 47/62/2
f 40/42/52 47/62/52 43/63/52
f 28/61/4 27/9/4 46/67/4
f 5/60/53 28/61/53 45/56/53
f 46/67/4 27/9/4 73/104/4
f 27/9/4 6/8/4 66/69/4
f 73/104/4 27/9/4 66/69/4
f 6/8/4 44/107/4 64/112/4
f 6/8/4 64/112/4 56/68/4
f 41/20/27 44/19/27 6/8/27
f 43/15/28 42/14/28 17/70/28
f 39/40/2 14/116/2 53/117/2
f 14/116/2 41/101/2 57/118/2
f 59/119/2 14/116/2 57/118/2
f 41/101/2 63/5/2 61/120/2
f 41/101/2 61/120/2 69/121/2
f 72/122/2 71/99/2 48/64/2
f 49/123/2 72/122/2 48/64/2
f 41/101/2 69/121/2 57/118/2
f 51/124/2 49/123/2 48/64/2
f 67/72/2 51/124/2 39/40/2
f 51/124/2 48/64/2 39/40/2
f 14/116/2 59/119/2 53/117/2
f 39/40/2 53/117/2 75/71/2
f 67/73/29 68/125/29 52/74/29
f 76/76/30 68/125/30 67/73/30
f 66/78/31 56/126/31 55/79/31
f 52/74/32 50/96/32 49/81/32
f 71/82/33 72/97/33 74/127/33
f 74/127/54 73/128/54 71/82/54
f 73/128/33 66/78/33 71/82/33
f 54/83/34 76/76/34 75/77/34
f 60/85/35 54/83/35 53/84/35
f 58/87/36 60/85/36 59/86/36
f 61/89/37 62/92/37 70/90/37
f 63/93/38 55/79/38 64/129/38
f 55/79/38 56/126/38 64/129/38
f 64/129/38 62/92/38 63/93/38
f 70/94/39 58/87/39 57/88/39
f 50/96/40 74/127/40 72/97/40
s 1
f 97/130/55 98/131/55 80/132/55 79/133/55
f 85/134/56 86/135/57 84/136/58 83/137/58
f 99/138/59 100/139/59 82/140/59 81/141/59
f 96/142/4 94/143/4 78/144/4 77/145/4
f 102/146/60 99/138/60 81/141/60 87/147/60
f 106/148/61 98/149/61 78/150/61 94/151/61
f 100/139/62 101/152/62 88/153/62 82/140/62
f 112/154/63 102/146/64 87/147/64 108/155/63
f 81/141/65 82/140/65 88/156/66 87/157/67
f 109/158/68 107/159/2 86/135/57 85/134/56
f 93/160/2 95/161/2 91/162/69 89/163/70
f 105/164/71 103/165/71 92/166/71 96/167/71
f 111/168/61 104/169/61 90/170/61 110/171/61
f 108/172/72 110/173/4 90/174/73 92/175/74
f 97/176/75 105/164/75 96/167/76 77/177/76
f 79/133/2 80/132/2 95/161/2 93/160/2
f 104/169/61 106/148/61 94/151/61 90/170/61
f 92/175/74 90/174/73 94/143/4 96/142/4
f 91/178/61 95/179/61 106/148/61 104/169/61
f 79/180/77 93/181/77 105/164/75 97/176/75
f 107/182/61 91/178/61 104/169/61 111/168/61
f 93/181/71 89/183/71 103/165/71 105/164/71
f 109/184/63 85/185/64 102/146/64 112/154/63
f 84/136/62 86/186/62 101/152/62 100/139/62
f 95/179/61 80/187/61 98/149/61 106/148/61
f 85/185/60 83/137/60 99/138/60 102/146/60
f 83/137/59 84/136/59 100/139/59 99/138/59
f 77/188/78 78/189/78 98/131/78 97/130/78
f 89/183/79 109/184/63 112/154/63 103/165/79
f 86/186/61 107/182/61 111/168/61 101/152/61
f 87/157/67 88/156/66 110/173/4 108/172/72
f 101/152/61 111/168/61 110/171/61 88/153/61
f 89/163/70 91/162/69 107/159/2 109/158/68
f 103/165/79 112/154/63 108/155/63 92/166/79
