# Blender v2.80 (sub 75) OBJ File: 'props_sara.blend'
# www.blender.org
mtllib Cuchillo_1.mtl
o Cuchillo_1_Cube.005
v -0.390244 0.360611 -0.388893
v 0.203525 2.006200 -0.388893
v -0.390244 0.360611 0.388893
v 0.203525 2.006200 0.388893
v -6.506782 0.360611 -0.388891
v -7.055189 1.704125 -0.388891
v -6.506782 0.360611 0.388895
v -7.055189 1.704125 0.388895
v -5.859337 0.751218 0.388895
v -5.859337 1.944417 0.388895
v -5.859337 0.751218 -0.388891
v -5.859337 1.944417 -0.388891
v -1.140751 0.901289 0.388893
v -1.130451 1.739294 -0.388893
v -1.130451 1.739294 0.388893
v -1.140751 0.901289 -0.388893
v -0.044685 1.117452 -0.388893
v -0.044684 1.117452 0.388893
v -6.787641 1.117452 0.388895
v -6.787641 1.117452 -0.388891
v -5.859337 1.117452 -0.388891
v -5.859337 1.117452 0.388895
v -1.130451 1.117452 0.388893
v -1.130451 1.117452 -0.388893
v -0.996421 0.360611 0.388893
v -0.996421 1.811080 -0.388893
v -0.996421 1.811080 0.388893
v -0.996421 0.360611 -0.388893
v -0.996421 1.117452 0.388893
v -0.996421 1.117452 -0.388893
v -3.494894 1.935025 0.388894
v -3.494894 0.360611 -0.388892
v -3.494894 0.360611 0.388894
v -3.494895 1.935025 -0.388892
v -3.494895 1.117452 -0.388892
v -3.494894 1.117452 0.388894
v -5.967245 1.938330 0.388895
v -5.967245 0.360611 -0.388891
v -5.967245 0.360611 0.388895
v -5.967245 1.938330 -0.388891
v -5.967245 1.117452 -0.388891
v -5.967245 1.117452 0.388895
v -0.521908 0.360611 0.388893
v 0.071861 1.981199 -0.388893
v -0.242849 1.117452 -0.388893
v 0.071861 1.981199 0.388893
v -0.521908 0.360611 -0.388893
v -0.242849 1.117452 0.388893
v 7.391901 0.690588 -0.018002
v 8.482915 1.788177 -0.018003
v 7.391901 0.690588 0.017998
v 8.482915 1.788177 0.017998
v -0.462855 0.540071 -0.018000
v -0.462856 1.788177 -0.083486
v -0.462855 0.540071 0.018001
v -0.462856 1.788177 0.083487
v 8.019085 1.003120 -0.018002
v 8.330358 1.395649 -0.018003
v 8.330358 1.395649 0.017998
v 8.019085 1.003120 0.017998
v -0.462856 1.395649 0.083487
v -0.462856 1.003120 0.083487
v -0.462856 1.395649 -0.083486
v -0.462856 1.003120 -0.083486
v 3.445741 0.574573 0.017999
v 3.661326 1.788177 0.083486
v 3.445741 0.574573 -0.018001
v 3.661327 1.788177 -0.083488
v 3.537974 1.003120 -0.083488
v 3.610474 1.395649 -0.083488
v 3.537974 1.003120 0.083486
v 3.610474 1.395649 0.083486
v 6.895840 0.610592 0.017998
v 7.542598 1.788177 -0.083489
v 7.172541 1.003120 -0.083489
v 7.390040 1.395649 -0.083489
v 7.542598 1.788177 0.083485
v 6.895840 0.610592 -0.018002
v 7.172541 1.003120 0.083485
v 7.390040 1.395649 0.083485
vt 0.500000 0.000000
vt 0.625000 0.000000
vt 0.625000 0.250000
vt 0.500000 0.250000
vt 0.500000 0.479369
vt 0.625000 0.479369
vt 0.625000 0.500000
vt 0.500000 0.500000
vt 0.625000 0.750000
vt 0.500000 0.750000
vt 0.500000 0.994965
vt 0.625000 0.994965
vt 0.625000 1.000000
vt 0.500000 1.000000
vt 0.354369 0.500000
vt 0.375000 0.500000
vt 0.375000 0.750000
vt 0.354369 0.750000
vt 0.869965 0.500000
vt 0.875000 0.500000
vt 0.875000 0.750000
vt 0.869965 0.750000
vt 0.645631 0.500000
vt 0.649757 0.500000
vt 0.649757 0.750000
vt 0.645631 0.750000
vt 0.259830 0.500000
vt 0.350243 0.500000
vt 0.350243 0.750000
vt 0.259830 0.750000
vt 0.500000 0.770631
vt 0.625000 0.770631
vt 0.625000 0.774757
vt 0.500000 0.774757
vt 0.500000 0.384830
vt 0.625000 0.384830
vt 0.625000 0.475243
vt 0.500000 0.475243
vt 0.500000 0.289292
vt 0.625000 0.289292
vt 0.625000 0.294418
vt 0.500000 0.294418
vt 0.164292 0.500000
vt 0.169417 0.500000
vt 0.169417 0.750000
vt 0.164292 0.750000
vt 0.740170 0.500000
vt 0.830583 0.500000
vt 0.830583 0.750000
vt 0.740170 0.750000
vt 0.500000 0.865170
vt 0.625000 0.865170
vt 0.625000 0.955582
vt 0.500000 0.955582
vt 0.375000 0.865170
vt 0.375000 0.955583
vt 0.375000 0.289292
vt 0.375000 0.294417
vt 0.375000 0.384830
vt 0.375000 0.475243
vt 0.375000 0.770631
vt 0.375000 0.774757
vt 0.375000 0.994965
vt 0.375000 1.000000
vt 0.375000 0.479369
vt 0.375000 0.000000
vt 0.375000 0.250000
vt 0.500000 0.960708
vt 0.375000 0.960708
vt 0.375000 0.255035
vt 0.500000 0.255035
vt 0.130035 0.500000
vt 0.130035 0.750000
vt 0.625000 0.255035
vt 0.835708 0.500000
vt 0.835708 0.750000
vt 0.625000 0.960708
vt 0.125000 0.500000
vt 0.125000 0.750000
vt 0.541667 0.000000
vt 0.625000 0.000000
vt 0.625000 0.250000
vt 0.541667 0.250000
vt 0.541667 0.416667
vt 0.625000 0.416667
vt 0.625000 0.500000
vt 0.541667 0.500000
vt 0.541667 0.979254
vt 0.625000 0.979617
vt 0.625000 1.000000
vt 0.541667 1.000000
vt 0.291667 0.500000
vt 0.375000 0.500000
vt 0.375000 0.750000
vt 0.291667 0.750000
vt 0.854617 0.500000
vt 0.875000 0.500000
vt 0.875000 0.750000
vt 0.854617 0.750000
vt 0.375000 0.977983
vt 0.458333 0.978713
vt 0.458333 1.000000
vt 0.375000 1.000000
vt 0.375000 0.416667
vt 0.458333 0.416667
vt 0.458333 0.500000
vt 0.375000 0.000000
vt 0.458333 0.000000
vt 0.458333 0.250000
vt 0.375000 0.250000
vt 0.458333 0.271287
vt 0.375000 0.272017
vt 0.541667 0.833333
vt 0.458333 0.833333
vt 0.458333 0.750000
vt 0.541667 0.750000
vt 0.375000 0.833333
vt 0.708333 0.750000
vt 0.708333 0.500000
vt 0.625000 0.750000
vt 0.147017 0.750000
vt 0.147017 0.500000
vt 0.625000 0.833333
vt 0.625000 0.270383
vt 0.541667 0.270746
vt 0.125000 0.500000
vt 0.125000 0.750000
vn 0.6798 -0.2484 -0.6900
vn 0.6116 0.5619 -0.5569
vn 0.6116 0.5619 0.5569
vn 0.6798 -0.2484 0.6900
vn 0.0000 0.0000 1.0000
vn -0.0968 0.7173 0.6900
vn -0.7362 0.3697 0.5668
vn -0.6458 -0.2667 0.7154
vn -0.7362 0.3697 -0.5668
vn -0.6458 -0.2667 -0.7154
vn 0.0000 0.0000 -1.0000
vn -0.1210 0.6932 -0.7104
vn 0.4877 -0.6408 0.5929
vn -0.4575 -0.6577 0.5983
vn -0.4575 -0.6577 -0.5983
vn 0.4877 -0.6408 -0.5929
vn -0.1210 0.6932 0.7104
vn -0.0187 0.7135 0.7004
vn -0.0187 0.7135 -0.7004
vn -0.0968 0.7173 -0.6900
vn 0.0231 -0.7455 0.6660
vn 0.2436 -0.3810 0.8919
vn 0.2436 -0.3810 -0.8919
vn 0.0231 -0.7455 -0.6660
vn 0.0309 0.7150 0.6984
vn -0.2365 0.7022 0.6715
vn -0.1279 0.6167 0.7767
vn -0.4908 -0.6390 0.5923
vn -0.2245 -0.3727 0.9004
vn -0.2245 -0.3727 -0.9004
vn -0.4908 -0.6390 -0.5923
vn -0.1279 0.6167 -0.7767
vn 0.0309 0.7150 -0.6984
vn 0.0000 -0.7071 -0.7071
vn 0.4312 -0.6709 -0.6033
vn 0.4312 -0.6709 0.6033
vn 0.0000 -0.7071 0.7071
vn -0.2365 0.7022 -0.6715
vn 0.6623 -0.3755 -0.6482
vn 0.6985 0.4689 -0.5406
vn 0.6985 0.4689 0.5406
vn 0.6623 -0.3755 0.6482
vn 0.0000 0.7071 0.7071
vn 0.0374 -0.0214 -0.9991
vn 0.0309 0.6934 -0.7199
vn 0.0068 -0.7586 0.6514
vn 0.0063 -0.7583 0.6518
vn 0.0063 -0.7583 -0.6518
vn 0.0068 -0.7586 -0.6514
vn 0.0309 0.6934 0.7199
vn 0.0674 -0.7713 -0.6329
vn 0.0326 -0.0901 -0.9954
vn 0.4954 -0.5999 -0.6283
vn 0.2445 -0.7514 -0.6128
vn 0.0004 -0.0764 0.9971
vn 0.0003 -0.0729 0.9973
vn 0.4954 -0.5999 0.6283
vn 0.2445 -0.7514 0.6128
vn 0.0326 -0.0901 0.9954
vn 0.0674 -0.7713 0.6329
vn 0.0003 -0.0764 -0.9971
vn 0.0003 -0.0729 -0.9973
vn 0.0000 0.7071 -0.7071
vn 0.0374 -0.0214 0.9991
usemtl None
s 1
f 17/1/1 2/2/2 4/3/3 18/4/4
f 42/5/5 37/6/6 8/7/7 19/8/8
f 19/8/8 8/7/7 6/9/9 20/10/10
f 45/11/11 44/12/12 2/13/2 17/14/1
f 39/15/13 7/16/14 5/17/15 38/18/16
f 46/19/17 4/20/3 2/21/2 44/22/12
f 37/23/6 10/24/18 12/25/19 40/26/20
f 33/27/21 9/28/22 11/29/23 32/30/24
f 41/31/11 40/32/20 12/33/19 21/34/11
f 36/35/5 31/36/25 10/37/18 22/38/5
f 29/39/5 27/40/26 15/41/27 23/42/5
f 25/43/28 13/44/29 16/45/30 28/46/31
f 31/47/25 15/48/27 14/49/32 34/50/33
f 35/51/11 34/52/33 14/53/32 24/54/11
f 32/55/24 35/51/11 24/54/11 16/56/30
f 25/57/28 29/39/5 23/42/5 13/58/29
f 33/59/21 36/35/5 22/38/5 9/60/22
f 38/61/16 41/31/11 21/34/11 11/62/23
f 47/63/34 45/11/11 17/14/1 1/64/35
f 7/16/14 19/8/8 20/10/10 5/17/15
f 39/65/13 42/5/5 19/8/8 7/16/14
f 1/66/35 17/1/1 18/4/4 3/67/36
f 16/56/30 24/54/11 30/68/11 28/69/31
f 43/70/37 48/71/5 29/39/5 25/57/28
f 43/72/37 25/43/28 28/46/31 47/73/34
f 48/71/5 46/74/17 27/40/26 29/39/5
f 15/48/27 27/75/26 26/76/38 14/49/32
f 24/54/11 14/53/32 26/77/38 30/68/11
f 13/58/29 23/42/5 36/35/5 33/59/21
f 11/62/23 21/34/11 35/51/11 32/55/24
f 21/34/11 12/33/19 34/52/33 35/51/11
f 10/24/18 31/47/25 34/50/33 12/25/19
f 23/42/5 15/41/27 31/36/25 36/35/5
f 13/44/29 33/27/21 32/30/24 16/45/30
f 9/60/22 22/38/5 42/5/5 39/65/13
f 5/17/15 20/10/10 41/31/11 38/61/16
f 20/10/10 6/9/9 40/32/20 41/31/11
f 8/7/7 37/23/6 40/26/20 6/9/9
f 9/28/22 39/15/13 38/18/16 11/29/23
f 22/38/5 10/37/18 37/6/6 42/5/5
f 18/4/4 4/3/3 46/74/17 48/71/5
f 3/78/36 43/72/37 47/73/34 1/79/35
f 3/67/36 18/4/4 48/71/5 43/70/37
f 28/69/31 30/68/11 45/11/11 47/63/34
f 27/75/26 46/19/17 44/22/12 26/76/38
f 30/68/11 26/77/38 44/12/12 45/11/11
f 58/80/39 50/81/40 52/82/41 59/83/42
f 72/84/5 66/85/43 56/86/43 61/87/5
f 76/88/44 74/89/45 50/90/40 58/91/39
f 65/92/46 55/93/47 53/94/48 67/95/49
f 77/96/50 52/97/41 50/98/40 74/99/45
f 78/100/51 75/101/52 57/102/53 49/103/54
f 75/101/52 76/88/44 58/91/39 57/102/53
f 65/104/46 71/105/55 62/106/56 55/93/47
f 71/105/55 72/84/5 61/87/5 62/106/56
f 49/107/54 57/108/53 60/109/57 51/110/58
f 57/108/53 58/80/39 59/83/42 60/109/57
f 79/111/59 71/105/55 65/104/46 73/112/60
f 70/113/11 76/88/44 75/101/52 69/114/61
f 64/115/62 63/116/11 70/113/11 69/114/61
f 69/114/61 75/101/52 78/100/51 67/117/49
f 53/94/48 64/115/62 69/114/61 67/117/49
f 77/96/50 74/99/45 68/118/63 66/119/43
f 56/86/43 66/119/43 68/118/63 54/120/63
f 65/92/46 67/95/49 78/121/51 73/122/60
f 68/123/63 74/89/45 76/88/44 70/113/11
f 63/116/11 54/120/63 68/123/63 70/113/11
f 77/124/50 66/85/43 72/84/5 80/125/64
f 59/83/42 52/82/41 77/124/50 80/125/64
f 51/126/58 73/122/60 78/121/51 49/127/54
f 51/110/58 60/109/57 79/111/59 73/112/60
f 60/109/57 59/83/42 80/125/64 79/111/59
f 80/125/64 72/84/5 71/105/55 79/111/59
