# Blender v2.80 (sub 75) OBJ File: 'Visualizacion - copia.blend'
# www.blender.org
mtllib Zanahoria.mtl
o Zanahoria_Sola_carrot.001
v 4.817049 1.445647 -7.797131
v 4.815875 1.449899 -7.798186
v 4.812668 1.453011 -7.798959
v 4.808288 1.454150 -7.799242
v 4.803907 1.453011 -7.798959
v 4.800700 1.449899 -7.798186
v 4.799526 1.445647 -7.797131
v 4.800700 1.441396 -7.796076
v 4.803907 1.438283 -7.795303
v 4.808288 1.437144 -7.795020
v 4.812668 1.438283 -7.795303
v 4.815875 1.441396 -7.796076
v 4.824916 1.439449 -7.822096
v 4.832411 1.430863 -7.856685
v 4.846724 1.417440 -7.910755
v 4.853731 1.404018 -7.964823
v 4.862068 1.390596 -8.018891
v 4.865294 1.377173 -8.072961
v 4.857656 1.404837 -8.079828
v 4.854863 1.416694 -8.025371
v 4.847642 1.426071 -7.970297
v 4.841575 1.436093 -7.915385
v 4.829179 1.442570 -7.859591
v 4.822689 1.447519 -7.824099
v 4.836791 1.425088 -8.084855
v 4.835177 1.435799 -8.030112
v 4.831009 1.442214 -7.974305
v 4.827506 1.449747 -7.918774
v 4.820349 1.451140 -7.861718
v 4.816602 1.453427 -7.825565
v 4.808288 1.432500 -8.086695
v 4.808288 1.442792 -8.031849
v 4.808288 1.448123 -7.975771
v 4.808288 1.454745 -7.920014
v 4.808288 1.454276 -7.862497
v 4.808288 1.455589 -7.826102
v 4.779785 1.425088 -8.084855
v 4.781397 1.435799 -8.030112
v 4.785566 1.442214 -7.974305
v 4.789069 1.449747 -7.918774
v 4.796225 1.451140 -7.861718
v 4.799973 1.453427 -7.825565
v 4.758919 1.404837 -8.079828
v 4.761713 1.416694 -8.025371
v 4.768933 1.426071 -7.970297
v 4.775001 1.436093 -7.915385
v 4.787395 1.442570 -7.859591
v 4.793886 1.447519 -7.824099
v 4.751282 1.377173 -8.072961
v 4.754508 1.390596 -8.018891
v 4.762845 1.404018 -7.964823
v 4.769851 1.417441 -7.910754
v 4.784163 1.430863 -7.856685
v 4.791658 1.439449 -7.822096
v 4.758919 1.349510 -8.066093
v 4.761713 1.364498 -8.012413
v 4.768933 1.381966 -7.959349
v 4.775001 1.398789 -7.906124
v 4.787395 1.419156 -7.853779
v 4.793886 1.431380 -7.820093
v 4.779784 1.329259 -8.061066
v 4.781397 1.345393 -8.007669
v 4.785566 1.365823 -7.955341
v 4.789069 1.385134 -7.902734
v 4.796225 1.410586 -7.851651
v 4.799973 1.425473 -7.818626
v 4.808288 1.321847 -8.059226
v 4.808288 1.338400 -8.005935
v 4.808288 1.359914 -7.953874
v 4.808288 1.380136 -7.901493
v 4.808288 1.407449 -7.850873
v 4.808288 1.423310 -7.818089
v 4.836791 1.329259 -8.061066
v 4.835177 1.345393 -8.007669
v 4.831009 1.365823 -7.955341
v 4.827506 1.385134 -7.902734
v 4.820349 1.410586 -7.851651
v 4.816602 1.425472 -7.818626
v 4.857656 1.349510 -8.066093
v 4.854862 1.364498 -8.012413
v 4.847642 1.381966 -7.959349
v 4.841575 1.398788 -7.906124
v 4.829179 1.419156 -7.853779
v 4.822689 1.431380 -7.820093
v 4.808288 1.449788 -7.780450
v 4.841419 1.356314 -8.156987
v 4.836980 1.372392 -8.160977
v 4.824853 1.384162 -8.163899
v 4.808288 1.388470 -8.164968
v 4.791722 1.384162 -8.163899
v 4.779595 1.372392 -8.160977
v 4.775156 1.356314 -8.156987
v 4.779595 1.340237 -8.152996
v 4.791722 1.328467 -8.150074
v 4.808288 1.324160 -8.149004
v 4.824853 1.328467 -8.150074
v 4.836980 1.340237 -8.152996
v 4.810884 1.356314 -8.156987
v 4.869750 1.367664 -8.111269
v 4.859975 1.360889 -8.138558
v 4.853050 1.385972 -8.144785
v 4.861516 1.397490 -8.118673
v 4.834131 1.404333 -8.149343
v 4.839019 1.419324 -8.124093
v 4.808288 1.411054 -8.151011
v 4.808288 1.427316 -8.126077
v 4.782444 1.404333 -8.149343
v 4.777556 1.419324 -8.124093
v 4.763525 1.385972 -8.144785
v 4.755060 1.397490 -8.118673
v 4.756600 1.360889 -8.138558
v 4.746825 1.367664 -8.111269
v 4.763525 1.335807 -8.132332
v 4.755060 1.337838 -8.103865
v 4.782444 1.317446 -8.127773
v 4.777556 1.316004 -8.098444
v 4.808288 1.310725 -8.126105
v 4.808288 1.308012 -8.096460
v 4.834131 1.317446 -8.127773
v 4.839019 1.316004 -8.098444
v 4.853050 1.335807 -8.132332
v 4.861516 1.337838 -8.103865
vt 0.644280 0.933549
vt 0.645538 0.957910
vt 0.634144 0.957910
vt 0.632927 0.933549
vt 0.710812 0.974994
vt 0.718424 0.974994
vt 0.715753 0.992090
vt 0.709074 0.992090
vt 0.703381 0.974994
vt 0.702468 0.992090
vt 0.696048 0.974994
vt 0.695726 0.992090
vt 0.688577 0.974994
vt 0.688712 0.992090
vt 0.680917 0.974994
vt 0.681405 0.992090
vt 0.673183 0.974994
vt 0.674075 0.992090
vt 0.665306 0.974994
vt 0.666952 0.992090
vt 0.657180 0.974994
vt 0.659728 0.992090
vt 0.648605 0.974994
vt 0.653010 0.992090
vt 0.697257 0.762037
vt 0.696248 0.764090
vt 0.691453 0.755784
vt 0.638976 0.974994
vt 0.646645 0.992090
vt 0.686350 0.763477
vt 0.685403 0.761284
vt 0.678580 0.775336
vt 0.676546 0.775336
vt 0.684651 0.758611
vt 0.670657 0.794842
vt 0.667175 0.794842
vt 0.659387 0.827312
vt 0.653158 0.827312
vt 0.651412 0.861101
vt 0.643192 0.861101
vt 0.645986 0.896354
vt 0.635666 0.896354
vt 0.680814 0.775336
vt 0.674374 0.794842
vt 0.665552 0.827312
vt 0.659389 0.861101
vt 0.655468 0.896354
vt 0.654361 0.933549
vt 0.687445 0.765199
vt 0.683199 0.775336
vt 0.678253 0.794842
vt 0.671664 0.827312
vt 0.667102 0.861101
vt 0.664320 0.896354
vt 0.663559 0.933549
vt 0.688649 0.766451
vt 0.685700 0.775336
vt 0.682247 0.794842
vt 0.677732 0.827312
vt 0.674597 0.861101
vt 0.672721 0.896354
vt 0.672181 0.933549
vt 0.689926 0.767234
vt 0.688283 0.775336
vt 0.686318 0.794842
vt 0.683770 0.827312
vt 0.681938 0.861101
vt 0.680827 0.896354
vt 0.680447 0.933549
vt 0.691243 0.767548
vt 0.690912 0.775336
vt 0.690436 0.794842
vt 0.689796 0.827312
vt 0.689197 0.861101
vt 0.688774 0.896354
vt 0.688518 0.933549
vt 0.692567 0.767393
vt 0.693557 0.775336
vt 0.694574 0.794842
vt 0.695831 0.827312
vt 0.696448 0.861101
vt 0.696688 0.896354
vt 0.696518 0.933549
vt 0.693865 0.766765
vt 0.696185 0.775336
vt 0.698708 0.794842
vt 0.701896 0.827312
vt 0.703767 0.861101
vt 0.704698 0.896354
vt 0.704591 0.933549
vt 0.695104 0.765665
vt 0.698762 0.775336
vt 0.702811 0.794842
vt 0.708014 0.827312
vt 0.711232 0.861101
vt 0.712949 0.896354
vt 0.712923 0.933549
vt 0.701256 0.775336
vt 0.706848 0.794842
vt 0.714202 0.827312
vt 0.718914 0.861101
vt 0.721601 0.896354
vt 0.721731 0.933549
vt 0.703632 0.775336
vt 0.710776 0.794842
vt 0.720475 0.827312
vt 0.726873 0.861101
vt 0.730859 0.896354
vt 0.731537 0.933549
vt 0.698084 0.759512
vt 0.705859 0.775336
vt 0.714519 0.794842
vt 0.726856 0.827312
vt 0.735105 0.861101
vt 0.740891 0.896354
vt 0.742385 0.933549
vt 0.680519 0.957910
vt 0.672468 0.957910
vt 0.688410 0.957910
vt 0.696175 0.957910
vt 0.703937 0.957910
vt 0.711897 0.957910
vt 0.726320 0.974994
vt 0.721851 0.992090
vt 0.740546 0.957910
vt 0.729368 0.957910
vt 0.720330 0.957910
vt 0.655265 0.957910
vt 0.664115 0.957910
vt 0.550215 0.840128
vt 0.558666 0.845007
vt 0.545335 0.858339
vt 0.550215 0.876549
vt 0.540456 0.876549
vt 0.527124 0.863218
vt 0.527124 0.853459
vt 0.540456 0.840128
vt 0.558666 0.871670
vt 0.532004 0.871670
vt 0.532004 0.845008
vt 0.563546 0.863218
vt 0.563546 0.853459
vt 0.734756 0.974994
vt 0.727552 0.992090
vn 0.8629 -0.4629 0.2029
vn 0.8611 -0.5083 0.0159
vn 0.9943 -0.0258 -0.1039
vn 0.9963 0.0206 0.0829
vn 0.0000 0.7113 -0.7029
vn 0.4298 0.5995 -0.6751
vn 0.2200 0.1535 -0.9633
vn -0.0000 0.2108 -0.9775
vn -0.4298 0.5995 -0.6751
vn -0.2200 0.1535 -0.9633
vn -0.7445 0.2941 -0.5993
vn -0.3811 -0.0028 -0.9245
vn -0.8597 -0.1231 -0.4957
vn -0.4401 -0.2163 -0.8715
vn -0.7445 -0.5403 -0.3922
vn -0.3811 -0.4299 -0.8185
vn -0.4298 -0.8457 -0.3164
vn -0.2200 -0.5862 -0.7797
vn 0.0000 -0.9574 -0.2886
vn 0.0000 -0.6435 -0.7655
vn 0.4298 -0.8457 -0.3164
vn 0.2200 -0.5862 -0.7797
vn 0.7445 -0.5403 -0.3922
vn 0.3811 -0.4299 -0.8185
vn 0.8046 0.5400 0.2470
vn 0.4645 0.8700 0.1651
vn -0.0000 0.2409 0.9705
vn 0.8597 -0.1231 -0.4957
vn 0.4401 -0.2163 -0.8715
vn 0.4646 -0.6918 0.5528
vn 0.8046 -0.3617 0.4709
vn 0.8391 -0.4105 0.3571
vn 0.9689 0.0597 0.2403
vn 0.9291 0.0891 0.3590
vn 0.8432 -0.4175 0.3388
vn 0.9736 0.0550 0.2215
vn 0.8510 -0.4322 0.2982
vn 0.9827 0.0446 0.1798
vn 0.8579 -0.4478 0.2520
vn 0.9906 0.0329 0.1326
vn 0.8615 -0.4581 0.2191
vn 0.9948 0.0246 0.0992
vn 0.4844 -0.7547 0.4425
vn 0.4868 -0.7634 0.4246
vn 0.4913 -0.7813 0.3849
vn 0.4953 -0.7997 0.3393
vn 0.4974 -0.8115 0.3068
vn 0.4982 -0.8169 0.2908
vn -0.0000 -0.8126 0.5828
vn -0.0000 -0.8807 0.4738
vn -0.0000 -0.8900 0.4560
vn 0.0000 -0.9091 0.4166
vn 0.0000 -0.9285 0.3713
vn 0.0000 -0.9408 0.3389
vn 0.0000 -0.9464 0.3229
vn -0.4646 -0.6918 0.5528
vn -0.4844 -0.7547 0.4425
vn -0.4868 -0.7634 0.4246
vn -0.4913 -0.7813 0.3849
vn -0.4953 -0.7997 0.3393
vn -0.4974 -0.8115 0.3068
vn -0.4982 -0.8169 0.2908
vn -0.8046 -0.3618 0.4709
vn -0.8391 -0.4105 0.3571
vn -0.8432 -0.4175 0.3387
vn -0.8510 -0.4322 0.2982
vn -0.8579 -0.4478 0.2520
vn -0.8615 -0.4581 0.2191
vn -0.8629 -0.4629 0.2029
vn -0.9291 0.0891 0.3590
vn -0.9689 0.0597 0.2403
vn -0.9736 0.0550 0.2215
vn -0.9827 0.0446 0.1798
vn -0.9906 0.0329 0.1326
vn -0.9948 0.0246 0.0992
vn -0.9963 0.0206 0.0829
vn -0.8046 0.5400 0.2470
vn -0.8391 0.5298 0.1236
vn -0.8432 0.5275 0.1042
vn -0.8510 0.5215 0.0615
vn -0.8579 0.5136 0.0133
vn -0.8615 0.5074 -0.0206
vn -0.8629 0.5041 -0.0371
vn -0.4645 0.8700 0.1651
vn -0.4844 0.8740 0.0382
vn -0.4868 0.8733 0.0183
vn -0.4913 0.8706 -0.0252
vn -0.4953 0.8656 -0.0741
vn -0.4974 0.8607 -0.1083
vn -0.4982 0.8580 -0.1250
vn 0.0000 0.9908 0.1351
vn 0.0000 1.0000 0.0069
vn 0.0000 0.9999 -0.0131
vn -0.0000 0.9984 -0.0569
vn 0.0000 0.9944 -0.1060
vn 0.0000 0.9901 -0.1404
vn -0.0000 0.9876 -0.1572
vn 0.4844 0.8740 0.0382
vn 0.4868 0.8733 0.0183
vn 0.4913 0.8706 -0.0252
vn 0.4953 0.8656 -0.0741
vn 0.4974 0.8607 -0.1083
vn 0.4982 0.8580 -0.1250
vn 0.8391 0.5298 0.1236
vn 0.8432 0.5274 0.1042
vn 0.8510 0.5215 0.0615
vn 0.8579 0.5136 0.0133
vn 0.8615 0.5074 -0.0206
vn 0.8629 0.5041 -0.0371
vn -0.8611 -0.5083 0.0159
vn -0.4971 -0.8615 0.1036
vn -0.9943 -0.0258 -0.1039
vn -0.8611 0.4567 -0.2236
vn -0.4971 0.8099 -0.3113
vn 0.0000 0.9392 -0.3434
vn 0.7445 0.2941 -0.5993
vn 0.3811 -0.0028 -0.9245
vn 0.8611 0.4567 -0.2236
vn 0.4971 0.8099 -0.3113
vn 0.4971 -0.8615 0.1036
vn 0.0000 -0.9908 0.1357
vn 0.0000 -0.2409 -0.9705
usemtl T_Frutas_1
s 1
f 79/1/1 122/2/2 99/3/3 18/4/4
f 105/5/5 103/6/6 88/7/7 89/8/8
f 107/9/9 105/5/5 89/8/8 90/10/10
f 109/11/11 107/9/9 90/10/10 91/12/12
f 111/13/13 109/11/11 91/12/12 92/14/14
f 113/15/15 111/13/13 92/14/14 93/16/16
f 115/17/17 113/15/15 93/16/16 94/18/18
f 117/19/19 115/17/17 94/18/18 95/20/20
f 119/21/21 117/19/19 95/20/20 96/22/22
f 121/23/23 119/21/21 96/22/22 97/24/24
f 2/25/25 3/26/26 85/27/27
f 100/28/28 121/23/23 97/24/24 86/29/29
f 11/30/30 12/31/31 85/27/27
f 12/31/31 84/32/32 13/33/33 1/34/34
f 84/32/32 83/35/35 14/36/36 13/33/33
f 83/35/35 82/37/37 15/38/38 14/36/36
f 82/37/37 81/39/39 16/40/40 15/38/38
f 81/39/39 80/41/41 17/42/42 16/40/40
f 80/41/41 79/1/1 18/4/4 17/42/42
f 11/30/30 78/43/43 84/32/32 12/31/31
f 78/43/43 77/44/44 83/35/35 84/32/32
f 77/44/44 76/45/45 82/37/37 83/35/35
f 76/45/45 75/46/46 81/39/39 82/37/37
f 75/46/46 74/47/47 80/41/41 81/39/39
f 74/47/47 73/48/48 79/1/1 80/41/41
f 10/49/49 72/50/50 78/43/43 11/30/30
f 72/50/50 71/51/51 77/44/44 78/43/43
f 71/51/51 70/52/52 76/45/45 77/44/44
f 70/52/52 69/53/53 75/46/46 76/45/45
f 69/53/53 68/54/54 74/47/47 75/46/46
f 68/54/54 67/55/55 73/48/48 74/47/47
f 9/56/56 66/57/57 72/50/50 10/49/49
f 66/57/57 65/58/58 71/51/51 72/50/50
f 65/58/58 64/59/59 70/52/52 71/51/51
f 64/59/59 63/60/60 69/53/53 70/52/52
f 63/60/60 62/61/61 68/54/54 69/53/53
f 62/61/61 61/62/62 67/55/55 68/54/54
f 8/63/63 60/64/64 66/57/57 9/56/56
f 60/64/64 59/65/65 65/58/58 66/57/57
f 59/65/65 58/66/66 64/59/59 65/58/58
f 58/66/66 57/67/67 63/60/60 64/59/59
f 57/67/67 56/68/68 62/61/61 63/60/60
f 56/68/68 55/69/69 61/62/62 62/61/61
f 7/70/70 54/71/71 60/64/64 8/63/63
f 54/71/71 53/72/72 59/65/65 60/64/64
f 53/72/72 52/73/73 58/66/66 59/65/65
f 52/73/73 51/74/74 57/67/67 58/66/66
f 51/74/74 50/75/75 56/68/68 57/67/67
f 50/75/75 49/76/76 55/69/69 56/68/68
f 6/77/77 48/78/78 54/71/71 7/70/70
f 48/78/78 47/79/79 53/72/72 54/71/71
f 47/79/79 46/80/80 52/73/73 53/72/72
f 46/80/80 45/81/81 51/74/74 52/73/73
f 45/81/81 44/82/82 50/75/75 51/74/74
f 44/82/82 43/83/83 49/76/76 50/75/75
f 5/84/84 42/85/85 48/78/78 6/77/77
f 42/85/85 41/86/86 47/79/79 48/78/78
f 41/86/86 40/87/87 46/80/80 47/79/79
f 40/87/87 39/88/88 45/81/81 46/80/80
f 39/88/88 38/89/89 44/82/82 45/81/81
f 38/89/89 37/90/90 43/83/83 44/82/82
f 4/91/91 36/92/92 42/85/85 5/84/84
f 36/92/92 35/93/93 41/86/86 42/85/85
f 35/93/93 34/94/94 40/87/87 41/86/86
f 34/94/94 33/95/95 39/88/88 40/87/87
f 33/95/95 32/96/96 38/89/89 39/88/88
f 32/96/96 31/97/97 37/90/90 38/89/89
f 3/26/26 30/98/98 36/92/92 4/91/91
f 30/98/98 29/99/99 35/93/93 36/92/92
f 29/99/99 28/100/100 34/94/94 35/93/93
f 28/100/100 27/101/101 33/95/95 34/94/94
f 27/101/101 26/102/102 32/96/96 33/95/95
f 26/102/102 25/103/103 31/97/97 32/96/96
f 2/25/25 24/104/104 30/98/98 3/26/26
f 24/104/104 23/105/105 29/99/99 30/98/98
f 23/105/105 22/106/106 28/100/100 29/99/99
f 22/106/106 21/107/107 27/101/101 28/100/100
f 21/107/107 20/108/108 26/102/102 27/101/101
f 20/108/108 19/109/109 25/103/103 26/102/102
f 1/110/34 13/111/33 24/104/104 2/25/25
f 13/111/33 14/112/36 23/105/105 24/104/104
f 14/112/36 15/113/38 22/106/106 23/105/105
f 15/113/38 16/114/40 21/107/107 22/106/106
f 16/114/40 17/115/42 20/108/108 21/107/107
f 17/115/42 18/116/4 19/109/109 20/108/108
f 10/49/49 11/30/30 85/27/27
f 9/56/56 10/49/49 85/27/27
f 8/63/63 9/56/56 85/27/27
f 7/70/70 8/63/63 85/27/27
f 6/77/77 7/70/70 85/27/27
f 5/84/84 6/77/77 85/27/27
f 4/91/91 5/84/84 85/27/27
f 12/31/31 1/34/34 85/27/27
f 1/110/34 2/25/25 85/27/27
f 3/26/26 4/91/91 85/27/27
f 55/69/69 114/117/110 116/118/111 61/62/62
f 49/76/76 112/119/112 114/117/110 55/69/69
f 43/83/83 110/120/113 112/119/112 49/76/76
f 37/90/90 108/121/114 110/120/113 43/83/83
f 31/97/97 106/122/115 108/121/114 37/90/90
f 103/6/6 101/123/116 87/124/117 88/7/7
f 18/116/4 99/125/3 102/126/118 19/109/109
f 25/103/103 104/127/119 106/122/115 31/97/97
f 73/48/48 120/128/120 122/2/2 79/1/1
f 19/109/109 102/126/118 104/127/119 25/103/103
f 67/55/55 118/129/121 120/128/120 73/48/48
f 61/62/62 116/118/111 118/129/121 67/55/55
f 88/130/7 87/131/117 98/132/122
f 95/133/20 94/134/18 98/132/122
f 92/135/14 91/136/12 98/132/122
f 89/137/8 88/130/7 98/132/122
f 96/138/22 95/133/20 98/132/122
f 93/139/16 92/135/14 98/132/122
f 90/140/10 89/137/8 98/132/122
f 97/141/24 96/138/22 98/132/122
f 87/131/117 86/142/29 98/132/122
f 94/134/18 93/139/16 98/132/122
f 91/136/12 90/140/10 98/132/122
f 86/142/29 97/141/24 98/132/122
f 102/126/118 99/125/3 100/143/28 101/123/116
f 104/127/119 102/126/118 101/123/116 103/6/6
f 106/122/115 104/127/119 103/6/6 105/5/5
f 108/121/114 106/122/115 105/5/5 107/9/9
f 110/120/113 108/121/114 107/9/9 109/11/11
f 112/119/112 110/120/113 109/11/11 111/13/13
f 114/117/110 112/119/112 111/13/13 113/15/15
f 116/118/111 114/117/110 113/15/15 115/17/17
f 118/129/121 116/118/111 115/17/17 117/19/19
f 120/128/120 118/129/121 117/19/19 119/21/21
f 122/2/2 120/128/120 119/21/21 121/23/23
f 99/3/3 122/2/2 121/23/23 100/28/28
f 101/123/116 100/143/28 86/144/29 87/124/117
